<?xml version="1.0" encoding="utf-8" standalone="no"?>
<!DOCTYPE svg PUBLIC "-//W3C//DTD SVG 1.1//EN"
  "http://www.w3.org/Graphics/SVG/1.1/DTD/svg11.dtd">
<svg height="709.2pt" version="1.1" viewBox="0 0 1376.64 709.2" width="1376.64pt" xmlns="http://www.w3.org/2000/svg" xmlns:xlink="http://www.w3.org/1999/xlink">
 <metadata>
  <rdf:RDF xmlns:cc="http://creativecommons.org/ns#" xmlns:dc="http://purl.org/dc/elements/1.1/" xmlns:rdf="http://www.w3.org/1999/02/22-rdf-syntax-ns#">
   <cc:Work>
    <dc:type rdf:resource="http://purl.org/dc/dcmitype/StillImage"/>
    <dc:date>2021-06-03T22:35:53.744634</dc:date>
    <dc:format>image/svg+xml</dc:format>
    <dc:creator>
     <cc:Agent>
      <dc:title>Matplotlib v3.4.1, https://matplotlib.org/</dc:title>
     </cc:Agent>
    </dc:creator>
   </cc:Work>
  </rdf:RDF>
 </metadata>
 <defs>
  <style type="text/css">*{stroke-linecap:butt;stroke-linejoin:round;}</style>
 </defs>
 <g id="figure_1">
  <g id="patch_1">
   <path d="M 0 709.2 
L 1376.64 709.2 
L 1376.64 0 
L 0 0 
z
" style="fill:#ffffff;"/>
  </g>
  <g id="axes_1">
   <g id="patch_2">
    <path d="M 172.08 631.188 
L 1238.976 631.188 
L 1238.976 85.104 
L 172.08 85.104 
z
" style="fill:#ffffff;"/>
   </g>
   <g id="matplotlib.axis_1">
    <g id="xtick_1">
     <g id="line2d_1">
      <defs>
       <path d="M 0 0 
L 0 3.5 
" id="m99ce57f981" style="stroke:#000000;stroke-width:0.8;"/>
      </defs>
      <g>
       <use style="stroke:#000000;stroke-width:0.8;" x="216.771722" xlink:href="#m99ce57f981" y="631.188"/>
      </g>
     </g>
     <g id="text_1">
      <!-- 0 -->
      <g transform="translate(209.772972 654.904562)scale(0.22 -0.22)">
       <defs>
        <path d="M 2034 4250 
Q 1547 4250 1301 3770 
Q 1056 3291 1056 2328 
Q 1056 1369 1301 889 
Q 1547 409 2034 409 
Q 2525 409 2770 889 
Q 3016 1369 3016 2328 
Q 3016 3291 2770 3770 
Q 2525 4250 2034 4250 
z
M 2034 4750 
Q 2819 4750 3233 4129 
Q 3647 3509 3647 2328 
Q 3647 1150 3233 529 
Q 2819 -91 2034 -91 
Q 1250 -91 836 529 
Q 422 1150 422 2328 
Q 422 3509 836 4129 
Q 1250 4750 2034 4750 
z
" id="DejaVuSans-30" transform="scale(0.015625)"/>
       </defs>
       <use xlink:href="#DejaVuSans-30"/>
      </g>
     </g>
    </g>
    <g id="xtick_2">
     <g id="line2d_2">
      <g>
       <use style="stroke:#000000;stroke-width:0.8;" x="406.949262" xlink:href="#m99ce57f981" y="631.188"/>
      </g>
     </g>
     <g id="text_2">
      <!-- 100 -->
      <g transform="translate(385.953012 654.904562)scale(0.22 -0.22)">
       <defs>
        <path d="M 794 531 
L 1825 531 
L 1825 4091 
L 703 3866 
L 703 4441 
L 1819 4666 
L 2450 4666 
L 2450 531 
L 3481 531 
L 3481 0 
L 794 0 
L 794 531 
z
" id="DejaVuSans-31" transform="scale(0.015625)"/>
       </defs>
       <use xlink:href="#DejaVuSans-31"/>
       <use x="63.623047" xlink:href="#DejaVuSans-30"/>
       <use x="127.246094" xlink:href="#DejaVuSans-30"/>
      </g>
     </g>
    </g>
    <g id="xtick_3">
     <g id="line2d_3">
      <g>
       <use style="stroke:#000000;stroke-width:0.8;" x="597.126802" xlink:href="#m99ce57f981" y="631.188"/>
      </g>
     </g>
     <g id="text_3">
      <!-- 200 -->
      <g transform="translate(576.130552 654.904562)scale(0.22 -0.22)">
       <defs>
        <path d="M 1228 531 
L 3431 531 
L 3431 0 
L 469 0 
L 469 531 
Q 828 903 1448 1529 
Q 2069 2156 2228 2338 
Q 2531 2678 2651 2914 
Q 2772 3150 2772 3378 
Q 2772 3750 2511 3984 
Q 2250 4219 1831 4219 
Q 1534 4219 1204 4116 
Q 875 4013 500 3803 
L 500 4441 
Q 881 4594 1212 4672 
Q 1544 4750 1819 4750 
Q 2544 4750 2975 4387 
Q 3406 4025 3406 3419 
Q 3406 3131 3298 2873 
Q 3191 2616 2906 2266 
Q 2828 2175 2409 1742 
Q 1991 1309 1228 531 
z
" id="DejaVuSans-32" transform="scale(0.015625)"/>
       </defs>
       <use xlink:href="#DejaVuSans-32"/>
       <use x="63.623047" xlink:href="#DejaVuSans-30"/>
       <use x="127.246094" xlink:href="#DejaVuSans-30"/>
      </g>
     </g>
    </g>
    <g id="xtick_4">
     <g id="line2d_4">
      <g>
       <use style="stroke:#000000;stroke-width:0.8;" x="787.304342" xlink:href="#m99ce57f981" y="631.188"/>
      </g>
     </g>
     <g id="text_4">
      <!-- 300 -->
      <g transform="translate(766.308092 654.904562)scale(0.22 -0.22)">
       <defs>
        <path d="M 2597 2516 
Q 3050 2419 3304 2112 
Q 3559 1806 3559 1356 
Q 3559 666 3084 287 
Q 2609 -91 1734 -91 
Q 1441 -91 1130 -33 
Q 819 25 488 141 
L 488 750 
Q 750 597 1062 519 
Q 1375 441 1716 441 
Q 2309 441 2620 675 
Q 2931 909 2931 1356 
Q 2931 1769 2642 2001 
Q 2353 2234 1838 2234 
L 1294 2234 
L 1294 2753 
L 1863 2753 
Q 2328 2753 2575 2939 
Q 2822 3125 2822 3475 
Q 2822 3834 2567 4026 
Q 2313 4219 1838 4219 
Q 1578 4219 1281 4162 
Q 984 4106 628 3988 
L 628 4550 
Q 988 4650 1302 4700 
Q 1616 4750 1894 4750 
Q 2613 4750 3031 4423 
Q 3450 4097 3450 3541 
Q 3450 3153 3228 2886 
Q 3006 2619 2597 2516 
z
" id="DejaVuSans-33" transform="scale(0.015625)"/>
       </defs>
       <use xlink:href="#DejaVuSans-33"/>
       <use x="63.623047" xlink:href="#DejaVuSans-30"/>
       <use x="127.246094" xlink:href="#DejaVuSans-30"/>
      </g>
     </g>
    </g>
    <g id="xtick_5">
     <g id="line2d_5">
      <g>
       <use style="stroke:#000000;stroke-width:0.8;" x="977.481882" xlink:href="#m99ce57f981" y="631.188"/>
      </g>
     </g>
     <g id="text_5">
      <!-- 400 -->
      <g transform="translate(956.485632 654.904562)scale(0.22 -0.22)">
       <defs>
        <path d="M 2419 4116 
L 825 1625 
L 2419 1625 
L 2419 4116 
z
M 2253 4666 
L 3047 4666 
L 3047 1625 
L 3713 1625 
L 3713 1100 
L 3047 1100 
L 3047 0 
L 2419 0 
L 2419 1100 
L 313 1100 
L 313 1709 
L 2253 4666 
z
" id="DejaVuSans-34" transform="scale(0.015625)"/>
       </defs>
       <use xlink:href="#DejaVuSans-34"/>
       <use x="63.623047" xlink:href="#DejaVuSans-30"/>
       <use x="127.246094" xlink:href="#DejaVuSans-30"/>
      </g>
     </g>
    </g>
    <g id="xtick_6">
     <g id="line2d_6">
      <g>
       <use style="stroke:#000000;stroke-width:0.8;" x="1167.659422" xlink:href="#m99ce57f981" y="631.188"/>
      </g>
     </g>
     <g id="text_6">
      <!-- 500 -->
      <g transform="translate(1146.663172 654.904562)scale(0.22 -0.22)">
       <defs>
        <path d="M 691 4666 
L 3169 4666 
L 3169 4134 
L 1269 4134 
L 1269 2991 
Q 1406 3038 1543 3061 
Q 1681 3084 1819 3084 
Q 2600 3084 3056 2656 
Q 3513 2228 3513 1497 
Q 3513 744 3044 326 
Q 2575 -91 1722 -91 
Q 1428 -91 1123 -41 
Q 819 9 494 109 
L 494 744 
Q 775 591 1075 516 
Q 1375 441 1709 441 
Q 2250 441 2565 725 
Q 2881 1009 2881 1497 
Q 2881 1984 2565 2268 
Q 2250 2553 1709 2553 
Q 1456 2553 1204 2497 
Q 953 2441 691 2322 
L 691 4666 
z
" id="DejaVuSans-35" transform="scale(0.015625)"/>
       </defs>
       <use xlink:href="#DejaVuSans-35"/>
       <use x="63.623047" xlink:href="#DejaVuSans-30"/>
       <use x="127.246094" xlink:href="#DejaVuSans-30"/>
      </g>
     </g>
    </g>
    <g id="text_7">
     <!-- string length (byte) -->
     <g transform="translate(598.740344 680.196438)scale(0.22 -0.22)">
      <defs>
       <path d="M 2834 3397 
L 2834 2853 
Q 2591 2978 2328 3040 
Q 2066 3103 1784 3103 
Q 1356 3103 1142 2972 
Q 928 2841 928 2578 
Q 928 2378 1081 2264 
Q 1234 2150 1697 2047 
L 1894 2003 
Q 2506 1872 2764 1633 
Q 3022 1394 3022 966 
Q 3022 478 2636 193 
Q 2250 -91 1575 -91 
Q 1294 -91 989 -36 
Q 684 19 347 128 
L 347 722 
Q 666 556 975 473 
Q 1284 391 1588 391 
Q 1994 391 2212 530 
Q 2431 669 2431 922 
Q 2431 1156 2273 1281 
Q 2116 1406 1581 1522 
L 1381 1569 
Q 847 1681 609 1914 
Q 372 2147 372 2553 
Q 372 3047 722 3315 
Q 1072 3584 1716 3584 
Q 2034 3584 2315 3537 
Q 2597 3491 2834 3397 
z
" id="DejaVuSans-73" transform="scale(0.015625)"/>
       <path d="M 1172 4494 
L 1172 3500 
L 2356 3500 
L 2356 3053 
L 1172 3053 
L 1172 1153 
Q 1172 725 1289 603 
Q 1406 481 1766 481 
L 2356 481 
L 2356 0 
L 1766 0 
Q 1100 0 847 248 
Q 594 497 594 1153 
L 594 3053 
L 172 3053 
L 172 3500 
L 594 3500 
L 594 4494 
L 1172 4494 
z
" id="DejaVuSans-74" transform="scale(0.015625)"/>
       <path d="M 2631 2963 
Q 2534 3019 2420 3045 
Q 2306 3072 2169 3072 
Q 1681 3072 1420 2755 
Q 1159 2438 1159 1844 
L 1159 0 
L 581 0 
L 581 3500 
L 1159 3500 
L 1159 2956 
Q 1341 3275 1631 3429 
Q 1922 3584 2338 3584 
Q 2397 3584 2469 3576 
Q 2541 3569 2628 3553 
L 2631 2963 
z
" id="DejaVuSans-72" transform="scale(0.015625)"/>
       <path d="M 603 3500 
L 1178 3500 
L 1178 0 
L 603 0 
L 603 3500 
z
M 603 4863 
L 1178 4863 
L 1178 4134 
L 603 4134 
L 603 4863 
z
" id="DejaVuSans-69" transform="scale(0.015625)"/>
       <path d="M 3513 2113 
L 3513 0 
L 2938 0 
L 2938 2094 
Q 2938 2591 2744 2837 
Q 2550 3084 2163 3084 
Q 1697 3084 1428 2787 
Q 1159 2491 1159 1978 
L 1159 0 
L 581 0 
L 581 3500 
L 1159 3500 
L 1159 2956 
Q 1366 3272 1645 3428 
Q 1925 3584 2291 3584 
Q 2894 3584 3203 3211 
Q 3513 2838 3513 2113 
z
" id="DejaVuSans-6e" transform="scale(0.015625)"/>
       <path d="M 2906 1791 
Q 2906 2416 2648 2759 
Q 2391 3103 1925 3103 
Q 1463 3103 1205 2759 
Q 947 2416 947 1791 
Q 947 1169 1205 825 
Q 1463 481 1925 481 
Q 2391 481 2648 825 
Q 2906 1169 2906 1791 
z
M 3481 434 
Q 3481 -459 3084 -895 
Q 2688 -1331 1869 -1331 
Q 1566 -1331 1297 -1286 
Q 1028 -1241 775 -1147 
L 775 -588 
Q 1028 -725 1275 -790 
Q 1522 -856 1778 -856 
Q 2344 -856 2625 -561 
Q 2906 -266 2906 331 
L 2906 616 
Q 2728 306 2450 153 
Q 2172 0 1784 0 
Q 1141 0 747 490 
Q 353 981 353 1791 
Q 353 2603 747 3093 
Q 1141 3584 1784 3584 
Q 2172 3584 2450 3431 
Q 2728 3278 2906 2969 
L 2906 3500 
L 3481 3500 
L 3481 434 
z
" id="DejaVuSans-67" transform="scale(0.015625)"/>
       <path id="DejaVuSans-20" transform="scale(0.015625)"/>
       <path d="M 603 4863 
L 1178 4863 
L 1178 0 
L 603 0 
L 603 4863 
z
" id="DejaVuSans-6c" transform="scale(0.015625)"/>
       <path d="M 3597 1894 
L 3597 1613 
L 953 1613 
Q 991 1019 1311 708 
Q 1631 397 2203 397 
Q 2534 397 2845 478 
Q 3156 559 3463 722 
L 3463 178 
Q 3153 47 2828 -22 
Q 2503 -91 2169 -91 
Q 1331 -91 842 396 
Q 353 884 353 1716 
Q 353 2575 817 3079 
Q 1281 3584 2069 3584 
Q 2775 3584 3186 3129 
Q 3597 2675 3597 1894 
z
M 3022 2063 
Q 3016 2534 2758 2815 
Q 2500 3097 2075 3097 
Q 1594 3097 1305 2825 
Q 1016 2553 972 2059 
L 3022 2063 
z
" id="DejaVuSans-65" transform="scale(0.015625)"/>
       <path d="M 3513 2113 
L 3513 0 
L 2938 0 
L 2938 2094 
Q 2938 2591 2744 2837 
Q 2550 3084 2163 3084 
Q 1697 3084 1428 2787 
Q 1159 2491 1159 1978 
L 1159 0 
L 581 0 
L 581 4863 
L 1159 4863 
L 1159 2956 
Q 1366 3272 1645 3428 
Q 1925 3584 2291 3584 
Q 2894 3584 3203 3211 
Q 3513 2838 3513 2113 
z
" id="DejaVuSans-68" transform="scale(0.015625)"/>
       <path d="M 1984 4856 
Q 1566 4138 1362 3434 
Q 1159 2731 1159 2009 
Q 1159 1288 1364 580 
Q 1569 -128 1984 -844 
L 1484 -844 
Q 1016 -109 783 600 
Q 550 1309 550 2009 
Q 550 2706 781 3412 
Q 1013 4119 1484 4856 
L 1984 4856 
z
" id="DejaVuSans-28" transform="scale(0.015625)"/>
       <path d="M 3116 1747 
Q 3116 2381 2855 2742 
Q 2594 3103 2138 3103 
Q 1681 3103 1420 2742 
Q 1159 2381 1159 1747 
Q 1159 1113 1420 752 
Q 1681 391 2138 391 
Q 2594 391 2855 752 
Q 3116 1113 3116 1747 
z
M 1159 2969 
Q 1341 3281 1617 3432 
Q 1894 3584 2278 3584 
Q 2916 3584 3314 3078 
Q 3713 2572 3713 1747 
Q 3713 922 3314 415 
Q 2916 -91 2278 -91 
Q 1894 -91 1617 61 
Q 1341 213 1159 525 
L 1159 0 
L 581 0 
L 581 4863 
L 1159 4863 
L 1159 2969 
z
" id="DejaVuSans-62" transform="scale(0.015625)"/>
       <path d="M 2059 -325 
Q 1816 -950 1584 -1140 
Q 1353 -1331 966 -1331 
L 506 -1331 
L 506 -850 
L 844 -850 
Q 1081 -850 1212 -737 
Q 1344 -625 1503 -206 
L 1606 56 
L 191 3500 
L 800 3500 
L 1894 763 
L 2988 3500 
L 3597 3500 
L 2059 -325 
z
" id="DejaVuSans-79" transform="scale(0.015625)"/>
       <path d="M 513 4856 
L 1013 4856 
Q 1481 4119 1714 3412 
Q 1947 2706 1947 2009 
Q 1947 1309 1714 600 
Q 1481 -109 1013 -844 
L 513 -844 
Q 928 -128 1133 580 
Q 1338 1288 1338 2009 
Q 1338 2731 1133 3434 
Q 928 4138 513 4856 
z
" id="DejaVuSans-29" transform="scale(0.015625)"/>
      </defs>
      <use xlink:href="#DejaVuSans-73"/>
      <use x="52.099609" xlink:href="#DejaVuSans-74"/>
      <use x="91.308594" xlink:href="#DejaVuSans-72"/>
      <use x="132.421875" xlink:href="#DejaVuSans-69"/>
      <use x="160.205078" xlink:href="#DejaVuSans-6e"/>
      <use x="223.583984" xlink:href="#DejaVuSans-67"/>
      <use x="287.060547" xlink:href="#DejaVuSans-20"/>
      <use x="318.847656" xlink:href="#DejaVuSans-6c"/>
      <use x="346.630859" xlink:href="#DejaVuSans-65"/>
      <use x="408.154297" xlink:href="#DejaVuSans-6e"/>
      <use x="471.533203" xlink:href="#DejaVuSans-67"/>
      <use x="535.009766" xlink:href="#DejaVuSans-74"/>
      <use x="574.21875" xlink:href="#DejaVuSans-68"/>
      <use x="637.597656" xlink:href="#DejaVuSans-20"/>
      <use x="669.384766" xlink:href="#DejaVuSans-28"/>
      <use x="708.398438" xlink:href="#DejaVuSans-62"/>
      <use x="771.875" xlink:href="#DejaVuSans-79"/>
      <use x="831.054688" xlink:href="#DejaVuSans-74"/>
      <use x="870.263672" xlink:href="#DejaVuSans-65"/>
      <use x="931.787109" xlink:href="#DejaVuSans-29"/>
     </g>
    </g>
   </g>
   <g id="matplotlib.axis_2">
    <g id="ytick_1">
     <g id="line2d_7">
      <defs>
       <path d="M 0 0 
L -3.5 0 
" id="me8d598e35b" style="stroke:#000000;stroke-width:0.8;"/>
      </defs>
      <g>
       <use style="stroke:#000000;stroke-width:0.8;" x="172.08" xlink:href="#me8d598e35b" y="551.812154"/>
      </g>
     </g>
     <g id="text_8">
      <!-- 10 -->
      <g transform="translate(137.085 560.170435)scale(0.22 -0.22)">
       <use xlink:href="#DejaVuSans-31"/>
       <use x="63.623047" xlink:href="#DejaVuSans-30"/>
      </g>
     </g>
    </g>
    <g id="ytick_2">
     <g id="line2d_8">
      <g>
       <use style="stroke:#000000;stroke-width:0.8;" x="172.08" xlink:href="#me8d598e35b" y="464.526"/>
      </g>
     </g>
     <g id="text_9">
      <!-- 12 -->
      <g transform="translate(137.085 472.884281)scale(0.22 -0.22)">
       <use xlink:href="#DejaVuSans-31"/>
       <use x="63.623047" xlink:href="#DejaVuSans-32"/>
      </g>
     </g>
    </g>
    <g id="ytick_3">
     <g id="line2d_9">
      <g>
       <use style="stroke:#000000;stroke-width:0.8;" x="172.08" xlink:href="#me8d598e35b" y="377.239846"/>
      </g>
     </g>
     <g id="text_10">
      <!-- 14 -->
      <g transform="translate(137.085 385.598127)scale(0.22 -0.22)">
       <use xlink:href="#DejaVuSans-31"/>
       <use x="63.623047" xlink:href="#DejaVuSans-34"/>
      </g>
     </g>
    </g>
    <g id="ytick_4">
     <g id="line2d_10">
      <g>
       <use style="stroke:#000000;stroke-width:0.8;" x="172.08" xlink:href="#me8d598e35b" y="289.953692"/>
      </g>
     </g>
     <g id="text_11">
      <!-- 16 -->
      <g transform="translate(137.085 298.311974)scale(0.22 -0.22)">
       <defs>
        <path d="M 2113 2584 
Q 1688 2584 1439 2293 
Q 1191 2003 1191 1497 
Q 1191 994 1439 701 
Q 1688 409 2113 409 
Q 2538 409 2786 701 
Q 3034 994 3034 1497 
Q 3034 2003 2786 2293 
Q 2538 2584 2113 2584 
z
M 3366 4563 
L 3366 3988 
Q 3128 4100 2886 4159 
Q 2644 4219 2406 4219 
Q 1781 4219 1451 3797 
Q 1122 3375 1075 2522 
Q 1259 2794 1537 2939 
Q 1816 3084 2150 3084 
Q 2853 3084 3261 2657 
Q 3669 2231 3669 1497 
Q 3669 778 3244 343 
Q 2819 -91 2113 -91 
Q 1303 -91 875 529 
Q 447 1150 447 2328 
Q 447 3434 972 4092 
Q 1497 4750 2381 4750 
Q 2619 4750 2861 4703 
Q 3103 4656 3366 4563 
z
" id="DejaVuSans-36" transform="scale(0.015625)"/>
       </defs>
       <use xlink:href="#DejaVuSans-31"/>
       <use x="63.623047" xlink:href="#DejaVuSans-36"/>
      </g>
     </g>
    </g>
    <g id="ytick_5">
     <g id="line2d_11">
      <g>
       <use style="stroke:#000000;stroke-width:0.8;" x="172.08" xlink:href="#me8d598e35b" y="202.667538"/>
      </g>
     </g>
     <g id="text_12">
      <!-- 18 -->
      <g transform="translate(137.085 211.02582)scale(0.22 -0.22)">
       <defs>
        <path d="M 2034 2216 
Q 1584 2216 1326 1975 
Q 1069 1734 1069 1313 
Q 1069 891 1326 650 
Q 1584 409 2034 409 
Q 2484 409 2743 651 
Q 3003 894 3003 1313 
Q 3003 1734 2745 1975 
Q 2488 2216 2034 2216 
z
M 1403 2484 
Q 997 2584 770 2862 
Q 544 3141 544 3541 
Q 544 4100 942 4425 
Q 1341 4750 2034 4750 
Q 2731 4750 3128 4425 
Q 3525 4100 3525 3541 
Q 3525 3141 3298 2862 
Q 3072 2584 2669 2484 
Q 3125 2378 3379 2068 
Q 3634 1759 3634 1313 
Q 3634 634 3220 271 
Q 2806 -91 2034 -91 
Q 1263 -91 848 271 
Q 434 634 434 1313 
Q 434 1759 690 2068 
Q 947 2378 1403 2484 
z
M 1172 3481 
Q 1172 3119 1398 2916 
Q 1625 2713 2034 2713 
Q 2441 2713 2670 2916 
Q 2900 3119 2900 3481 
Q 2900 3844 2670 4047 
Q 2441 4250 2034 4250 
Q 1625 4250 1398 4047 
Q 1172 3844 1172 3481 
z
" id="DejaVuSans-38" transform="scale(0.015625)"/>
       </defs>
       <use xlink:href="#DejaVuSans-31"/>
       <use x="63.623047" xlink:href="#DejaVuSans-38"/>
      </g>
     </g>
    </g>
    <g id="ytick_6">
     <g id="line2d_12">
      <g>
       <use style="stroke:#000000;stroke-width:0.8;" x="172.08" xlink:href="#me8d598e35b" y="115.381385"/>
      </g>
     </g>
     <g id="text_13">
      <!-- 20 -->
      <g transform="translate(137.085 123.739666)scale(0.22 -0.22)">
       <use xlink:href="#DejaVuSans-32"/>
       <use x="63.623047" xlink:href="#DejaVuSans-30"/>
      </g>
     </g>
    </g>
    <g id="text_14">
     <!-- delay (us) -->
     <g transform="translate(128.509688 412.986156)rotate(-90)scale(0.22 -0.22)">
      <defs>
       <path d="M 2906 2969 
L 2906 4863 
L 3481 4863 
L 3481 0 
L 2906 0 
L 2906 525 
Q 2725 213 2448 61 
Q 2172 -91 1784 -91 
Q 1150 -91 751 415 
Q 353 922 353 1747 
Q 353 2572 751 3078 
Q 1150 3584 1784 3584 
Q 2172 3584 2448 3432 
Q 2725 3281 2906 2969 
z
M 947 1747 
Q 947 1113 1208 752 
Q 1469 391 1925 391 
Q 2381 391 2643 752 
Q 2906 1113 2906 1747 
Q 2906 2381 2643 2742 
Q 2381 3103 1925 3103 
Q 1469 3103 1208 2742 
Q 947 2381 947 1747 
z
" id="DejaVuSans-64" transform="scale(0.015625)"/>
       <path d="M 2194 1759 
Q 1497 1759 1228 1600 
Q 959 1441 959 1056 
Q 959 750 1161 570 
Q 1363 391 1709 391 
Q 2188 391 2477 730 
Q 2766 1069 2766 1631 
L 2766 1759 
L 2194 1759 
z
M 3341 1997 
L 3341 0 
L 2766 0 
L 2766 531 
Q 2569 213 2275 61 
Q 1981 -91 1556 -91 
Q 1019 -91 701 211 
Q 384 513 384 1019 
Q 384 1609 779 1909 
Q 1175 2209 1959 2209 
L 2766 2209 
L 2766 2266 
Q 2766 2663 2505 2880 
Q 2244 3097 1772 3097 
Q 1472 3097 1187 3025 
Q 903 2953 641 2809 
L 641 3341 
Q 956 3463 1253 3523 
Q 1550 3584 1831 3584 
Q 2591 3584 2966 3190 
Q 3341 2797 3341 1997 
z
" id="DejaVuSans-61" transform="scale(0.015625)"/>
       <path d="M 544 1381 
L 544 3500 
L 1119 3500 
L 1119 1403 
Q 1119 906 1312 657 
Q 1506 409 1894 409 
Q 2359 409 2629 706 
Q 2900 1003 2900 1516 
L 2900 3500 
L 3475 3500 
L 3475 0 
L 2900 0 
L 2900 538 
Q 2691 219 2414 64 
Q 2138 -91 1772 -91 
Q 1169 -91 856 284 
Q 544 659 544 1381 
z
M 1991 3584 
L 1991 3584 
z
" id="DejaVuSans-75" transform="scale(0.015625)"/>
      </defs>
      <use xlink:href="#DejaVuSans-64"/>
      <use x="63.476562" xlink:href="#DejaVuSans-65"/>
      <use x="125" xlink:href="#DejaVuSans-6c"/>
      <use x="152.783203" xlink:href="#DejaVuSans-61"/>
      <use x="214.0625" xlink:href="#DejaVuSans-79"/>
      <use x="273.242188" xlink:href="#DejaVuSans-20"/>
      <use x="305.029297" xlink:href="#DejaVuSans-28"/>
      <use x="344.042969" xlink:href="#DejaVuSans-75"/>
      <use x="407.421875" xlink:href="#DejaVuSans-73"/>
      <use x="459.521484" xlink:href="#DejaVuSans-29"/>
     </g>
    </g>
   </g>
   <g id="line2d_13">
    <path clip-path="url(#p22c5358b26)" d="M 220.575273 371.784462 
L 222.477048 595.455231 
L 224.378824 568.178308 
L 226.280599 600.910615 
L 230.08415 568.178308 
L 231.985925 606.366 
L 233.887701 540.901385 
L 235.789476 409.972154 
L 237.691251 584.544462 
L 239.593027 513.624462 
L 241.494802 535.446 
L 243.396578 529.990615 
L 245.298353 540.901385 
L 247.200128 388.150615 
L 249.101904 393.606 
L 251.003679 551.812154 
L 252.905455 399.061385 
L 254.80723 557.267538 
L 256.709005 557.267538 
L 258.610781 551.812154 
L 260.512556 508.169077 
L 262.414332 557.267538 
L 264.316107 513.624462 
L 266.217882 426.338308 
L 268.119658 562.722923 
L 270.021433 579.089077 
L 271.923209 540.901385 
L 273.824984 546.356769 
L 275.726759 546.356769 
L 277.628535 551.812154 
L 279.53031 339.052154 
L 281.432086 535.446 
L 283.333861 535.446 
L 285.235636 557.267538 
L 287.137412 551.812154 
L 289.039187 573.633692 
L 290.940963 388.150615 
L 292.842738 551.812154 
L 294.744513 551.812154 
L 296.646289 546.356769 
L 298.548064 497.258308 
L 300.44984 529.990615 
L 302.351615 251.766 
L 304.25339 562.722923 
L 306.155166 502.713692 
L 308.056941 529.990615 
L 309.958717 529.990615 
L 311.860492 540.901385 
L 313.762267 382.695231 
L 315.664043 535.446 
L 317.565818 497.258308 
L 319.467594 508.169077 
L 321.369369 551.812154 
L 323.271144 540.901385 
L 325.17292 540.901385 
L 327.074695 551.812154 
L 328.976471 551.812154 
L 330.878246 519.079846 
L 332.780021 551.812154 
L 334.681797 491.802923 
L 336.583572 540.901385 
L 338.485348 519.079846 
L 340.387123 513.624462 
L 342.288898 497.258308 
L 344.190674 557.267538 
L 346.092449 535.446 
L 347.994225 540.901385 
L 349.896 508.169077 
L 351.797775 513.624462 
L 353.699551 377.239846 
L 355.601326 551.812154 
L 357.503102 529.990615 
L 359.404877 529.990615 
L 361.306652 355.418308 
L 363.208428 524.535231 
L 365.110203 508.169077 
L 367.011979 529.990615 
L 368.913754 377.239846 
L 370.815529 322.686 
L 372.717305 317.230615 
L 374.61908 557.267538 
L 376.520856 502.713692 
L 378.422631 529.990615 
L 380.324406 508.169077 
L 384.127957 540.901385 
L 386.029733 529.990615 
L 387.931508 513.624462 
L 389.833283 540.901385 
L 391.735059 524.535231 
L 393.636834 339.052154 
L 395.53861 513.624462 
L 397.440385 339.052154 
L 399.34216 508.169077 
L 401.243936 529.990615 
L 403.145711 480.892154 
L 405.047487 480.892154 
L 406.949262 475.436769 
L 408.851037 486.347538 
L 410.752813 508.169077 
L 412.654588 464.526 
L 414.556364 475.436769 
L 416.458139 480.892154 
L 418.359914 469.981385 
L 420.26169 339.052154 
L 422.163465 508.169077 
L 424.065241 311.775231 
L 425.967016 502.713692 
L 427.868791 486.347538 
L 429.770567 524.535231 
L 431.672342 464.526 
L 433.574118 491.802923 
L 435.475893 480.892154 
L 437.377668 502.713692 
L 439.279444 513.624462 
L 441.181219 480.892154 
L 443.082995 491.802923 
L 444.98477 469.981385 
L 446.886545 464.526 
L 448.788321 486.347538 
L 450.690096 502.713692 
L 452.591872 469.981385 
L 456.395422 491.802923 
L 460.198973 469.981385 
L 462.100749 524.535231 
L 464.002524 469.981385 
L 465.904299 442.704462 
L 467.806075 486.347538 
L 469.70785 502.713692 
L 471.609626 360.873692 
L 473.511401 426.338308 
L 475.413176 480.892154 
L 477.314952 513.624462 
L 479.216727 502.713692 
L 483.020278 469.981385 
L 486.823829 349.962923 
L 488.725604 486.347538 
L 490.62738 508.169077 
L 492.529155 486.347538 
L 494.43093 475.436769 
L 496.332706 475.436769 
L 498.234481 519.079846 
L 500.136257 486.347538 
L 502.038032 469.981385 
L 503.939807 464.526 
L 505.841583 513.624462 
L 507.743358 486.347538 
L 509.645134 453.615231 
L 511.546909 437.249077 
L 513.448684 486.347538 
L 515.35046 453.615231 
L 517.252235 453.615231 
L 519.154011 469.981385 
L 521.055786 469.981385 
L 522.957561 475.436769 
L 524.859337 459.070615 
L 526.761112 448.159846 
L 530.564663 459.070615 
L 532.466439 453.615231 
L 534.368214 453.615231 
L 536.269989 300.864462 
L 538.171765 502.713692 
L 540.07354 453.615231 
L 541.975316 459.070615 
L 543.877091 431.793692 
L 545.778866 469.981385 
L 547.680642 453.615231 
L 549.582417 486.347538 
L 551.484193 306.319846 
L 553.385968 464.526 
L 555.287743 469.981385 
L 557.189519 448.159846 
L 559.091294 448.159846 
L 560.99307 453.615231 
L 562.894845 497.258308 
L 564.79662 453.615231 
L 566.698396 442.704462 
L 568.600171 469.981385 
L 570.501947 475.436769 
L 572.403722 453.615231 
L 574.305497 415.427538 
L 576.207273 442.704462 
L 578.109048 448.159846 
L 580.010824 475.436769 
L 581.912599 420.882923 
L 583.814374 453.615231 
L 585.71615 437.249077 
L 587.617925 480.892154 
L 589.519701 491.802923 
L 591.421476 475.436769 
L 595.225027 464.526 
L 597.126802 437.249077 
L 599.028578 475.436769 
L 600.930353 491.802923 
L 602.832128 459.070615 
L 604.733904 469.981385 
L 606.635679 415.427538 
L 608.537455 480.892154 
L 610.43923 453.615231 
L 612.341005 486.347538 
L 614.242781 431.793692 
L 616.144556 442.704462 
L 618.046332 420.882923 
L 619.948107 442.704462 
L 621.849882 453.615231 
L 623.751658 459.070615 
L 625.653433 431.793692 
L 627.555209 464.526 
L 629.456984 409.972154 
L 631.358759 431.793692 
L 633.260535 322.686 
L 635.16231 464.526 
L 637.064086 448.159846 
L 638.965861 300.864462 
L 640.867636 393.606 
L 642.769412 426.338308 
L 644.671187 409.972154 
L 646.572963 426.338308 
L 648.474738 409.972154 
L 650.376513 289.953692 
L 652.278289 448.159846 
L 654.180064 420.882923 
L 656.08184 469.981385 
L 657.983615 480.892154 
L 659.88539 431.793692 
L 661.787166 399.061385 
L 663.688941 437.249077 
L 665.590717 469.981385 
L 667.492492 464.526 
L 669.394267 475.436769 
L 671.296043 415.427538 
L 673.197818 442.704462 
L 675.099594 431.793692 
L 677.001369 273.587538 
L 678.903144 399.061385 
L 682.706695 453.615231 
L 684.608471 431.793692 
L 686.510246 399.061385 
L 688.412021 426.338308 
L 690.313797 251.766 
L 692.215572 240.855231 
L 694.117348 437.249077 
L 696.019123 404.516769 
L 697.920898 399.061385 
L 699.822674 442.704462 
L 701.724449 382.695231 
L 705.528 415.427538 
L 707.429775 404.516769 
L 709.331551 453.615231 
L 711.233326 420.882923 
L 713.135102 431.793692 
L 715.036877 459.070615 
L 716.938652 399.061385 
L 718.840428 399.061385 
L 720.742203 426.338308 
L 722.643979 431.793692 
L 724.545754 415.427538 
L 726.447529 300.864462 
L 728.349305 426.338308 
L 730.25108 404.516769 
L 732.152856 420.882923 
L 734.054631 409.972154 
L 737.858182 431.793692 
L 739.759957 431.793692 
L 741.661733 420.882923 
L 743.563508 420.882923 
L 745.465283 399.061385 
L 747.367059 415.427538 
L 749.268834 273.587538 
L 751.17061 448.159846 
L 753.072385 453.615231 
L 754.97416 409.972154 
L 756.875936 257.221385 
L 758.777711 399.061385 
L 760.679487 382.695231 
L 762.581262 360.873692 
L 764.483037 431.793692 
L 766.384813 453.615231 
L 768.286588 420.882923 
L 770.188364 399.061385 
L 773.991914 420.882923 
L 775.89369 371.784462 
L 777.795465 409.972154 
L 779.697241 437.249077 
L 781.599016 448.159846 
L 783.500791 393.606 
L 785.402567 377.239846 
L 787.304342 431.793692 
L 789.206118 339.052154 
L 791.107893 399.061385 
L 793.009668 399.061385 
L 794.911444 426.338308 
L 796.813219 426.338308 
L 798.714995 448.159846 
L 800.61677 371.784462 
L 802.518545 393.606 
L 804.420321 388.150615 
L 806.322096 208.122923 
L 808.223872 257.221385 
L 810.125647 415.427538 
L 812.027422 229.944462 
L 813.929198 399.061385 
L 815.830973 393.606 
L 817.732749 366.329077 
L 819.634524 388.150615 
L 821.536299 224.489077 
L 823.438075 289.953692 
L 825.33985 442.704462 
L 827.241626 377.239846 
L 829.143401 404.516769 
L 831.045176 295.409077 
L 832.946952 317.230615 
L 834.848727 371.784462 
L 836.750503 355.418308 
L 838.652278 404.516769 
L 840.554053 284.498308 
L 842.455829 328.141385 
L 844.357604 404.516769 
L 846.25938 344.507538 
L 848.161155 404.516769 
L 850.06293 366.329077 
L 851.964706 388.150615 
L 853.866481 349.962923 
L 855.768257 366.329077 
L 857.670032 377.239846 
L 859.571807 426.338308 
L 861.473583 442.704462 
L 863.375358 306.319846 
L 865.277134 404.516769 
L 867.178909 306.319846 
L 869.080684 404.516769 
L 870.98246 366.329077 
L 872.884235 257.221385 
L 874.786011 382.695231 
L 876.687786 388.150615 
L 878.589561 333.596769 
L 880.491337 366.329077 
L 882.393112 295.409077 
L 884.294888 366.329077 
L 886.196663 377.239846 
L 888.098439 300.864462 
L 890.000214 268.132154 
L 891.901989 355.418308 
L 893.803765 415.427538 
L 895.70554 344.507538 
L 897.607316 333.596769 
L 899.509091 377.239846 
L 901.410866 262.676769 
L 903.312642 268.132154 
L 905.214417 246.310615 
L 907.116193 393.606 
L 909.017968 399.061385 
L 910.919743 344.507538 
L 912.821519 360.873692 
L 914.723294 317.230615 
L 918.526845 382.695231 
L 920.42862 295.409077 
L 922.330396 344.507538 
L 924.232171 409.972154 
L 926.133947 295.409077 
L 928.035722 295.409077 
L 929.937497 339.052154 
L 931.839273 279.042923 
L 933.741048 311.775231 
L 935.642824 366.329077 
L 937.544599 349.962923 
L 939.446374 399.061385 
L 941.34815 393.606 
L 943.249925 420.882923 
L 945.151701 300.864462 
L 947.053476 377.239846 
L 948.955251 300.864462 
L 950.857027 377.239846 
L 952.758802 366.329077 
L 954.660578 360.873692 
L 956.562353 349.962923 
L 958.464128 328.141385 
L 960.365904 339.052154 
L 962.267679 306.319846 
L 964.169455 371.784462 
L 966.07123 382.695231 
L 967.973005 284.498308 
L 969.874781 333.596769 
L 971.776556 322.686 
L 973.678332 333.596769 
L 975.580107 371.784462 
L 977.481882 344.507538 
L 979.383658 382.695231 
L 981.285433 355.418308 
L 983.187209 311.775231 
L 985.088984 289.953692 
L 986.990759 366.329077 
L 988.892535 371.784462 
L 990.79431 366.329077 
L 992.696086 399.061385 
L 994.597861 306.319846 
L 996.499636 317.230615 
L 998.401412 339.052154 
L 1000.303187 257.221385 
L 1002.204963 300.864462 
L 1004.106738 311.775231 
L 1006.008513 273.587538 
L 1007.910289 311.775231 
L 1009.812064 295.409077 
L 1011.71384 355.418308 
L 1013.615615 388.150615 
L 1015.51739 279.042923 
L 1017.419166 360.873692 
L 1019.320941 366.329077 
L 1021.222717 349.962923 
L 1023.124492 273.587538 
L 1025.026267 344.507538 
L 1026.928043 322.686 
L 1028.829818 284.498308 
L 1030.731594 268.132154 
L 1032.633369 333.596769 
L 1034.535144 333.596769 
L 1036.43692 306.319846 
L 1038.338695 300.864462 
L 1040.240471 339.052154 
L 1042.142246 311.775231 
L 1044.044021 317.230615 
L 1045.945797 300.864462 
L 1047.847572 333.596769 
L 1049.749348 360.873692 
L 1051.651123 328.141385 
L 1053.552898 300.864462 
L 1055.454674 284.498308 
L 1057.356449 311.775231 
L 1059.258225 333.596769 
L 1061.16 328.141385 
L 1063.061775 349.962923 
L 1064.963551 311.775231 
L 1066.865326 295.409077 
L 1068.767102 246.310615 
L 1070.668877 246.310615 
L 1072.570652 306.319846 
L 1074.472428 300.864462 
L 1076.374203 311.775231 
L 1078.275979 268.132154 
L 1080.177754 240.855231 
L 1082.079529 300.864462 
L 1083.981305 273.587538 
L 1085.88308 344.507538 
L 1087.784856 328.141385 
L 1089.686631 268.132154 
L 1091.588406 273.587538 
L 1093.490182 366.329077 
L 1095.391957 300.864462 
L 1097.293733 246.310615 
L 1099.195508 317.230615 
L 1101.097283 219.033692 
L 1102.999059 328.141385 
L 1104.900834 317.230615 
L 1106.80261 344.507538 
L 1108.704385 148.113692 
L 1110.60616 339.052154 
L 1112.507936 306.319846 
L 1114.409711 317.230615 
L 1116.311487 355.418308 
L 1118.213262 328.141385 
L 1120.115037 328.141385 
L 1122.016813 317.230615 
L 1123.918588 262.676769 
L 1125.820364 246.310615 
L 1127.722139 317.230615 
L 1129.623914 322.686 
L 1131.52569 300.864462 
L 1133.427465 295.409077 
L 1135.329241 295.409077 
L 1139.132791 306.319846 
L 1141.034567 284.498308 
L 1142.936342 268.132154 
L 1144.838118 169.935231 
L 1146.739893 284.498308 
L 1148.641668 317.230615 
L 1150.543444 295.409077 
L 1152.445219 295.409077 
L 1154.346995 240.855231 
L 1156.24877 273.587538 
L 1158.150545 109.926 
L 1160.052321 279.042923 
L 1161.954096 306.319846 
L 1163.855872 273.587538 
L 1165.757647 344.507538 
L 1167.659422 311.775231 
L 1169.561198 339.052154 
L 1171.462973 306.319846 
L 1173.364749 306.319846 
L 1175.266524 251.766 
L 1177.168299 295.409077 
L 1179.070075 317.230615 
L 1180.97185 284.498308 
L 1182.873626 349.962923 
L 1184.775401 279.042923 
L 1186.677176 311.775231 
L 1188.578952 295.409077 
L 1190.480727 224.489077 
L 1190.480727 224.489077 
" style="fill:none;stroke:#1f77b4;stroke-linecap:square;stroke-width:1.5;"/>
   </g>
   <g id="patch_3">
    <path d="M 172.08 631.188 
L 172.08 85.104 
" style="fill:none;stroke:#000000;stroke-linecap:square;stroke-linejoin:miter;stroke-width:0.8;"/>
   </g>
   <g id="patch_4">
    <path d="M 1238.976 631.188 
L 1238.976 85.104 
" style="fill:none;stroke:#000000;stroke-linecap:square;stroke-linejoin:miter;stroke-width:0.8;"/>
   </g>
   <g id="patch_5">
    <path d="M 172.08 631.188 
L 1238.976 631.188 
" style="fill:none;stroke:#000000;stroke-linecap:square;stroke-linejoin:miter;stroke-width:0.8;"/>
   </g>
   <g id="patch_6">
    <path d="M 172.08 85.104 
L 1238.976 85.104 
" style="fill:none;stroke:#000000;stroke-linecap:square;stroke-linejoin:miter;stroke-width:0.8;"/>
   </g>
   <g id="text_15">
    <!-- TTC of sending strings -->
    <g transform="translate(558.960563 79.104)scale(0.264 -0.264)">
     <defs>
      <path d="M -19 4666 
L 3928 4666 
L 3928 4134 
L 2272 4134 
L 2272 0 
L 1638 0 
L 1638 4134 
L -19 4134 
L -19 4666 
z
" id="DejaVuSans-54" transform="scale(0.015625)"/>
      <path d="M 4122 4306 
L 4122 3641 
Q 3803 3938 3442 4084 
Q 3081 4231 2675 4231 
Q 1875 4231 1450 3742 
Q 1025 3253 1025 2328 
Q 1025 1406 1450 917 
Q 1875 428 2675 428 
Q 3081 428 3442 575 
Q 3803 722 4122 1019 
L 4122 359 
Q 3791 134 3420 21 
Q 3050 -91 2638 -91 
Q 1578 -91 968 557 
Q 359 1206 359 2328 
Q 359 3453 968 4101 
Q 1578 4750 2638 4750 
Q 3056 4750 3426 4639 
Q 3797 4528 4122 4306 
z
" id="DejaVuSans-43" transform="scale(0.015625)"/>
      <path d="M 1959 3097 
Q 1497 3097 1228 2736 
Q 959 2375 959 1747 
Q 959 1119 1226 758 
Q 1494 397 1959 397 
Q 2419 397 2687 759 
Q 2956 1122 2956 1747 
Q 2956 2369 2687 2733 
Q 2419 3097 1959 3097 
z
M 1959 3584 
Q 2709 3584 3137 3096 
Q 3566 2609 3566 1747 
Q 3566 888 3137 398 
Q 2709 -91 1959 -91 
Q 1206 -91 779 398 
Q 353 888 353 1747 
Q 353 2609 779 3096 
Q 1206 3584 1959 3584 
z
" id="DejaVuSans-6f" transform="scale(0.015625)"/>
      <path d="M 2375 4863 
L 2375 4384 
L 1825 4384 
Q 1516 4384 1395 4259 
Q 1275 4134 1275 3809 
L 1275 3500 
L 2222 3500 
L 2222 3053 
L 1275 3053 
L 1275 0 
L 697 0 
L 697 3053 
L 147 3053 
L 147 3500 
L 697 3500 
L 697 3744 
Q 697 4328 969 4595 
Q 1241 4863 1831 4863 
L 2375 4863 
z
" id="DejaVuSans-66" transform="scale(0.015625)"/>
     </defs>
     <use xlink:href="#DejaVuSans-54"/>
     <use x="59.333984" xlink:href="#DejaVuSans-54"/>
     <use x="114.542969" xlink:href="#DejaVuSans-43"/>
     <use x="184.367188" xlink:href="#DejaVuSans-20"/>
     <use x="216.154297" xlink:href="#DejaVuSans-6f"/>
     <use x="277.335938" xlink:href="#DejaVuSans-66"/>
     <use x="312.541016" xlink:href="#DejaVuSans-20"/>
     <use x="344.328125" xlink:href="#DejaVuSans-73"/>
     <use x="396.427734" xlink:href="#DejaVuSans-65"/>
     <use x="457.951172" xlink:href="#DejaVuSans-6e"/>
     <use x="521.330078" xlink:href="#DejaVuSans-64"/>
     <use x="584.806641" xlink:href="#DejaVuSans-69"/>
     <use x="612.589844" xlink:href="#DejaVuSans-6e"/>
     <use x="675.96875" xlink:href="#DejaVuSans-67"/>
     <use x="739.445312" xlink:href="#DejaVuSans-20"/>
     <use x="771.232422" xlink:href="#DejaVuSans-73"/>
     <use x="823.332031" xlink:href="#DejaVuSans-74"/>
     <use x="862.541016" xlink:href="#DejaVuSans-72"/>
     <use x="903.654297" xlink:href="#DejaVuSans-69"/>
     <use x="931.4375" xlink:href="#DejaVuSans-6e"/>
     <use x="994.816406" xlink:href="#DejaVuSans-67"/>
     <use x="1058.292969" xlink:href="#DejaVuSans-73"/>
    </g>
   </g>
  </g>
 </g>
 <defs>
  <clipPath id="p22c5358b26">
   <rect height="546.084" width="1066.896" x="172.08" y="85.104"/>
  </clipPath>
 </defs>
</svg>
