<?xml version="1.0" encoding="utf-8" standalone="no"?>
<!DOCTYPE svg PUBLIC "-//W3C//DTD SVG 1.1//EN"
  "http://www.w3.org/Graphics/SVG/1.1/DTD/svg11.dtd">
<!-- Created with matplotlib (https://matplotlib.org/) -->
<svg height="288pt" version="1.1" viewBox="0 0 432 288" width="432pt" xmlns="http://www.w3.org/2000/svg" xmlns:xlink="http://www.w3.org/1999/xlink">
 <metadata>
  <rdf:RDF xmlns:cc="http://creativecommons.org/ns#" xmlns:dc="http://purl.org/dc/elements/1.1/" xmlns:rdf="http://www.w3.org/1999/02/22-rdf-syntax-ns#">
   <cc:Work>
    <dc:type rdf:resource="http://purl.org/dc/dcmitype/StillImage"/>
    <dc:date>2021-05-07T09:50:37.362274</dc:date>
    <dc:format>image/svg+xml</dc:format>
    <dc:creator>
     <cc:Agent>
      <dc:title>Matplotlib v3.3.0, https://matplotlib.org/</dc:title>
     </cc:Agent>
    </dc:creator>
   </cc:Work>
  </rdf:RDF>
 </metadata>
 <defs>
  <style type="text/css">*{stroke-linecap:butt;stroke-linejoin:round;}</style>
 </defs>
 <g id="figure_1">
  <g id="patch_1">
   <path d="M 0 288 
L 432 288 
L 432 0 
L 0 0 
z
" style="fill:none;"/>
  </g>
  <g id="axes_1">
   <g id="patch_2">
    <path d="M 54 252 
L 388.8 252 
L 388.8 34.56 
L 54 34.56 
z
" style="fill:#ffffff;"/>
   </g>
   <g id="matplotlib.axis_1">
    <g id="xtick_1">
     <g id="line2d_1">
      <defs>
       <path d="M 0 0 
L 0 3.5 
" id="m6aa421e4ce" style="stroke:#000000;stroke-width:0.8;"/>
      </defs>
      <g>
       <use style="stroke:#000000;stroke-width:0.8;" x="69.218182" xlink:href="#m6aa421e4ce" y="252"/>
      </g>
     </g>
     <g id="text_1">
      <!-- 0 -->
      <g transform="translate(66.036932 266.598437)scale(0.1 -0.1)">
       <defs>
        <path d="M 31.78125 66.40625 
Q 24.171875 66.40625 20.328125 58.90625 
Q 16.5 51.421875 16.5 36.375 
Q 16.5 21.390625 20.328125 13.890625 
Q 24.171875 6.390625 31.78125 6.390625 
Q 39.453125 6.390625 43.28125 13.890625 
Q 47.125 21.390625 47.125 36.375 
Q 47.125 51.421875 43.28125 58.90625 
Q 39.453125 66.40625 31.78125 66.40625 
z
M 31.78125 74.21875 
Q 44.046875 74.21875 50.515625 64.515625 
Q 56.984375 54.828125 56.984375 36.375 
Q 56.984375 17.96875 50.515625 8.265625 
Q 44.046875 -1.421875 31.78125 -1.421875 
Q 19.53125 -1.421875 13.0625 8.265625 
Q 6.59375 17.96875 6.59375 36.375 
Q 6.59375 54.828125 13.0625 64.515625 
Q 19.53125 74.21875 31.78125 74.21875 
z
" id="DejaVuSans-48"/>
       </defs>
       <use xlink:href="#DejaVuSans-48"/>
      </g>
     </g>
    </g>
    <g id="xtick_2">
     <g id="line2d_2">
      <g>
       <use style="stroke:#000000;stroke-width:0.8;" x="128.780537" xlink:href="#m6aa421e4ce" y="252"/>
      </g>
     </g>
     <g id="text_2">
      <!-- 100 -->
      <g transform="translate(119.236787 266.598437)scale(0.1 -0.1)">
       <defs>
        <path d="M 12.40625 8.296875 
L 28.515625 8.296875 
L 28.515625 63.921875 
L 10.984375 60.40625 
L 10.984375 69.390625 
L 28.421875 72.90625 
L 38.28125 72.90625 
L 38.28125 8.296875 
L 54.390625 8.296875 
L 54.390625 0 
L 12.40625 0 
z
" id="DejaVuSans-49"/>
       </defs>
       <use xlink:href="#DejaVuSans-49"/>
       <use x="63.623047" xlink:href="#DejaVuSans-48"/>
       <use x="127.246094" xlink:href="#DejaVuSans-48"/>
      </g>
     </g>
    </g>
    <g id="xtick_3">
     <g id="line2d_3">
      <g>
       <use style="stroke:#000000;stroke-width:0.8;" x="188.342893" xlink:href="#m6aa421e4ce" y="252"/>
      </g>
     </g>
     <g id="text_3">
      <!-- 200 -->
      <g transform="translate(178.799143 266.598437)scale(0.1 -0.1)">
       <defs>
        <path d="M 19.1875 8.296875 
L 53.609375 8.296875 
L 53.609375 0 
L 7.328125 0 
L 7.328125 8.296875 
Q 12.9375 14.109375 22.625 23.890625 
Q 32.328125 33.6875 34.8125 36.53125 
Q 39.546875 41.84375 41.421875 45.53125 
Q 43.3125 49.21875 43.3125 52.78125 
Q 43.3125 58.59375 39.234375 62.25 
Q 35.15625 65.921875 28.609375 65.921875 
Q 23.96875 65.921875 18.8125 64.3125 
Q 13.671875 62.703125 7.8125 59.421875 
L 7.8125 69.390625 
Q 13.765625 71.78125 18.9375 73 
Q 24.125 74.21875 28.421875 74.21875 
Q 39.75 74.21875 46.484375 68.546875 
Q 53.21875 62.890625 53.21875 53.421875 
Q 53.21875 48.921875 51.53125 44.890625 
Q 49.859375 40.875 45.40625 35.40625 
Q 44.1875 33.984375 37.640625 27.21875 
Q 31.109375 20.453125 19.1875 8.296875 
z
" id="DejaVuSans-50"/>
       </defs>
       <use xlink:href="#DejaVuSans-50"/>
       <use x="63.623047" xlink:href="#DejaVuSans-48"/>
       <use x="127.246094" xlink:href="#DejaVuSans-48"/>
      </g>
     </g>
    </g>
    <g id="xtick_4">
     <g id="line2d_4">
      <g>
       <use style="stroke:#000000;stroke-width:0.8;" x="247.905248" xlink:href="#m6aa421e4ce" y="252"/>
      </g>
     </g>
     <g id="text_4">
      <!-- 300 -->
      <g transform="translate(238.361498 266.598437)scale(0.1 -0.1)">
       <defs>
        <path d="M 40.578125 39.3125 
Q 47.65625 37.796875 51.625 33 
Q 55.609375 28.21875 55.609375 21.1875 
Q 55.609375 10.40625 48.1875 4.484375 
Q 40.765625 -1.421875 27.09375 -1.421875 
Q 22.515625 -1.421875 17.65625 -0.515625 
Q 12.796875 0.390625 7.625 2.203125 
L 7.625 11.71875 
Q 11.71875 9.328125 16.59375 8.109375 
Q 21.484375 6.890625 26.8125 6.890625 
Q 36.078125 6.890625 40.9375 10.546875 
Q 45.796875 14.203125 45.796875 21.1875 
Q 45.796875 27.640625 41.28125 31.265625 
Q 36.765625 34.90625 28.71875 34.90625 
L 20.21875 34.90625 
L 20.21875 43.015625 
L 29.109375 43.015625 
Q 36.375 43.015625 40.234375 45.921875 
Q 44.09375 48.828125 44.09375 54.296875 
Q 44.09375 59.90625 40.109375 62.90625 
Q 36.140625 65.921875 28.71875 65.921875 
Q 24.65625 65.921875 20.015625 65.03125 
Q 15.375 64.15625 9.8125 62.3125 
L 9.8125 71.09375 
Q 15.4375 72.65625 20.34375 73.4375 
Q 25.25 74.21875 29.59375 74.21875 
Q 40.828125 74.21875 47.359375 69.109375 
Q 53.90625 64.015625 53.90625 55.328125 
Q 53.90625 49.265625 50.4375 45.09375 
Q 46.96875 40.921875 40.578125 39.3125 
z
" id="DejaVuSans-51"/>
       </defs>
       <use xlink:href="#DejaVuSans-51"/>
       <use x="63.623047" xlink:href="#DejaVuSans-48"/>
       <use x="127.246094" xlink:href="#DejaVuSans-48"/>
      </g>
     </g>
    </g>
    <g id="xtick_5">
     <g id="line2d_5">
      <g>
       <use style="stroke:#000000;stroke-width:0.8;" x="307.467604" xlink:href="#m6aa421e4ce" y="252"/>
      </g>
     </g>
     <g id="text_5">
      <!-- 400 -->
      <g transform="translate(297.923854 266.598437)scale(0.1 -0.1)">
       <defs>
        <path d="M 37.796875 64.3125 
L 12.890625 25.390625 
L 37.796875 25.390625 
z
M 35.203125 72.90625 
L 47.609375 72.90625 
L 47.609375 25.390625 
L 58.015625 25.390625 
L 58.015625 17.1875 
L 47.609375 17.1875 
L 47.609375 0 
L 37.796875 0 
L 37.796875 17.1875 
L 4.890625 17.1875 
L 4.890625 26.703125 
z
" id="DejaVuSans-52"/>
       </defs>
       <use xlink:href="#DejaVuSans-52"/>
       <use x="63.623047" xlink:href="#DejaVuSans-48"/>
       <use x="127.246094" xlink:href="#DejaVuSans-48"/>
      </g>
     </g>
    </g>
    <g id="xtick_6">
     <g id="line2d_6">
      <g>
       <use style="stroke:#000000;stroke-width:0.8;" x="367.029959" xlink:href="#m6aa421e4ce" y="252"/>
      </g>
     </g>
     <g id="text_6">
      <!-- 500 -->
      <g transform="translate(357.486209 266.598437)scale(0.1 -0.1)">
       <defs>
        <path d="M 10.796875 72.90625 
L 49.515625 72.90625 
L 49.515625 64.59375 
L 19.828125 64.59375 
L 19.828125 46.734375 
Q 21.96875 47.46875 24.109375 47.828125 
Q 26.265625 48.1875 28.421875 48.1875 
Q 40.625 48.1875 47.75 41.5 
Q 54.890625 34.8125 54.890625 23.390625 
Q 54.890625 11.625 47.5625 5.09375 
Q 40.234375 -1.421875 26.90625 -1.421875 
Q 22.3125 -1.421875 17.546875 -0.640625 
Q 12.796875 0.140625 7.71875 1.703125 
L 7.71875 11.625 
Q 12.109375 9.234375 16.796875 8.0625 
Q 21.484375 6.890625 26.703125 6.890625 
Q 35.15625 6.890625 40.078125 11.328125 
Q 45.015625 15.765625 45.015625 23.390625 
Q 45.015625 31 40.078125 35.4375 
Q 35.15625 39.890625 26.703125 39.890625 
Q 22.75 39.890625 18.8125 39.015625 
Q 14.890625 38.140625 10.796875 36.28125 
z
" id="DejaVuSans-53"/>
       </defs>
       <use xlink:href="#DejaVuSans-53"/>
       <use x="63.623047" xlink:href="#DejaVuSans-48"/>
       <use x="127.246094" xlink:href="#DejaVuSans-48"/>
      </g>
     </g>
    </g>
    <g id="text_7">
     <!-- i-th message -->
     <g transform="translate(189.017969 280.276563)scale(0.1 -0.1)">
      <defs>
       <path d="M 9.421875 54.6875 
L 18.40625 54.6875 
L 18.40625 0 
L 9.421875 0 
z
M 9.421875 75.984375 
L 18.40625 75.984375 
L 18.40625 64.59375 
L 9.421875 64.59375 
z
" id="DejaVuSans-105"/>
       <path d="M 4.890625 31.390625 
L 31.203125 31.390625 
L 31.203125 23.390625 
L 4.890625 23.390625 
z
" id="DejaVuSans-45"/>
       <path d="M 18.3125 70.21875 
L 18.3125 54.6875 
L 36.8125 54.6875 
L 36.8125 47.703125 
L 18.3125 47.703125 
L 18.3125 18.015625 
Q 18.3125 11.328125 20.140625 9.421875 
Q 21.96875 7.515625 27.59375 7.515625 
L 36.8125 7.515625 
L 36.8125 0 
L 27.59375 0 
Q 17.1875 0 13.234375 3.875 
Q 9.28125 7.765625 9.28125 18.015625 
L 9.28125 47.703125 
L 2.6875 47.703125 
L 2.6875 54.6875 
L 9.28125 54.6875 
L 9.28125 70.21875 
z
" id="DejaVuSans-116"/>
       <path d="M 54.890625 33.015625 
L 54.890625 0 
L 45.90625 0 
L 45.90625 32.71875 
Q 45.90625 40.484375 42.875 44.328125 
Q 39.84375 48.1875 33.796875 48.1875 
Q 26.515625 48.1875 22.3125 43.546875 
Q 18.109375 38.921875 18.109375 30.90625 
L 18.109375 0 
L 9.078125 0 
L 9.078125 75.984375 
L 18.109375 75.984375 
L 18.109375 46.1875 
Q 21.34375 51.125 25.703125 53.5625 
Q 30.078125 56 35.796875 56 
Q 45.21875 56 50.046875 50.171875 
Q 54.890625 44.34375 54.890625 33.015625 
z
" id="DejaVuSans-104"/>
       <path id="DejaVuSans-32"/>
       <path d="M 52 44.1875 
Q 55.375 50.25 60.0625 53.125 
Q 64.75 56 71.09375 56 
Q 79.640625 56 84.28125 50.015625 
Q 88.921875 44.046875 88.921875 33.015625 
L 88.921875 0 
L 79.890625 0 
L 79.890625 32.71875 
Q 79.890625 40.578125 77.09375 44.375 
Q 74.3125 48.1875 68.609375 48.1875 
Q 61.625 48.1875 57.5625 43.546875 
Q 53.515625 38.921875 53.515625 30.90625 
L 53.515625 0 
L 44.484375 0 
L 44.484375 32.71875 
Q 44.484375 40.625 41.703125 44.40625 
Q 38.921875 48.1875 33.109375 48.1875 
Q 26.21875 48.1875 22.15625 43.53125 
Q 18.109375 38.875 18.109375 30.90625 
L 18.109375 0 
L 9.078125 0 
L 9.078125 54.6875 
L 18.109375 54.6875 
L 18.109375 46.1875 
Q 21.1875 51.21875 25.484375 53.609375 
Q 29.78125 56 35.6875 56 
Q 41.65625 56 45.828125 52.96875 
Q 50 49.953125 52 44.1875 
z
" id="DejaVuSans-109"/>
       <path d="M 56.203125 29.59375 
L 56.203125 25.203125 
L 14.890625 25.203125 
Q 15.484375 15.921875 20.484375 11.0625 
Q 25.484375 6.203125 34.421875 6.203125 
Q 39.59375 6.203125 44.453125 7.46875 
Q 49.3125 8.734375 54.109375 11.28125 
L 54.109375 2.78125 
Q 49.265625 0.734375 44.1875 -0.34375 
Q 39.109375 -1.421875 33.890625 -1.421875 
Q 20.796875 -1.421875 13.15625 6.1875 
Q 5.515625 13.8125 5.515625 26.8125 
Q 5.515625 40.234375 12.765625 48.109375 
Q 20.015625 56 32.328125 56 
Q 43.359375 56 49.78125 48.890625 
Q 56.203125 41.796875 56.203125 29.59375 
z
M 47.21875 32.234375 
Q 47.125 39.59375 43.09375 43.984375 
Q 39.0625 48.390625 32.421875 48.390625 
Q 24.90625 48.390625 20.390625 44.140625 
Q 15.875 39.890625 15.1875 32.171875 
z
" id="DejaVuSans-101"/>
       <path d="M 44.28125 53.078125 
L 44.28125 44.578125 
Q 40.484375 46.53125 36.375 47.5 
Q 32.28125 48.484375 27.875 48.484375 
Q 21.1875 48.484375 17.84375 46.4375 
Q 14.5 44.390625 14.5 40.28125 
Q 14.5 37.15625 16.890625 35.375 
Q 19.28125 33.59375 26.515625 31.984375 
L 29.59375 31.296875 
Q 39.15625 29.25 43.1875 25.515625 
Q 47.21875 21.78125 47.21875 15.09375 
Q 47.21875 7.46875 41.1875 3.015625 
Q 35.15625 -1.421875 24.609375 -1.421875 
Q 20.21875 -1.421875 15.453125 -0.5625 
Q 10.6875 0.296875 5.421875 2 
L 5.421875 11.28125 
Q 10.40625 8.6875 15.234375 7.390625 
Q 20.0625 6.109375 24.8125 6.109375 
Q 31.15625 6.109375 34.5625 8.28125 
Q 37.984375 10.453125 37.984375 14.40625 
Q 37.984375 18.0625 35.515625 20.015625 
Q 33.0625 21.96875 24.703125 23.78125 
L 21.578125 24.515625 
Q 13.234375 26.265625 9.515625 29.90625 
Q 5.8125 33.546875 5.8125 39.890625 
Q 5.8125 47.609375 11.28125 51.796875 
Q 16.75 56 26.8125 56 
Q 31.78125 56 36.171875 55.265625 
Q 40.578125 54.546875 44.28125 53.078125 
z
" id="DejaVuSans-115"/>
       <path d="M 34.28125 27.484375 
Q 23.390625 27.484375 19.1875 25 
Q 14.984375 22.515625 14.984375 16.5 
Q 14.984375 11.71875 18.140625 8.90625 
Q 21.296875 6.109375 26.703125 6.109375 
Q 34.1875 6.109375 38.703125 11.40625 
Q 43.21875 16.703125 43.21875 25.484375 
L 43.21875 27.484375 
z
M 52.203125 31.203125 
L 52.203125 0 
L 43.21875 0 
L 43.21875 8.296875 
Q 40.140625 3.328125 35.546875 0.953125 
Q 30.953125 -1.421875 24.3125 -1.421875 
Q 15.921875 -1.421875 10.953125 3.296875 
Q 6 8.015625 6 15.921875 
Q 6 25.140625 12.171875 29.828125 
Q 18.359375 34.515625 30.609375 34.515625 
L 43.21875 34.515625 
L 43.21875 35.40625 
Q 43.21875 41.609375 39.140625 45 
Q 35.0625 48.390625 27.6875 48.390625 
Q 23 48.390625 18.546875 47.265625 
Q 14.109375 46.140625 10.015625 43.890625 
L 10.015625 52.203125 
Q 14.9375 54.109375 19.578125 55.046875 
Q 24.21875 56 28.609375 56 
Q 40.484375 56 46.34375 49.84375 
Q 52.203125 43.703125 52.203125 31.203125 
z
" id="DejaVuSans-97"/>
       <path d="M 45.40625 27.984375 
Q 45.40625 37.75 41.375 43.109375 
Q 37.359375 48.484375 30.078125 48.484375 
Q 22.859375 48.484375 18.828125 43.109375 
Q 14.796875 37.75 14.796875 27.984375 
Q 14.796875 18.265625 18.828125 12.890625 
Q 22.859375 7.515625 30.078125 7.515625 
Q 37.359375 7.515625 41.375 12.890625 
Q 45.40625 18.265625 45.40625 27.984375 
z
M 54.390625 6.78125 
Q 54.390625 -7.171875 48.1875 -13.984375 
Q 42 -20.796875 29.203125 -20.796875 
Q 24.46875 -20.796875 20.265625 -20.09375 
Q 16.0625 -19.390625 12.109375 -17.921875 
L 12.109375 -9.1875 
Q 16.0625 -11.328125 19.921875 -12.34375 
Q 23.78125 -13.375 27.78125 -13.375 
Q 36.625 -13.375 41.015625 -8.765625 
Q 45.40625 -4.15625 45.40625 5.171875 
L 45.40625 9.625 
Q 42.625 4.78125 38.28125 2.390625 
Q 33.9375 0 27.875 0 
Q 17.828125 0 11.671875 7.65625 
Q 5.515625 15.328125 5.515625 27.984375 
Q 5.515625 40.671875 11.671875 48.328125 
Q 17.828125 56 27.875 56 
Q 33.9375 56 38.28125 53.609375 
Q 42.625 51.21875 45.40625 46.390625 
L 45.40625 54.6875 
L 54.390625 54.6875 
z
" id="DejaVuSans-103"/>
      </defs>
      <use xlink:href="#DejaVuSans-105"/>
      <use x="27.783203" xlink:href="#DejaVuSans-45"/>
      <use x="63.867188" xlink:href="#DejaVuSans-116"/>
      <use x="103.076172" xlink:href="#DejaVuSans-104"/>
      <use x="166.455078" xlink:href="#DejaVuSans-32"/>
      <use x="198.242188" xlink:href="#DejaVuSans-109"/>
      <use x="295.654297" xlink:href="#DejaVuSans-101"/>
      <use x="357.177734" xlink:href="#DejaVuSans-115"/>
      <use x="409.277344" xlink:href="#DejaVuSans-115"/>
      <use x="461.376953" xlink:href="#DejaVuSans-97"/>
      <use x="522.65625" xlink:href="#DejaVuSans-103"/>
      <use x="586.132812" xlink:href="#DejaVuSans-101"/>
     </g>
    </g>
   </g>
   <g id="matplotlib.axis_2">
    <g id="ytick_1">
     <g id="line2d_7">
      <defs>
       <path d="M 0 0 
L -3.5 0 
" id="mc80447ccde" style="stroke:#000000;stroke-width:0.8;"/>
      </defs>
      <g>
       <use style="stroke:#000000;stroke-width:0.8;" x="54" xlink:href="#mc80447ccde" y="247.710875"/>
      </g>
     </g>
     <g id="text_8">
      <!-- 2000 -->
      <g transform="translate(21.55 251.510094)scale(0.1 -0.1)">
       <use xlink:href="#DejaVuSans-50"/>
       <use x="63.623047" xlink:href="#DejaVuSans-48"/>
       <use x="127.246094" xlink:href="#DejaVuSans-48"/>
       <use x="190.869141" xlink:href="#DejaVuSans-48"/>
      </g>
     </g>
    </g>
    <g id="ytick_2">
     <g id="line2d_8">
      <g>
       <use style="stroke:#000000;stroke-width:0.8;" x="54" xlink:href="#mc80447ccde" y="217.873482"/>
      </g>
     </g>
     <g id="text_9">
      <!-- 4000 -->
      <g transform="translate(21.55 221.672701)scale(0.1 -0.1)">
       <use xlink:href="#DejaVuSans-52"/>
       <use x="63.623047" xlink:href="#DejaVuSans-48"/>
       <use x="127.246094" xlink:href="#DejaVuSans-48"/>
       <use x="190.869141" xlink:href="#DejaVuSans-48"/>
      </g>
     </g>
    </g>
    <g id="ytick_3">
     <g id="line2d_9">
      <g>
       <use style="stroke:#000000;stroke-width:0.8;" x="54" xlink:href="#mc80447ccde" y="188.036089"/>
      </g>
     </g>
     <g id="text_10">
      <!-- 6000 -->
      <g transform="translate(21.55 191.835308)scale(0.1 -0.1)">
       <defs>
        <path d="M 33.015625 40.375 
Q 26.375 40.375 22.484375 35.828125 
Q 18.609375 31.296875 18.609375 23.390625 
Q 18.609375 15.53125 22.484375 10.953125 
Q 26.375 6.390625 33.015625 6.390625 
Q 39.65625 6.390625 43.53125 10.953125 
Q 47.40625 15.53125 47.40625 23.390625 
Q 47.40625 31.296875 43.53125 35.828125 
Q 39.65625 40.375 33.015625 40.375 
z
M 52.59375 71.296875 
L 52.59375 62.3125 
Q 48.875 64.0625 45.09375 64.984375 
Q 41.3125 65.921875 37.59375 65.921875 
Q 27.828125 65.921875 22.671875 59.328125 
Q 17.53125 52.734375 16.796875 39.40625 
Q 19.671875 43.65625 24.015625 45.921875 
Q 28.375 48.1875 33.59375 48.1875 
Q 44.578125 48.1875 50.953125 41.515625 
Q 57.328125 34.859375 57.328125 23.390625 
Q 57.328125 12.15625 50.6875 5.359375 
Q 44.046875 -1.421875 33.015625 -1.421875 
Q 20.359375 -1.421875 13.671875 8.265625 
Q 6.984375 17.96875 6.984375 36.375 
Q 6.984375 53.65625 15.1875 63.9375 
Q 23.390625 74.21875 37.203125 74.21875 
Q 40.921875 74.21875 44.703125 73.484375 
Q 48.484375 72.75 52.59375 71.296875 
z
" id="DejaVuSans-54"/>
       </defs>
       <use xlink:href="#DejaVuSans-54"/>
       <use x="63.623047" xlink:href="#DejaVuSans-48"/>
       <use x="127.246094" xlink:href="#DejaVuSans-48"/>
       <use x="190.869141" xlink:href="#DejaVuSans-48"/>
      </g>
     </g>
    </g>
    <g id="ytick_4">
     <g id="line2d_10">
      <g>
       <use style="stroke:#000000;stroke-width:0.8;" x="54" xlink:href="#mc80447ccde" y="158.198696"/>
      </g>
     </g>
     <g id="text_11">
      <!-- 8000 -->
      <g transform="translate(21.55 161.997915)scale(0.1 -0.1)">
       <defs>
        <path d="M 31.78125 34.625 
Q 24.75 34.625 20.71875 30.859375 
Q 16.703125 27.09375 16.703125 20.515625 
Q 16.703125 13.921875 20.71875 10.15625 
Q 24.75 6.390625 31.78125 6.390625 
Q 38.8125 6.390625 42.859375 10.171875 
Q 46.921875 13.96875 46.921875 20.515625 
Q 46.921875 27.09375 42.890625 30.859375 
Q 38.875 34.625 31.78125 34.625 
z
M 21.921875 38.8125 
Q 15.578125 40.375 12.03125 44.71875 
Q 8.5 49.078125 8.5 55.328125 
Q 8.5 64.0625 14.71875 69.140625 
Q 20.953125 74.21875 31.78125 74.21875 
Q 42.671875 74.21875 48.875 69.140625 
Q 55.078125 64.0625 55.078125 55.328125 
Q 55.078125 49.078125 51.53125 44.71875 
Q 48 40.375 41.703125 38.8125 
Q 48.828125 37.15625 52.796875 32.3125 
Q 56.78125 27.484375 56.78125 20.515625 
Q 56.78125 9.90625 50.3125 4.234375 
Q 43.84375 -1.421875 31.78125 -1.421875 
Q 19.734375 -1.421875 13.25 4.234375 
Q 6.78125 9.90625 6.78125 20.515625 
Q 6.78125 27.484375 10.78125 32.3125 
Q 14.796875 37.15625 21.921875 38.8125 
z
M 18.3125 54.390625 
Q 18.3125 48.734375 21.84375 45.5625 
Q 25.390625 42.390625 31.78125 42.390625 
Q 38.140625 42.390625 41.71875 45.5625 
Q 45.3125 48.734375 45.3125 54.390625 
Q 45.3125 60.0625 41.71875 63.234375 
Q 38.140625 66.40625 31.78125 66.40625 
Q 25.390625 66.40625 21.84375 63.234375 
Q 18.3125 60.0625 18.3125 54.390625 
z
" id="DejaVuSans-56"/>
       </defs>
       <use xlink:href="#DejaVuSans-56"/>
       <use x="63.623047" xlink:href="#DejaVuSans-48"/>
       <use x="127.246094" xlink:href="#DejaVuSans-48"/>
       <use x="190.869141" xlink:href="#DejaVuSans-48"/>
      </g>
     </g>
    </g>
    <g id="ytick_5">
     <g id="line2d_11">
      <g>
       <use style="stroke:#000000;stroke-width:0.8;" x="54" xlink:href="#mc80447ccde" y="128.361304"/>
      </g>
     </g>
     <g id="text_12">
      <!-- 10000 -->
      <g transform="translate(15.1875 132.160522)scale(0.1 -0.1)">
       <use xlink:href="#DejaVuSans-49"/>
       <use x="63.623047" xlink:href="#DejaVuSans-48"/>
       <use x="127.246094" xlink:href="#DejaVuSans-48"/>
       <use x="190.869141" xlink:href="#DejaVuSans-48"/>
       <use x="254.492188" xlink:href="#DejaVuSans-48"/>
      </g>
     </g>
    </g>
    <g id="ytick_6">
     <g id="line2d_12">
      <g>
       <use style="stroke:#000000;stroke-width:0.8;" x="54" xlink:href="#mc80447ccde" y="98.523911"/>
      </g>
     </g>
     <g id="text_13">
      <!-- 12000 -->
      <g transform="translate(15.1875 102.32313)scale(0.1 -0.1)">
       <use xlink:href="#DejaVuSans-49"/>
       <use x="63.623047" xlink:href="#DejaVuSans-50"/>
       <use x="127.246094" xlink:href="#DejaVuSans-48"/>
       <use x="190.869141" xlink:href="#DejaVuSans-48"/>
       <use x="254.492188" xlink:href="#DejaVuSans-48"/>
      </g>
     </g>
    </g>
    <g id="ytick_7">
     <g id="line2d_13">
      <g>
       <use style="stroke:#000000;stroke-width:0.8;" x="54" xlink:href="#mc80447ccde" y="68.686518"/>
      </g>
     </g>
     <g id="text_14">
      <!-- 14000 -->
      <g transform="translate(15.1875 72.485737)scale(0.1 -0.1)">
       <use xlink:href="#DejaVuSans-49"/>
       <use x="63.623047" xlink:href="#DejaVuSans-52"/>
       <use x="127.246094" xlink:href="#DejaVuSans-48"/>
       <use x="190.869141" xlink:href="#DejaVuSans-48"/>
       <use x="254.492188" xlink:href="#DejaVuSans-48"/>
      </g>
     </g>
    </g>
    <g id="ytick_8">
     <g id="line2d_14">
      <g>
       <use style="stroke:#000000;stroke-width:0.8;" x="54" xlink:href="#mc80447ccde" y="38.849125"/>
      </g>
     </g>
     <g id="text_15">
      <!-- 16000 -->
      <g transform="translate(15.1875 42.648344)scale(0.1 -0.1)">
       <use xlink:href="#DejaVuSans-49"/>
       <use x="63.623047" xlink:href="#DejaVuSans-54"/>
       <use x="127.246094" xlink:href="#DejaVuSans-48"/>
       <use x="190.869141" xlink:href="#DejaVuSans-48"/>
       <use x="254.492188" xlink:href="#DejaVuSans-48"/>
      </g>
     </g>
    </g>
    <g id="text_16">
     <!-- delay [ns] -->
     <g transform="translate(9.107812 168.207344)rotate(-90)scale(0.1 -0.1)">
      <defs>
       <path d="M 45.40625 46.390625 
L 45.40625 75.984375 
L 54.390625 75.984375 
L 54.390625 0 
L 45.40625 0 
L 45.40625 8.203125 
Q 42.578125 3.328125 38.25 0.953125 
Q 33.9375 -1.421875 27.875 -1.421875 
Q 17.96875 -1.421875 11.734375 6.484375 
Q 5.515625 14.40625 5.515625 27.296875 
Q 5.515625 40.1875 11.734375 48.09375 
Q 17.96875 56 27.875 56 
Q 33.9375 56 38.25 53.625 
Q 42.578125 51.265625 45.40625 46.390625 
z
M 14.796875 27.296875 
Q 14.796875 17.390625 18.875 11.75 
Q 22.953125 6.109375 30.078125 6.109375 
Q 37.203125 6.109375 41.296875 11.75 
Q 45.40625 17.390625 45.40625 27.296875 
Q 45.40625 37.203125 41.296875 42.84375 
Q 37.203125 48.484375 30.078125 48.484375 
Q 22.953125 48.484375 18.875 42.84375 
Q 14.796875 37.203125 14.796875 27.296875 
z
" id="DejaVuSans-100"/>
       <path d="M 9.421875 75.984375 
L 18.40625 75.984375 
L 18.40625 0 
L 9.421875 0 
z
" id="DejaVuSans-108"/>
       <path d="M 32.171875 -5.078125 
Q 28.375 -14.84375 24.75 -17.8125 
Q 21.140625 -20.796875 15.09375 -20.796875 
L 7.90625 -20.796875 
L 7.90625 -13.28125 
L 13.1875 -13.28125 
Q 16.890625 -13.28125 18.9375 -11.515625 
Q 21 -9.765625 23.484375 -3.21875 
L 25.09375 0.875 
L 2.984375 54.6875 
L 12.5 54.6875 
L 29.59375 11.921875 
L 46.6875 54.6875 
L 56.203125 54.6875 
z
" id="DejaVuSans-121"/>
       <path d="M 8.59375 75.984375 
L 29.296875 75.984375 
L 29.296875 69 
L 17.578125 69 
L 17.578125 -6.203125 
L 29.296875 -6.203125 
L 29.296875 -13.1875 
L 8.59375 -13.1875 
z
" id="DejaVuSans-91"/>
       <path d="M 54.890625 33.015625 
L 54.890625 0 
L 45.90625 0 
L 45.90625 32.71875 
Q 45.90625 40.484375 42.875 44.328125 
Q 39.84375 48.1875 33.796875 48.1875 
Q 26.515625 48.1875 22.3125 43.546875 
Q 18.109375 38.921875 18.109375 30.90625 
L 18.109375 0 
L 9.078125 0 
L 9.078125 54.6875 
L 18.109375 54.6875 
L 18.109375 46.1875 
Q 21.34375 51.125 25.703125 53.5625 
Q 30.078125 56 35.796875 56 
Q 45.21875 56 50.046875 50.171875 
Q 54.890625 44.34375 54.890625 33.015625 
z
" id="DejaVuSans-110"/>
       <path d="M 30.421875 75.984375 
L 30.421875 -13.1875 
L 9.71875 -13.1875 
L 9.71875 -6.203125 
L 21.390625 -6.203125 
L 21.390625 69 
L 9.71875 69 
L 9.71875 75.984375 
z
" id="DejaVuSans-93"/>
      </defs>
      <use xlink:href="#DejaVuSans-100"/>
      <use x="63.476562" xlink:href="#DejaVuSans-101"/>
      <use x="125" xlink:href="#DejaVuSans-108"/>
      <use x="152.783203" xlink:href="#DejaVuSans-97"/>
      <use x="214.0625" xlink:href="#DejaVuSans-121"/>
      <use x="273.242188" xlink:href="#DejaVuSans-32"/>
      <use x="305.029297" xlink:href="#DejaVuSans-91"/>
      <use x="344.042969" xlink:href="#DejaVuSans-110"/>
      <use x="407.421875" xlink:href="#DejaVuSans-115"/>
      <use x="459.521484" xlink:href="#DejaVuSans-93"/>
     </g>
    </g>
   </g>
   <g id="line2d_15">
    <path clip-path="url(#pa41cb6e578)" d="M 69.218182 44.443636 
L 69.813805 208.549297 
L 70.409429 208.549297 
L 71.005052 216.008645 
L 71.600676 216.008645 
L 72.1963 240.251527 
L 72.791923 221.603156 
L 73.387547 223.467993 
L 73.98317 227.197667 
L 74.578794 225.33283 
L 75.174417 236.521852 
L 75.770041 210.414134 
L 76.365664 199.225111 
L 76.961288 230.927341 
L 78.152535 230.927341 
L 78.748159 234.657015 
L 79.343782 208.549297 
L 79.939406 238.38669 
L 80.535029 225.33283 
L 81.130653 230.927341 
L 81.726276 230.927341 
L 82.3219 201.089949 
L 82.917524 234.657015 
L 83.513147 214.143808 
L 84.108771 221.603156 
L 84.704394 221.603156 
L 85.300018 230.927341 
L 85.895641 217.873482 
L 86.491265 210.414134 
L 87.086888 219.738319 
L 87.682512 199.225111 
L 88.278136 229.062504 
L 88.873759 227.197667 
L 89.469383 214.143808 
L 90.065006 214.143808 
L 90.66063 212.278971 
L 91.256253 206.68446 
L 91.851877 230.927341 
L 92.4475 230.927341 
L 93.043124 229.062504 
L 93.638748 229.062504 
L 94.234371 208.549297 
L 94.829995 227.197667 
L 95.425618 223.467993 
L 96.021242 225.33283 
L 96.616865 234.657015 
L 97.212489 214.143808 
L 97.808112 227.197667 
L 98.403736 229.062504 
L 98.99936 204.819623 
L 99.594983 240.251527 
L 100.190607 232.792178 
L 100.78623 214.143808 
L 101.381854 208.549297 
L 102.573101 208.549297 
L 103.168724 217.873482 
L 103.764348 225.33283 
L 104.359972 230.927341 
L 105.551219 219.738319 
L 106.146842 219.738319 
L 106.742466 234.657015 
L 107.338089 229.062504 
L 107.933713 214.143808 
L 108.529336 208.549297 
L 109.12496 227.197667 
L 109.720584 229.062504 
L 110.316207 214.143808 
L 110.911831 206.68446 
L 111.507454 225.33283 
L 112.103078 217.873482 
L 112.698701 212.278971 
L 113.294325 234.657015 
L 113.889948 225.33283 
L 114.485572 217.873482 
L 115.081196 206.68446 
L 115.676819 204.819623 
L 116.272443 227.197667 
L 116.868066 216.008645 
L 117.46369 238.38669 
L 118.059313 232.792178 
L 118.654937 232.792178 
L 119.25056 219.738319 
L 119.846184 219.738319 
L 120.441808 232.792178 
L 121.037431 206.68446 
L 121.633055 214.143808 
L 122.228678 219.738319 
L 122.824302 221.603156 
L 123.419925 227.197667 
L 124.611172 223.467993 
L 125.206796 219.738319 
L 125.802419 230.927341 
L 126.398043 229.062504 
L 126.993667 212.278971 
L 127.58929 236.521852 
L 128.184914 208.549297 
L 128.780537 217.873482 
L 129.376161 202.954786 
L 129.971784 236.521852 
L 130.567408 236.521852 
L 131.163031 221.603156 
L 131.758655 238.38669 
L 132.354279 208.549297 
L 132.949902 197.360274 
L 133.545526 223.467993 
L 134.141149 230.927341 
L 134.736773 240.251527 
L 135.332396 225.33283 
L 135.92802 230.927341 
L 136.523643 234.657015 
L 137.119267 216.008645 
L 137.714891 230.927341 
L 138.310514 212.278971 
L 138.906138 234.657015 
L 139.501761 210.414134 
L 140.693008 214.143808 
L 141.288632 204.819623 
L 141.884255 221.603156 
L 142.479879 229.062504 
L 143.075503 212.278971 
L 143.671126 223.467993 
L 144.26675 229.062504 
L 144.862373 208.549297 
L 145.457997 229.062504 
L 146.05362 210.414134 
L 146.649244 236.521852 
L 147.244867 227.197667 
L 147.840491 230.927341 
L 148.436115 223.467993 
L 149.031738 232.792178 
L 149.627362 212.278971 
L 150.222985 217.873482 
L 150.818609 236.521852 
L 151.414232 214.143808 
L 152.009856 214.143808 
L 152.605479 210.414134 
L 153.201103 219.738319 
L 153.796727 230.927341 
L 154.39235 214.143808 
L 154.987974 232.792178 
L 155.583597 217.873482 
L 156.179221 236.521852 
L 156.774844 223.467993 
L 157.370468 234.657015 
L 157.966091 223.467993 
L 158.561715 230.927341 
L 159.157339 204.819623 
L 159.752962 208.549297 
L 160.944209 223.467993 
L 161.539833 208.549297 
L 162.135456 216.008645 
L 162.73108 227.197667 
L 163.326703 217.873482 
L 163.922327 210.414134 
L 164.517951 223.467993 
L 165.113574 208.549297 
L 165.709198 212.278971 
L 166.304821 201.089949 
L 166.900445 232.792178 
L 167.496068 225.33283 
L 168.091692 206.68446 
L 168.687315 217.873482 
L 169.282939 210.414134 
L 170.474186 234.657015 
L 171.06981 232.792178 
L 171.665433 216.008645 
L 172.261057 236.521852 
L 172.85668 234.657015 
L 173.452304 217.873482 
L 174.047927 208.549297 
L 175.239175 234.657015 
L 175.834798 216.008645 
L 176.430422 208.549297 
L 177.621669 232.792178 
L 178.217292 216.008645 
L 178.812916 214.143808 
L 179.408539 232.792178 
L 180.004163 204.819623 
L 180.599787 230.927341 
L 181.19541 214.143808 
L 181.791034 236.521852 
L 182.386657 214.143808 
L 182.982281 232.792178 
L 183.577904 208.549297 
L 184.173528 223.467993 
L 184.769151 221.603156 
L 185.364775 236.521852 
L 185.960399 217.873482 
L 186.556022 236.521852 
L 187.151646 219.738319 
L 187.747269 236.521852 
L 188.342893 217.873482 
L 188.938516 204.819623 
L 189.53414 225.33283 
L 190.129763 223.467993 
L 190.725387 223.467993 
L 191.32101 234.657015 
L 191.916634 210.414134 
L 192.512258 214.143808 
L 193.107881 236.521852 
L 193.703505 208.549297 
L 194.299128 219.738319 
L 194.894752 204.819623 
L 195.490375 219.738319 
L 196.085999 230.927341 
L 196.681622 217.873482 
L 197.277246 236.521852 
L 197.87287 223.467993 
L 198.468493 216.008645 
L 199.064117 230.927341 
L 199.65974 217.873482 
L 200.255364 217.873482 
L 200.850987 223.467993 
L 201.446611 204.819623 
L 202.637858 232.792178 
L 203.233482 225.33283 
L 203.829105 229.062504 
L 204.424729 210.414134 
L 205.020352 223.467993 
L 205.615976 242.116364 
L 206.211599 223.467993 
L 206.807223 219.738319 
L 207.402846 227.197667 
L 207.99847 210.414134 
L 208.594094 223.467993 
L 209.189717 210.414134 
L 209.785341 236.521852 
L 210.380964 234.657015 
L 210.976588 208.549297 
L 211.572211 225.33283 
L 212.167835 216.008645 
L 212.763458 219.738319 
L 213.359082 227.197667 
L 213.954706 214.143808 
L 214.550329 223.467993 
L 215.145953 219.738319 
L 215.741576 232.792178 
L 216.3372 206.68446 
L 216.932823 236.521852 
L 217.528447 219.738319 
L 218.12407 208.549297 
L 218.719694 217.873482 
L 219.315318 236.521852 
L 219.910941 204.819623 
L 220.506565 225.33283 
L 221.102188 206.68446 
L 221.697812 208.549297 
L 222.293435 223.467993 
L 222.889059 201.089949 
L 223.484682 229.062504 
L 224.080306 234.657015 
L 224.67593 234.657015 
L 225.271553 217.873482 
L 225.867177 236.521852 
L 226.4628 214.143808 
L 227.058424 232.792178 
L 227.654047 208.549297 
L 228.249671 208.549297 
L 228.845294 216.008645 
L 229.440918 208.549297 
L 230.632165 223.467993 
L 231.227789 223.467993 
L 231.823412 219.738319 
L 232.419036 229.062504 
L 233.014659 212.278971 
L 233.610283 221.603156 
L 234.205906 223.467993 
L 234.80153 208.549297 
L 235.397154 234.657015 
L 235.992777 204.819623 
L 236.588401 216.008645 
L 237.184024 232.792178 
L 237.779648 225.33283 
L 238.375271 223.467993 
L 238.970895 240.251527 
L 239.566518 212.278971 
L 240.162142 225.33283 
L 240.757766 208.549297 
L 241.353389 227.197667 
L 241.949013 234.657015 
L 242.544636 227.197667 
L 243.14026 225.33283 
L 243.735883 234.657015 
L 244.331507 210.414134 
L 244.92713 217.873482 
L 245.522754 197.360274 
L 246.118378 223.467993 
L 247.309625 212.278971 
L 247.905248 217.873482 
L 248.500872 212.278971 
L 249.096495 223.467993 
L 249.692119 229.062504 
L 250.287742 212.278971 
L 250.883366 236.521852 
L 251.47899 206.68446 
L 252.074613 232.792178 
L 252.670237 219.738319 
L 253.26586 221.603156 
L 253.861484 234.657015 
L 254.457107 210.414134 
L 255.052731 204.819623 
L 255.648354 238.38669 
L 256.243978 223.467993 
L 256.839601 236.521852 
L 257.435225 225.33283 
L 258.030849 225.33283 
L 258.626472 217.873482 
L 259.222096 216.008645 
L 259.817719 221.603156 
L 260.413343 242.116364 
L 261.008966 221.603156 
L 261.60459 227.197667 
L 262.200213 212.278971 
L 262.795837 236.521852 
L 263.391461 210.414134 
L 263.987084 221.603156 
L 264.582708 221.603156 
L 265.178331 208.549297 
L 265.773955 208.549297 
L 266.369578 225.33283 
L 266.965202 230.927341 
L 267.560825 232.792178 
L 268.156449 216.008645 
L 268.752073 216.008645 
L 269.347696 232.792178 
L 269.94332 234.657015 
L 270.538943 238.38669 
L 271.134567 216.008645 
L 271.73019 214.143808 
L 272.325814 223.467993 
L 272.921437 223.467993 
L 273.517061 212.278971 
L 274.112685 230.927341 
L 274.708308 225.33283 
L 275.303932 240.251527 
L 275.899555 223.467993 
L 276.495179 230.927341 
L 277.090802 221.603156 
L 277.686426 227.197667 
L 278.282049 208.549297 
L 278.877673 216.008645 
L 279.473297 210.414134 
L 280.06892 225.33283 
L 280.664544 232.792178 
L 281.260167 212.278971 
L 281.855791 212.278971 
L 282.451414 214.143808 
L 283.047038 206.68446 
L 283.642661 219.738319 
L 284.238285 229.062504 
L 284.833909 217.873482 
L 285.429532 223.467993 
L 286.025156 208.549297 
L 286.620779 216.008645 
L 287.216403 230.927341 
L 287.812026 202.954786 
L 288.40765 214.143808 
L 289.003273 230.927341 
L 289.598897 206.68446 
L 290.194521 219.738319 
L 290.790144 225.33283 
L 291.385768 225.33283 
L 291.981391 242.116364 
L 292.577015 204.819623 
L 293.172638 221.603156 
L 293.768262 229.062504 
L 294.363885 216.008645 
L 294.959509 229.062504 
L 295.555133 214.143808 
L 296.150756 225.33283 
L 296.74638 217.873482 
L 297.342003 232.792178 
L 297.937627 210.414134 
L 299.128874 238.38669 
L 299.724497 206.68446 
L 300.320121 240.251527 
L 300.915745 210.414134 
L 301.511368 229.062504 
L 302.106992 206.68446 
L 302.702615 232.792178 
L 303.298239 217.873482 
L 303.893862 212.278971 
L 304.489486 208.549297 
L 305.085109 225.33283 
L 305.680733 229.062504 
L 306.276357 227.197667 
L 306.87198 234.657015 
L 308.063227 204.819623 
L 308.658851 219.738319 
L 309.254474 229.062504 
L 309.850098 204.819623 
L 311.041345 240.251527 
L 311.636969 225.33283 
L 312.232592 219.738319 
L 312.828216 229.062504 
L 313.423839 212.278971 
L 314.019463 230.927341 
L 314.615086 225.33283 
L 315.21071 221.603156 
L 315.806333 230.927341 
L 316.401957 210.414134 
L 316.997581 216.008645 
L 317.593204 230.927341 
L 318.188828 234.657015 
L 318.784451 210.414134 
L 319.380075 208.549297 
L 319.975698 223.467993 
L 320.571322 230.927341 
L 321.166945 217.873482 
L 321.762569 236.521852 
L 322.358192 234.657015 
L 322.953816 238.38669 
L 323.54944 230.927341 
L 324.145063 208.549297 
L 324.740687 214.143808 
L 325.931934 217.873482 
L 326.527557 225.33283 
L 327.123181 206.68446 
L 327.718804 230.927341 
L 328.314428 204.819623 
L 328.910052 230.927341 
L 329.505675 234.657015 
L 330.101299 216.008645 
L 330.696922 216.008645 
L 331.292546 217.873482 
L 331.888169 234.657015 
L 332.483793 214.143808 
L 333.079416 230.927341 
L 333.67504 229.062504 
L 334.270664 223.467993 
L 334.866287 227.197667 
L 335.461911 212.278971 
L 336.057534 221.603156 
L 336.653158 210.414134 
L 337.248781 223.467993 
L 337.844405 232.792178 
L 338.440028 210.414134 
L 339.035652 229.062504 
L 339.631276 234.657015 
L 340.226899 216.008645 
L 340.822523 232.792178 
L 341.418146 206.68446 
L 342.01377 212.278971 
L 342.609393 229.062504 
L 343.205017 230.927341 
L 343.80064 223.467993 
L 344.396264 204.819623 
L 344.991888 232.792178 
L 345.587511 225.33283 
L 346.183135 214.143808 
L 346.778758 227.197667 
L 347.374382 208.549297 
L 347.970005 234.657015 
L 348.565629 210.414134 
L 349.161252 234.657015 
L 349.756876 219.738319 
L 350.948123 208.549297 
L 351.543747 210.414134 
L 352.13937 236.521852 
L 352.734994 210.414134 
L 353.330617 208.549297 
L 353.926241 217.873482 
L 354.521864 230.927341 
L 355.117488 232.792178 
L 355.713112 210.414134 
L 356.308735 236.521852 
L 356.904359 236.521852 
L 357.499982 216.008645 
L 358.095606 206.68446 
L 358.691229 236.521852 
L 359.286853 219.738319 
L 359.882476 210.414134 
L 360.4781 227.197667 
L 361.073724 236.521852 
L 361.669347 232.792178 
L 362.264971 208.549297 
L 362.860594 212.278971 
L 363.456218 217.873482 
L 364.051841 236.521852 
L 364.647465 232.792178 
L 365.243088 225.33283 
L 365.838712 216.008645 
L 366.434336 202.954786 
L 367.029959 208.549297 
L 367.625583 234.657015 
L 368.221206 234.657015 
L 368.81683 227.197667 
L 369.412453 236.521852 
L 370.008077 216.008645 
L 370.6037 230.927341 
L 371.199324 206.68446 
L 371.794948 219.738319 
L 372.390571 229.062504 
L 372.986195 216.008645 
L 373.581818 223.467993 
L 373.581818 223.467993 
" style="fill:none;stroke:#4169e1;stroke-linecap:square;stroke-width:1.5;"/>
   </g>
   <g id="patch_3">
    <path d="M 54 252 
L 54 34.56 
" style="fill:none;stroke:#000000;stroke-linecap:square;stroke-linejoin:miter;stroke-width:0.8;"/>
   </g>
   <g id="patch_4">
    <path d="M 388.8 252 
L 388.8 34.56 
" style="fill:none;stroke:#000000;stroke-linecap:square;stroke-linejoin:miter;stroke-width:0.8;"/>
   </g>
   <g id="patch_5">
    <path d="M 54 252 
L 388.8 252 
" style="fill:none;stroke:#000000;stroke-linecap:square;stroke-linejoin:miter;stroke-width:0.8;"/>
   </g>
   <g id="patch_6">
    <path d="M 54 34.56 
L 388.8 34.56 
" style="fill:none;stroke:#000000;stroke-linecap:square;stroke-linejoin:miter;stroke-width:0.8;"/>
   </g>
   <g id="text_17">
    <!-- TTC of sending numbers -->
    <g transform="translate(148.584375 28.56)scale(0.12 -0.12)">
     <defs>
      <path d="M -0.296875 72.90625 
L 61.375 72.90625 
L 61.375 64.59375 
L 35.5 64.59375 
L 35.5 0 
L 25.59375 0 
L 25.59375 64.59375 
L -0.296875 64.59375 
z
" id="DejaVuSans-84"/>
      <path d="M 64.40625 67.28125 
L 64.40625 56.890625 
Q 59.421875 61.53125 53.78125 63.8125 
Q 48.140625 66.109375 41.796875 66.109375 
Q 29.296875 66.109375 22.65625 58.46875 
Q 16.015625 50.828125 16.015625 36.375 
Q 16.015625 21.96875 22.65625 14.328125 
Q 29.296875 6.6875 41.796875 6.6875 
Q 48.140625 6.6875 53.78125 8.984375 
Q 59.421875 11.28125 64.40625 15.921875 
L 64.40625 5.609375 
Q 59.234375 2.09375 53.4375 0.328125 
Q 47.65625 -1.421875 41.21875 -1.421875 
Q 24.65625 -1.421875 15.125 8.703125 
Q 5.609375 18.84375 5.609375 36.375 
Q 5.609375 53.953125 15.125 64.078125 
Q 24.65625 74.21875 41.21875 74.21875 
Q 47.75 74.21875 53.53125 72.484375 
Q 59.328125 70.75 64.40625 67.28125 
z
" id="DejaVuSans-67"/>
      <path d="M 30.609375 48.390625 
Q 23.390625 48.390625 19.1875 42.75 
Q 14.984375 37.109375 14.984375 27.296875 
Q 14.984375 17.484375 19.15625 11.84375 
Q 23.34375 6.203125 30.609375 6.203125 
Q 37.796875 6.203125 41.984375 11.859375 
Q 46.1875 17.53125 46.1875 27.296875 
Q 46.1875 37.015625 41.984375 42.703125 
Q 37.796875 48.390625 30.609375 48.390625 
z
M 30.609375 56 
Q 42.328125 56 49.015625 48.375 
Q 55.71875 40.765625 55.71875 27.296875 
Q 55.71875 13.875 49.015625 6.21875 
Q 42.328125 -1.421875 30.609375 -1.421875 
Q 18.84375 -1.421875 12.171875 6.21875 
Q 5.515625 13.875 5.515625 27.296875 
Q 5.515625 40.765625 12.171875 48.375 
Q 18.84375 56 30.609375 56 
z
" id="DejaVuSans-111"/>
      <path d="M 37.109375 75.984375 
L 37.109375 68.5 
L 28.515625 68.5 
Q 23.6875 68.5 21.796875 66.546875 
Q 19.921875 64.59375 19.921875 59.515625 
L 19.921875 54.6875 
L 34.71875 54.6875 
L 34.71875 47.703125 
L 19.921875 47.703125 
L 19.921875 0 
L 10.890625 0 
L 10.890625 47.703125 
L 2.296875 47.703125 
L 2.296875 54.6875 
L 10.890625 54.6875 
L 10.890625 58.5 
Q 10.890625 67.625 15.140625 71.796875 
Q 19.390625 75.984375 28.609375 75.984375 
z
" id="DejaVuSans-102"/>
      <path d="M 8.5 21.578125 
L 8.5 54.6875 
L 17.484375 54.6875 
L 17.484375 21.921875 
Q 17.484375 14.15625 20.5 10.265625 
Q 23.53125 6.390625 29.59375 6.390625 
Q 36.859375 6.390625 41.078125 11.03125 
Q 45.3125 15.671875 45.3125 23.6875 
L 45.3125 54.6875 
L 54.296875 54.6875 
L 54.296875 0 
L 45.3125 0 
L 45.3125 8.40625 
Q 42.046875 3.421875 37.71875 1 
Q 33.40625 -1.421875 27.6875 -1.421875 
Q 18.265625 -1.421875 13.375 4.4375 
Q 8.5 10.296875 8.5 21.578125 
z
M 31.109375 56 
z
" id="DejaVuSans-117"/>
      <path d="M 48.6875 27.296875 
Q 48.6875 37.203125 44.609375 42.84375 
Q 40.53125 48.484375 33.40625 48.484375 
Q 26.265625 48.484375 22.1875 42.84375 
Q 18.109375 37.203125 18.109375 27.296875 
Q 18.109375 17.390625 22.1875 11.75 
Q 26.265625 6.109375 33.40625 6.109375 
Q 40.53125 6.109375 44.609375 11.75 
Q 48.6875 17.390625 48.6875 27.296875 
z
M 18.109375 46.390625 
Q 20.953125 51.265625 25.265625 53.625 
Q 29.59375 56 35.59375 56 
Q 45.5625 56 51.78125 48.09375 
Q 58.015625 40.1875 58.015625 27.296875 
Q 58.015625 14.40625 51.78125 6.484375 
Q 45.5625 -1.421875 35.59375 -1.421875 
Q 29.59375 -1.421875 25.265625 0.953125 
Q 20.953125 3.328125 18.109375 8.203125 
L 18.109375 0 
L 9.078125 0 
L 9.078125 75.984375 
L 18.109375 75.984375 
z
" id="DejaVuSans-98"/>
      <path d="M 41.109375 46.296875 
Q 39.59375 47.171875 37.8125 47.578125 
Q 36.03125 48 33.890625 48 
Q 26.265625 48 22.1875 43.046875 
Q 18.109375 38.09375 18.109375 28.8125 
L 18.109375 0 
L 9.078125 0 
L 9.078125 54.6875 
L 18.109375 54.6875 
L 18.109375 46.1875 
Q 20.953125 51.171875 25.484375 53.578125 
Q 30.03125 56 36.53125 56 
Q 37.453125 56 38.578125 55.875 
Q 39.703125 55.765625 41.0625 55.515625 
z
" id="DejaVuSans-114"/>
     </defs>
     <use xlink:href="#DejaVuSans-84"/>
     <use x="59.333984" xlink:href="#DejaVuSans-84"/>
     <use x="114.542969" xlink:href="#DejaVuSans-67"/>
     <use x="184.367188" xlink:href="#DejaVuSans-32"/>
     <use x="216.154297" xlink:href="#DejaVuSans-111"/>
     <use x="277.335938" xlink:href="#DejaVuSans-102"/>
     <use x="312.541016" xlink:href="#DejaVuSans-32"/>
     <use x="344.328125" xlink:href="#DejaVuSans-115"/>
     <use x="396.427734" xlink:href="#DejaVuSans-101"/>
     <use x="457.951172" xlink:href="#DejaVuSans-110"/>
     <use x="521.330078" xlink:href="#DejaVuSans-100"/>
     <use x="584.806641" xlink:href="#DejaVuSans-105"/>
     <use x="612.589844" xlink:href="#DejaVuSans-110"/>
     <use x="675.96875" xlink:href="#DejaVuSans-103"/>
     <use x="739.445312" xlink:href="#DejaVuSans-32"/>
     <use x="771.232422" xlink:href="#DejaVuSans-110"/>
     <use x="834.611328" xlink:href="#DejaVuSans-117"/>
     <use x="897.990234" xlink:href="#DejaVuSans-109"/>
     <use x="995.402344" xlink:href="#DejaVuSans-98"/>
     <use x="1058.878906" xlink:href="#DejaVuSans-101"/>
     <use x="1120.402344" xlink:href="#DejaVuSans-114"/>
     <use x="1161.515625" xlink:href="#DejaVuSans-115"/>
    </g>
   </g>
  </g>
 </g>
 <defs>
  <clipPath id="pa41cb6e578">
   <rect height="217.44" width="334.8" x="54" y="34.56"/>
  </clipPath>
 </defs>
</svg>
