<?xml version="1.0" encoding="UTF-8" standalone="no"?><!DOCTYPE svg PUBLIC "-//W3C//DTD SVG 1.1//EN" "http://www.w3.org/Graphics/SVG/1.1/DTD/svg11.dtd"><svg width="100%" height="100%" viewBox="0 0 250 156" version="1.1" xmlns="http://www.w3.org/2000/svg" xmlns:xlink="http://www.w3.org/1999/xlink" xml:space="preserve" xmlns:serif="http://www.serif.com/" style="fill-rule:evenodd;clip-rule:evenodd;stroke-linecap:round;stroke-linejoin:round;stroke-miterlimit:1.5;"><rect x="-0.009" y="-0" width="249.597" height="155.998" style="fill:#404040;"/><rect x="0.917" y="0.746" width="247.494" height="154.217" style="fill:#fff0e0;"/><circle cx="181.887" cy="62.486" r="16.996" style="fill:#e6c2a7;"/><ellipse cx="182.153" cy="62.452" rx="14.777" ry="14.942" style="fill:#a7e6a7;"/><g><ellipse cx="158.098" cy="124.798" rx="26.007" ry="26.296" style="fill:#808080;"/><ellipse cx="158.098" cy="124.798" rx="23.818" ry="24.083" style="fill:#cae9ff;"/></g><g><ellipse cx="80.03" cy="121.913" rx="26.007" ry="26.296" style="fill:#808080;"/><ellipse cx="80.03" cy="121.913" rx="23.818" ry="24.083" style="fill:#cae9ff;"/></g><g><ellipse cx="114.022" cy="33.811" rx="26.007" ry="26.296" style="fill:#808080;"/><ellipse cx="114.022" cy="33.811" rx="23.818" ry="24.083" style="fill:#cae9ff;"/></g><g><ellipse cx="218.451" cy="124.567" rx="26.007" ry="26.296" style="fill:#808080;"/><ellipse cx="218.451" cy="124.567" rx="23.818" ry="24.083" style="fill:#cae9ff;"/></g><ellipse cx="22.136" cy="19.904" rx="14.777" ry="14.942" style="fill:#a7e6a7;"/><ellipse cx="51.041" cy="59.214" rx="14.777" ry="14.942" style="fill:#a7e6a7;"/><text x="143.725px" y="128.721px" style="font-family:'Arial-BoldMT', 'Arial', sans-serif;font-weight:700;font-size:12px;">Josh</text><text x="206.475px" y="128.259px" style="font-family:'Arial-BoldMT', 'Arial', sans-serif;font-weight:700;font-size:12px;">User</text><text x="178.189px" y="60.441px" style="font-family:'Arial-BoldMT', 'Arial', sans-serif;font-weight:700;font-size:5px;">LIB</text><text x="17.657px" y="17.714px" style="font-family:'Arial-BoldMT', 'Arial', sans-serif;font-weight:700;font-size:5px;">LIB</text><text x="47.539px" y="56.741px" style="font-family:'Arial-BoldMT', 'Arial', sans-serif;font-weight:700;font-size:5px;">LIB</text><text x="169.094px" y="66.231px" style="font-family:'ArialMT', 'Arial', sans-serif;font-size:4px;">&lt;fs_service.h&gt;</text><text x="42.742px" y="64.15px" style="font-family:'ArialMT', 'Arial', sans-serif;font-size:4px;">&lt;fatfs.h&gt;</text><ellipse cx="22.599" cy="100.375" rx="14.777" ry="14.942" style="fill:#a7e6a7;"/><text x="18.617px" y="93.102px" style="font-family:'Arial-BoldMT', 'Arial', sans-serif;font-weight:700;font-size:5px;">LIB</text><text x="13.678px" y="106.982px" style="font-family:'ArialMT', 'Arial', sans-serif;font-size:4px;">&lt;fclose.c&gt;</text><text x="13.898px" y="102.588px" style="font-family:'ArialMT', 'Arial', sans-serif;font-size:4px;">&lt;fopen.c&gt;</text><text x="17.235px" y="98.508px" style="font-family:'ArialMT', 'Arial', sans-serif;font-size:4px;">&lt;fs.h&gt;</text><text x="13.788px" y="111.279px" style="font-family:'ArialMT', 'Arial', sans-serif;font-size:4px;">&lt;dirent.h&gt;</text><text x="13.855px" y="24.146px" style="font-family:'ArialMT', 'Arial', sans-serif;font-size:4px;">&lt;sdhc.h&gt;</text><text x="94.536px" y="35.945px" style="font-family:'Arial-BoldMT', 'Arial', sans-serif;font-weight:700;font-size:7px;">Nameserver</text><text x="59.09px" y="124.762px" style="font-family:'Arial-BoldMT', 'Arial', sans-serif;font-weight:700;font-size:9px;">Fileserver</text><path d="M41.395,112.055l1.869,4.035l-4.542,-1.666l-2.876,-6.208l6.208,-2.876l4.542,1.666l-4.035,1.87l10.732,3.937l-1.166,3.179l-10.732,-3.937Z" style="stroke:#001aff;stroke-width:0.24px;"/><path d="M37.949,76.881l-4.182,0.723l2.661,-3.772l6.433,-1.112l1.111,6.433l-2.66,3.772l-0.723,-4.181l-6.762,9.586l-2.64,-1.862l6.762,-9.587Z" style="stroke:#001aff;stroke-width:0.24px;"/><path d="M33.282,38.525l-0.468,4.215l-2.882,-3.603l0.72,-6.484l6.485,0.72l2.882,3.603l-4.215,-0.468l6.473,8.091l-2.522,2.018l-6.473,-8.092Z" style="stroke:#001aff;stroke-width:0.24px;"/><path d="M167.212,87.87l-6.808,2.535l3.287,-7.187l10.475,-3.9l3.899,10.475l-3.287,7.187l-2.535,-6.808l-3.974,8.686l-5.031,-2.301l3.974,-8.687Z" style="stroke:#001aff;stroke-width:0.24px;"/><path d="M198.015,87.793l-2.079,7.023l-3.803,-7.002l3.199,-10.804l10.805,3.199l3.802,7.001l-7.023,-2.079l6.693,12.324l-4.901,2.662l-6.693,-12.324Z" style="stroke:#001aff;stroke-width:0.24px;"/><path d="M143.689,41.644l0.522,2.247l-2.129,-1.327l-0.803,-3.456l3.456,-0.803l2.129,1.327l-2.246,0.522l20.405,12.712l-0.928,1.49l-20.406,-12.712Z" style="stroke:#001aff;stroke-width:0.24px;"/><path d="M161.29,57.336l-0.567,-2.245l2.163,1.29l0.873,3.453l-3.453,0.873l-2.163,-1.289l2.244,-0.568l-20.637,-12.306l0.902,-1.514l20.638,12.306Z" style="stroke:#001aff;stroke-width:0.24px;"/><path d="M86.334,89.963l2.544,-0.961l-1.218,2.696l-3.914,1.478l-1.478,-3.914l1.218,-2.696l0.961,2.544l13.735,-30.397l1.887,0.853l-13.735,30.397Z" style="stroke:#001aff;stroke-width:0.24px;"/><path d="M104.08,64.256l-2.554,0.934l1.246,-2.683l3.929,-1.437l1.437,3.929l-1.246,2.683l-0.934,-2.554l-14.049,30.253l-1.879,-0.872l14.05,-30.253Z" style="stroke:#001aff;stroke-width:0.24px;"/></svg>