<?xml version="1.0" encoding="utf-8" standalone="no"?>
<!DOCTYPE svg PUBLIC "-//W3C//DTD SVG 1.1//EN"
  "http://www.w3.org/Graphics/SVG/1.1/DTD/svg11.dtd">
<svg height="709.2pt" version="1.1" viewBox="0 0 1376.64 709.2" width="1376.64pt" xmlns="http://www.w3.org/2000/svg" xmlns:xlink="http://www.w3.org/1999/xlink">
 <metadata>
  <rdf:RDF xmlns:cc="http://creativecommons.org/ns#" xmlns:dc="http://purl.org/dc/elements/1.1/" xmlns:rdf="http://www.w3.org/1999/02/22-rdf-syntax-ns#">
   <cc:Work>
    <dc:type rdf:resource="http://purl.org/dc/dcmitype/StillImage"/>
    <dc:date>2021-06-02T20:10:12.394361</dc:date>
    <dc:format>image/svg+xml</dc:format>
    <dc:creator>
     <cc:Agent>
      <dc:title>Matplotlib v3.4.1, https://matplotlib.org/</dc:title>
     </cc:Agent>
    </dc:creator>
   </cc:Work>
  </rdf:RDF>
 </metadata>
 <defs>
  <style type="text/css">*{stroke-linecap:butt;stroke-linejoin:round;}</style>
 </defs>
 <g id="figure_1">
  <g id="patch_1">
   <path d="M 0 709.2 
L 1376.64 709.2 
L 1376.64 0 
L 0 0 
z
" style="fill:#ffffff;"/>
  </g>
  <g id="axes_1">
   <g id="patch_2">
    <path d="M 172.08 631.188 
L 1238.976 631.188 
L 1238.976 85.104 
L 172.08 85.104 
z
" style="fill:#ffffff;"/>
   </g>
   <g id="matplotlib.axis_1">
    <g id="xtick_1">
     <g id="line2d_1">
      <defs>
       <path d="M 0 0 
L 0 3.5 
" id="mf3e55e5ba0" style="stroke:#000000;stroke-width:0.8;"/>
      </defs>
      <g>
       <use style="stroke:#000000;stroke-width:0.8;" x="220.575273" xlink:href="#mf3e55e5ba0" y="631.188"/>
      </g>
     </g>
     <g id="text_1">
      <!-- 0 -->
      <g transform="translate(213.576523 654.904562)scale(0.22 -0.22)">
       <defs>
        <path d="M 2034 4250 
Q 1547 4250 1301 3770 
Q 1056 3291 1056 2328 
Q 1056 1369 1301 889 
Q 1547 409 2034 409 
Q 2525 409 2770 889 
Q 3016 1369 3016 2328 
Q 3016 3291 2770 3770 
Q 2525 4250 2034 4250 
z
M 2034 4750 
Q 2819 4750 3233 4129 
Q 3647 3509 3647 2328 
Q 3647 1150 3233 529 
Q 2819 -91 2034 -91 
Q 1250 -91 836 529 
Q 422 1150 422 2328 
Q 422 3509 836 4129 
Q 1250 4750 2034 4750 
z
" id="DejaVuSans-30" transform="scale(0.015625)"/>
       </defs>
       <use xlink:href="#DejaVuSans-30"/>
      </g>
     </g>
    </g>
    <g id="xtick_2">
     <g id="line2d_2">
      <g>
       <use style="stroke:#000000;stroke-width:0.8;" x="354.355335" xlink:href="#mf3e55e5ba0" y="631.188"/>
      </g>
     </g>
     <g id="text_2">
      <!-- 200 -->
      <g transform="translate(333.359085 654.904562)scale(0.22 -0.22)">
       <defs>
        <path d="M 1228 531 
L 3431 531 
L 3431 0 
L 469 0 
L 469 531 
Q 828 903 1448 1529 
Q 2069 2156 2228 2338 
Q 2531 2678 2651 2914 
Q 2772 3150 2772 3378 
Q 2772 3750 2511 3984 
Q 2250 4219 1831 4219 
Q 1534 4219 1204 4116 
Q 875 4013 500 3803 
L 500 4441 
Q 881 4594 1212 4672 
Q 1544 4750 1819 4750 
Q 2544 4750 2975 4387 
Q 3406 4025 3406 3419 
Q 3406 3131 3298 2873 
Q 3191 2616 2906 2266 
Q 2828 2175 2409 1742 
Q 1991 1309 1228 531 
z
" id="DejaVuSans-32" transform="scale(0.015625)"/>
       </defs>
       <use xlink:href="#DejaVuSans-32"/>
       <use x="63.623047" xlink:href="#DejaVuSans-30"/>
       <use x="127.246094" xlink:href="#DejaVuSans-30"/>
      </g>
     </g>
    </g>
    <g id="xtick_3">
     <g id="line2d_3">
      <g>
       <use style="stroke:#000000;stroke-width:0.8;" x="488.135398" xlink:href="#mf3e55e5ba0" y="631.188"/>
      </g>
     </g>
     <g id="text_3">
      <!-- 400 -->
      <g transform="translate(467.139148 654.904562)scale(0.22 -0.22)">
       <defs>
        <path d="M 2419 4116 
L 825 1625 
L 2419 1625 
L 2419 4116 
z
M 2253 4666 
L 3047 4666 
L 3047 1625 
L 3713 1625 
L 3713 1100 
L 3047 1100 
L 3047 0 
L 2419 0 
L 2419 1100 
L 313 1100 
L 313 1709 
L 2253 4666 
z
" id="DejaVuSans-34" transform="scale(0.015625)"/>
       </defs>
       <use xlink:href="#DejaVuSans-34"/>
       <use x="63.623047" xlink:href="#DejaVuSans-30"/>
       <use x="127.246094" xlink:href="#DejaVuSans-30"/>
      </g>
     </g>
    </g>
    <g id="xtick_4">
     <g id="line2d_4">
      <g>
       <use style="stroke:#000000;stroke-width:0.8;" x="621.915461" xlink:href="#mf3e55e5ba0" y="631.188"/>
      </g>
     </g>
     <g id="text_4">
      <!-- 600 -->
      <g transform="translate(600.919211 654.904562)scale(0.22 -0.22)">
       <defs>
        <path d="M 2113 2584 
Q 1688 2584 1439 2293 
Q 1191 2003 1191 1497 
Q 1191 994 1439 701 
Q 1688 409 2113 409 
Q 2538 409 2786 701 
Q 3034 994 3034 1497 
Q 3034 2003 2786 2293 
Q 2538 2584 2113 2584 
z
M 3366 4563 
L 3366 3988 
Q 3128 4100 2886 4159 
Q 2644 4219 2406 4219 
Q 1781 4219 1451 3797 
Q 1122 3375 1075 2522 
Q 1259 2794 1537 2939 
Q 1816 3084 2150 3084 
Q 2853 3084 3261 2657 
Q 3669 2231 3669 1497 
Q 3669 778 3244 343 
Q 2819 -91 2113 -91 
Q 1303 -91 875 529 
Q 447 1150 447 2328 
Q 447 3434 972 4092 
Q 1497 4750 2381 4750 
Q 2619 4750 2861 4703 
Q 3103 4656 3366 4563 
z
" id="DejaVuSans-36" transform="scale(0.015625)"/>
       </defs>
       <use xlink:href="#DejaVuSans-36"/>
       <use x="63.623047" xlink:href="#DejaVuSans-30"/>
       <use x="127.246094" xlink:href="#DejaVuSans-30"/>
      </g>
     </g>
    </g>
    <g id="xtick_5">
     <g id="line2d_5">
      <g>
       <use style="stroke:#000000;stroke-width:0.8;" x="755.695524" xlink:href="#mf3e55e5ba0" y="631.188"/>
      </g>
     </g>
     <g id="text_5">
      <!-- 800 -->
      <g transform="translate(734.699274 654.904562)scale(0.22 -0.22)">
       <defs>
        <path d="M 2034 2216 
Q 1584 2216 1326 1975 
Q 1069 1734 1069 1313 
Q 1069 891 1326 650 
Q 1584 409 2034 409 
Q 2484 409 2743 651 
Q 3003 894 3003 1313 
Q 3003 1734 2745 1975 
Q 2488 2216 2034 2216 
z
M 1403 2484 
Q 997 2584 770 2862 
Q 544 3141 544 3541 
Q 544 4100 942 4425 
Q 1341 4750 2034 4750 
Q 2731 4750 3128 4425 
Q 3525 4100 3525 3541 
Q 3525 3141 3298 2862 
Q 3072 2584 2669 2484 
Q 3125 2378 3379 2068 
Q 3634 1759 3634 1313 
Q 3634 634 3220 271 
Q 2806 -91 2034 -91 
Q 1263 -91 848 271 
Q 434 634 434 1313 
Q 434 1759 690 2068 
Q 947 2378 1403 2484 
z
M 1172 3481 
Q 1172 3119 1398 2916 
Q 1625 2713 2034 2713 
Q 2441 2713 2670 2916 
Q 2900 3119 2900 3481 
Q 2900 3844 2670 4047 
Q 2441 4250 2034 4250 
Q 1625 4250 1398 4047 
Q 1172 3844 1172 3481 
z
" id="DejaVuSans-38" transform="scale(0.015625)"/>
       </defs>
       <use xlink:href="#DejaVuSans-38"/>
       <use x="63.623047" xlink:href="#DejaVuSans-30"/>
       <use x="127.246094" xlink:href="#DejaVuSans-30"/>
      </g>
     </g>
    </g>
    <g id="xtick_6">
     <g id="line2d_6">
      <g>
       <use style="stroke:#000000;stroke-width:0.8;" x="889.475586" xlink:href="#mf3e55e5ba0" y="631.188"/>
      </g>
     </g>
     <g id="text_6">
      <!-- 1000 -->
      <g transform="translate(861.480586 654.904562)scale(0.22 -0.22)">
       <defs>
        <path d="M 794 531 
L 1825 531 
L 1825 4091 
L 703 3866 
L 703 4441 
L 1819 4666 
L 2450 4666 
L 2450 531 
L 3481 531 
L 3481 0 
L 794 0 
L 794 531 
z
" id="DejaVuSans-31" transform="scale(0.015625)"/>
       </defs>
       <use xlink:href="#DejaVuSans-31"/>
       <use x="63.623047" xlink:href="#DejaVuSans-30"/>
       <use x="127.246094" xlink:href="#DejaVuSans-30"/>
       <use x="190.869141" xlink:href="#DejaVuSans-30"/>
      </g>
     </g>
    </g>
    <g id="xtick_7">
     <g id="line2d_7">
      <g>
       <use style="stroke:#000000;stroke-width:0.8;" x="1023.255649" xlink:href="#mf3e55e5ba0" y="631.188"/>
      </g>
     </g>
     <g id="text_7">
      <!-- 1200 -->
      <g transform="translate(995.260649 654.904562)scale(0.22 -0.22)">
       <use xlink:href="#DejaVuSans-31"/>
       <use x="63.623047" xlink:href="#DejaVuSans-32"/>
       <use x="127.246094" xlink:href="#DejaVuSans-30"/>
       <use x="190.869141" xlink:href="#DejaVuSans-30"/>
      </g>
     </g>
    </g>
    <g id="xtick_8">
     <g id="line2d_8">
      <g>
       <use style="stroke:#000000;stroke-width:0.8;" x="1157.035712" xlink:href="#mf3e55e5ba0" y="631.188"/>
      </g>
     </g>
     <g id="text_8">
      <!-- 1400 -->
      <g transform="translate(1129.040712 654.904562)scale(0.22 -0.22)">
       <use xlink:href="#DejaVuSans-31"/>
       <use x="63.623047" xlink:href="#DejaVuSans-34"/>
       <use x="127.246094" xlink:href="#DejaVuSans-30"/>
       <use x="190.869141" xlink:href="#DejaVuSans-30"/>
      </g>
     </g>
    </g>
    <g id="text_9">
     <!-- message length (bytes) -->
     <g transform="translate(575.148781 680.196438)scale(0.22 -0.22)">
      <defs>
       <path d="M 3328 2828 
Q 3544 3216 3844 3400 
Q 4144 3584 4550 3584 
Q 5097 3584 5394 3201 
Q 5691 2819 5691 2113 
L 5691 0 
L 5113 0 
L 5113 2094 
Q 5113 2597 4934 2840 
Q 4756 3084 4391 3084 
Q 3944 3084 3684 2787 
Q 3425 2491 3425 1978 
L 3425 0 
L 2847 0 
L 2847 2094 
Q 2847 2600 2669 2842 
Q 2491 3084 2119 3084 
Q 1678 3084 1418 2786 
Q 1159 2488 1159 1978 
L 1159 0 
L 581 0 
L 581 3500 
L 1159 3500 
L 1159 2956 
Q 1356 3278 1631 3431 
Q 1906 3584 2284 3584 
Q 2666 3584 2933 3390 
Q 3200 3197 3328 2828 
z
" id="DejaVuSans-6d" transform="scale(0.015625)"/>
       <path d="M 3597 1894 
L 3597 1613 
L 953 1613 
Q 991 1019 1311 708 
Q 1631 397 2203 397 
Q 2534 397 2845 478 
Q 3156 559 3463 722 
L 3463 178 
Q 3153 47 2828 -22 
Q 2503 -91 2169 -91 
Q 1331 -91 842 396 
Q 353 884 353 1716 
Q 353 2575 817 3079 
Q 1281 3584 2069 3584 
Q 2775 3584 3186 3129 
Q 3597 2675 3597 1894 
z
M 3022 2063 
Q 3016 2534 2758 2815 
Q 2500 3097 2075 3097 
Q 1594 3097 1305 2825 
Q 1016 2553 972 2059 
L 3022 2063 
z
" id="DejaVuSans-65" transform="scale(0.015625)"/>
       <path d="M 2834 3397 
L 2834 2853 
Q 2591 2978 2328 3040 
Q 2066 3103 1784 3103 
Q 1356 3103 1142 2972 
Q 928 2841 928 2578 
Q 928 2378 1081 2264 
Q 1234 2150 1697 2047 
L 1894 2003 
Q 2506 1872 2764 1633 
Q 3022 1394 3022 966 
Q 3022 478 2636 193 
Q 2250 -91 1575 -91 
Q 1294 -91 989 -36 
Q 684 19 347 128 
L 347 722 
Q 666 556 975 473 
Q 1284 391 1588 391 
Q 1994 391 2212 530 
Q 2431 669 2431 922 
Q 2431 1156 2273 1281 
Q 2116 1406 1581 1522 
L 1381 1569 
Q 847 1681 609 1914 
Q 372 2147 372 2553 
Q 372 3047 722 3315 
Q 1072 3584 1716 3584 
Q 2034 3584 2315 3537 
Q 2597 3491 2834 3397 
z
" id="DejaVuSans-73" transform="scale(0.015625)"/>
       <path d="M 2194 1759 
Q 1497 1759 1228 1600 
Q 959 1441 959 1056 
Q 959 750 1161 570 
Q 1363 391 1709 391 
Q 2188 391 2477 730 
Q 2766 1069 2766 1631 
L 2766 1759 
L 2194 1759 
z
M 3341 1997 
L 3341 0 
L 2766 0 
L 2766 531 
Q 2569 213 2275 61 
Q 1981 -91 1556 -91 
Q 1019 -91 701 211 
Q 384 513 384 1019 
Q 384 1609 779 1909 
Q 1175 2209 1959 2209 
L 2766 2209 
L 2766 2266 
Q 2766 2663 2505 2880 
Q 2244 3097 1772 3097 
Q 1472 3097 1187 3025 
Q 903 2953 641 2809 
L 641 3341 
Q 956 3463 1253 3523 
Q 1550 3584 1831 3584 
Q 2591 3584 2966 3190 
Q 3341 2797 3341 1997 
z
" id="DejaVuSans-61" transform="scale(0.015625)"/>
       <path d="M 2906 1791 
Q 2906 2416 2648 2759 
Q 2391 3103 1925 3103 
Q 1463 3103 1205 2759 
Q 947 2416 947 1791 
Q 947 1169 1205 825 
Q 1463 481 1925 481 
Q 2391 481 2648 825 
Q 2906 1169 2906 1791 
z
M 3481 434 
Q 3481 -459 3084 -895 
Q 2688 -1331 1869 -1331 
Q 1566 -1331 1297 -1286 
Q 1028 -1241 775 -1147 
L 775 -588 
Q 1028 -725 1275 -790 
Q 1522 -856 1778 -856 
Q 2344 -856 2625 -561 
Q 2906 -266 2906 331 
L 2906 616 
Q 2728 306 2450 153 
Q 2172 0 1784 0 
Q 1141 0 747 490 
Q 353 981 353 1791 
Q 353 2603 747 3093 
Q 1141 3584 1784 3584 
Q 2172 3584 2450 3431 
Q 2728 3278 2906 2969 
L 2906 3500 
L 3481 3500 
L 3481 434 
z
" id="DejaVuSans-67" transform="scale(0.015625)"/>
       <path id="DejaVuSans-20" transform="scale(0.015625)"/>
       <path d="M 603 4863 
L 1178 4863 
L 1178 0 
L 603 0 
L 603 4863 
z
" id="DejaVuSans-6c" transform="scale(0.015625)"/>
       <path d="M 3513 2113 
L 3513 0 
L 2938 0 
L 2938 2094 
Q 2938 2591 2744 2837 
Q 2550 3084 2163 3084 
Q 1697 3084 1428 2787 
Q 1159 2491 1159 1978 
L 1159 0 
L 581 0 
L 581 3500 
L 1159 3500 
L 1159 2956 
Q 1366 3272 1645 3428 
Q 1925 3584 2291 3584 
Q 2894 3584 3203 3211 
Q 3513 2838 3513 2113 
z
" id="DejaVuSans-6e" transform="scale(0.015625)"/>
       <path d="M 1172 4494 
L 1172 3500 
L 2356 3500 
L 2356 3053 
L 1172 3053 
L 1172 1153 
Q 1172 725 1289 603 
Q 1406 481 1766 481 
L 2356 481 
L 2356 0 
L 1766 0 
Q 1100 0 847 248 
Q 594 497 594 1153 
L 594 3053 
L 172 3053 
L 172 3500 
L 594 3500 
L 594 4494 
L 1172 4494 
z
" id="DejaVuSans-74" transform="scale(0.015625)"/>
       <path d="M 3513 2113 
L 3513 0 
L 2938 0 
L 2938 2094 
Q 2938 2591 2744 2837 
Q 2550 3084 2163 3084 
Q 1697 3084 1428 2787 
Q 1159 2491 1159 1978 
L 1159 0 
L 581 0 
L 581 4863 
L 1159 4863 
L 1159 2956 
Q 1366 3272 1645 3428 
Q 1925 3584 2291 3584 
Q 2894 3584 3203 3211 
Q 3513 2838 3513 2113 
z
" id="DejaVuSans-68" transform="scale(0.015625)"/>
       <path d="M 1984 4856 
Q 1566 4138 1362 3434 
Q 1159 2731 1159 2009 
Q 1159 1288 1364 580 
Q 1569 -128 1984 -844 
L 1484 -844 
Q 1016 -109 783 600 
Q 550 1309 550 2009 
Q 550 2706 781 3412 
Q 1013 4119 1484 4856 
L 1984 4856 
z
" id="DejaVuSans-28" transform="scale(0.015625)"/>
       <path d="M 3116 1747 
Q 3116 2381 2855 2742 
Q 2594 3103 2138 3103 
Q 1681 3103 1420 2742 
Q 1159 2381 1159 1747 
Q 1159 1113 1420 752 
Q 1681 391 2138 391 
Q 2594 391 2855 752 
Q 3116 1113 3116 1747 
z
M 1159 2969 
Q 1341 3281 1617 3432 
Q 1894 3584 2278 3584 
Q 2916 3584 3314 3078 
Q 3713 2572 3713 1747 
Q 3713 922 3314 415 
Q 2916 -91 2278 -91 
Q 1894 -91 1617 61 
Q 1341 213 1159 525 
L 1159 0 
L 581 0 
L 581 4863 
L 1159 4863 
L 1159 2969 
z
" id="DejaVuSans-62" transform="scale(0.015625)"/>
       <path d="M 2059 -325 
Q 1816 -950 1584 -1140 
Q 1353 -1331 966 -1331 
L 506 -1331 
L 506 -850 
L 844 -850 
Q 1081 -850 1212 -737 
Q 1344 -625 1503 -206 
L 1606 56 
L 191 3500 
L 800 3500 
L 1894 763 
L 2988 3500 
L 3597 3500 
L 2059 -325 
z
" id="DejaVuSans-79" transform="scale(0.015625)"/>
       <path d="M 513 4856 
L 1013 4856 
Q 1481 4119 1714 3412 
Q 1947 2706 1947 2009 
Q 1947 1309 1714 600 
Q 1481 -109 1013 -844 
L 513 -844 
Q 928 -128 1133 580 
Q 1338 1288 1338 2009 
Q 1338 2731 1133 3434 
Q 928 4138 513 4856 
z
" id="DejaVuSans-29" transform="scale(0.015625)"/>
      </defs>
      <use xlink:href="#DejaVuSans-6d"/>
      <use x="97.412109" xlink:href="#DejaVuSans-65"/>
      <use x="158.935547" xlink:href="#DejaVuSans-73"/>
      <use x="211.035156" xlink:href="#DejaVuSans-73"/>
      <use x="263.134766" xlink:href="#DejaVuSans-61"/>
      <use x="324.414062" xlink:href="#DejaVuSans-67"/>
      <use x="387.890625" xlink:href="#DejaVuSans-65"/>
      <use x="449.414062" xlink:href="#DejaVuSans-20"/>
      <use x="481.201172" xlink:href="#DejaVuSans-6c"/>
      <use x="508.984375" xlink:href="#DejaVuSans-65"/>
      <use x="570.507812" xlink:href="#DejaVuSans-6e"/>
      <use x="633.886719" xlink:href="#DejaVuSans-67"/>
      <use x="697.363281" xlink:href="#DejaVuSans-74"/>
      <use x="736.572266" xlink:href="#DejaVuSans-68"/>
      <use x="799.951172" xlink:href="#DejaVuSans-20"/>
      <use x="831.738281" xlink:href="#DejaVuSans-28"/>
      <use x="870.751953" xlink:href="#DejaVuSans-62"/>
      <use x="934.228516" xlink:href="#DejaVuSans-79"/>
      <use x="993.408203" xlink:href="#DejaVuSans-74"/>
      <use x="1032.617188" xlink:href="#DejaVuSans-65"/>
      <use x="1094.140625" xlink:href="#DejaVuSans-73"/>
      <use x="1146.240234" xlink:href="#DejaVuSans-29"/>
     </g>
    </g>
   </g>
   <g id="matplotlib.axis_2">
    <g id="ytick_1">
     <g id="line2d_9">
      <defs>
       <path d="M 0 0 
L -3.5 0 
" id="m490a2e36d6" style="stroke:#000000;stroke-width:0.8;"/>
      </defs>
      <g>
       <use style="stroke:#000000;stroke-width:0.8;" x="172.08" xlink:href="#m490a2e36d6" y="561.168832"/>
      </g>
     </g>
     <g id="text_10">
      <!-- 0.6 -->
      <g transform="translate(130.093125 569.527113)scale(0.22 -0.22)">
       <defs>
        <path d="M 684 794 
L 1344 794 
L 1344 0 
L 684 0 
L 684 794 
z
" id="DejaVuSans-2e" transform="scale(0.015625)"/>
       </defs>
       <use xlink:href="#DejaVuSans-30"/>
       <use x="63.623047" xlink:href="#DejaVuSans-2e"/>
       <use x="95.410156" xlink:href="#DejaVuSans-36"/>
      </g>
     </g>
    </g>
    <g id="ytick_2">
     <g id="line2d_10">
      <g>
       <use style="stroke:#000000;stroke-width:0.8;" x="172.08" xlink:href="#m490a2e36d6" y="441.534725"/>
      </g>
     </g>
     <g id="text_11">
      <!-- 0.8 -->
      <g transform="translate(130.093125 449.893007)scale(0.22 -0.22)">
       <use xlink:href="#DejaVuSans-30"/>
       <use x="63.623047" xlink:href="#DejaVuSans-2e"/>
       <use x="95.410156" xlink:href="#DejaVuSans-38"/>
      </g>
     </g>
    </g>
    <g id="ytick_3">
     <g id="line2d_11">
      <g>
       <use style="stroke:#000000;stroke-width:0.8;" x="172.08" xlink:href="#m490a2e36d6" y="321.900619"/>
      </g>
     </g>
     <g id="text_12">
      <!-- 1.0 -->
      <g transform="translate(130.093125 330.2589)scale(0.22 -0.22)">
       <use xlink:href="#DejaVuSans-31"/>
       <use x="63.623047" xlink:href="#DejaVuSans-2e"/>
       <use x="95.410156" xlink:href="#DejaVuSans-30"/>
      </g>
     </g>
    </g>
    <g id="ytick_4">
     <g id="line2d_12">
      <g>
       <use style="stroke:#000000;stroke-width:0.8;" x="172.08" xlink:href="#m490a2e36d6" y="202.266512"/>
      </g>
     </g>
     <g id="text_13">
      <!-- 1.2 -->
      <g transform="translate(130.093125 210.624794)scale(0.22 -0.22)">
       <use xlink:href="#DejaVuSans-31"/>
       <use x="63.623047" xlink:href="#DejaVuSans-2e"/>
       <use x="95.410156" xlink:href="#DejaVuSans-32"/>
      </g>
     </g>
    </g>
    <g id="text_14">
     <!-- latency (ms) -->
     <g transform="translate(121.517813 427.078187)rotate(-90)scale(0.22 -0.22)">
      <defs>
       <path d="M 3122 3366 
L 3122 2828 
Q 2878 2963 2633 3030 
Q 2388 3097 2138 3097 
Q 1578 3097 1268 2742 
Q 959 2388 959 1747 
Q 959 1106 1268 751 
Q 1578 397 2138 397 
Q 2388 397 2633 464 
Q 2878 531 3122 666 
L 3122 134 
Q 2881 22 2623 -34 
Q 2366 -91 2075 -91 
Q 1284 -91 818 406 
Q 353 903 353 1747 
Q 353 2603 823 3093 
Q 1294 3584 2113 3584 
Q 2378 3584 2631 3529 
Q 2884 3475 3122 3366 
z
" id="DejaVuSans-63" transform="scale(0.015625)"/>
      </defs>
      <use xlink:href="#DejaVuSans-6c"/>
      <use x="27.783203" xlink:href="#DejaVuSans-61"/>
      <use x="89.0625" xlink:href="#DejaVuSans-74"/>
      <use x="128.271484" xlink:href="#DejaVuSans-65"/>
      <use x="189.794922" xlink:href="#DejaVuSans-6e"/>
      <use x="253.173828" xlink:href="#DejaVuSans-63"/>
      <use x="308.154297" xlink:href="#DejaVuSans-79"/>
      <use x="367.333984" xlink:href="#DejaVuSans-20"/>
      <use x="399.121094" xlink:href="#DejaVuSans-28"/>
      <use x="438.134766" xlink:href="#DejaVuSans-6d"/>
      <use x="535.546875" xlink:href="#DejaVuSans-73"/>
      <use x="587.646484" xlink:href="#DejaVuSans-29"/>
     </g>
    </g>
   </g>
   <g id="line2d_13">
    <path clip-path="url(#p25563329b3)" d="M 220.575273 606.366 
L 254.020288 594.559608 
L 287.465304 559.973685 
L 320.91032 569.834826 
L 354.355335 554.779174 
L 387.800351 567.122124 
L 421.245367 559.835209 
L 454.690382 559.533432 
L 488.135398 555.632764 
L 521.580414 515.480868 
L 555.025429 553.195819 
L 588.470445 555.138377 
L 621.915461 524.625997 
L 655.360476 511.61519 
L 688.805492 542.29057 
L 722.250508 443.849645 
L 755.695524 453.627939 
L 789.140539 469.051168 
L 822.585555 392.959391 
L 856.030571 483.224819 
L 889.475586 498.381859 
L 922.920602 400.648273 
L 956.365618 425.689785 
L 989.810633 381.487375 
L 1023.255649 409.169511 
L 1056.700665 355.743911 
L 1090.14568 365.392104 
L 1123.590696 338.435847 
L 1157.035712 358.083355 
L 1190.480727 311.4111 
" style="fill:none;stroke:#0000ff;stroke-dasharray:9.6,2.4,1.5,2.4;stroke-dashoffset:0;stroke-width:1.5;"/>
    <defs>
     <path d="M 0 0 
L 0 -10 
M 0 0 
L -8 5 
M 0 0 
L 8 5 
" id="m4d5653862f" style="stroke:#0000ff;"/>
    </defs>
    <g clip-path="url(#p25563329b3)">
     <use style="fill:#0000ff;stroke:#0000ff;" x="220.575273" xlink:href="#m4d5653862f" y="606.366"/>
     <use style="fill:#0000ff;stroke:#0000ff;" x="254.020288" xlink:href="#m4d5653862f" y="594.559608"/>
     <use style="fill:#0000ff;stroke:#0000ff;" x="287.465304" xlink:href="#m4d5653862f" y="559.973685"/>
     <use style="fill:#0000ff;stroke:#0000ff;" x="320.91032" xlink:href="#m4d5653862f" y="569.834826"/>
     <use style="fill:#0000ff;stroke:#0000ff;" x="354.355335" xlink:href="#m4d5653862f" y="554.779174"/>
     <use style="fill:#0000ff;stroke:#0000ff;" x="387.800351" xlink:href="#m4d5653862f" y="567.122124"/>
     <use style="fill:#0000ff;stroke:#0000ff;" x="421.245367" xlink:href="#m4d5653862f" y="559.835209"/>
     <use style="fill:#0000ff;stroke:#0000ff;" x="454.690382" xlink:href="#m4d5653862f" y="559.533432"/>
     <use style="fill:#0000ff;stroke:#0000ff;" x="488.135398" xlink:href="#m4d5653862f" y="555.632764"/>
     <use style="fill:#0000ff;stroke:#0000ff;" x="521.580414" xlink:href="#m4d5653862f" y="515.480868"/>
     <use style="fill:#0000ff;stroke:#0000ff;" x="555.025429" xlink:href="#m4d5653862f" y="553.195819"/>
     <use style="fill:#0000ff;stroke:#0000ff;" x="588.470445" xlink:href="#m4d5653862f" y="555.138377"/>
     <use style="fill:#0000ff;stroke:#0000ff;" x="621.915461" xlink:href="#m4d5653862f" y="524.625997"/>
     <use style="fill:#0000ff;stroke:#0000ff;" x="655.360476" xlink:href="#m4d5653862f" y="511.61519"/>
     <use style="fill:#0000ff;stroke:#0000ff;" x="688.805492" xlink:href="#m4d5653862f" y="542.29057"/>
     <use style="fill:#0000ff;stroke:#0000ff;" x="722.250508" xlink:href="#m4d5653862f" y="443.849645"/>
     <use style="fill:#0000ff;stroke:#0000ff;" x="755.695524" xlink:href="#m4d5653862f" y="453.627939"/>
     <use style="fill:#0000ff;stroke:#0000ff;" x="789.140539" xlink:href="#m4d5653862f" y="469.051168"/>
     <use style="fill:#0000ff;stroke:#0000ff;" x="822.585555" xlink:href="#m4d5653862f" y="392.959391"/>
     <use style="fill:#0000ff;stroke:#0000ff;" x="856.030571" xlink:href="#m4d5653862f" y="483.224819"/>
     <use style="fill:#0000ff;stroke:#0000ff;" x="889.475586" xlink:href="#m4d5653862f" y="498.381859"/>
     <use style="fill:#0000ff;stroke:#0000ff;" x="922.920602" xlink:href="#m4d5653862f" y="400.648273"/>
     <use style="fill:#0000ff;stroke:#0000ff;" x="956.365618" xlink:href="#m4d5653862f" y="425.689785"/>
     <use style="fill:#0000ff;stroke:#0000ff;" x="989.810633" xlink:href="#m4d5653862f" y="381.487375"/>
     <use style="fill:#0000ff;stroke:#0000ff;" x="1023.255649" xlink:href="#m4d5653862f" y="409.169511"/>
     <use style="fill:#0000ff;stroke:#0000ff;" x="1056.700665" xlink:href="#m4d5653862f" y="355.743911"/>
     <use style="fill:#0000ff;stroke:#0000ff;" x="1090.14568" xlink:href="#m4d5653862f" y="365.392104"/>
     <use style="fill:#0000ff;stroke:#0000ff;" x="1123.590696" xlink:href="#m4d5653862f" y="338.435847"/>
     <use style="fill:#0000ff;stroke:#0000ff;" x="1157.035712" xlink:href="#m4d5653862f" y="358.083355"/>
     <use style="fill:#0000ff;stroke:#0000ff;" x="1190.480727" xlink:href="#m4d5653862f" y="311.4111"/>
    </g>
   </g>
   <g id="line2d_14">
    <path clip-path="url(#p25563329b3)" d="M 220.575273 566.463439 
L 254.020288 565.677044 
L 287.465304 563.920716 
L 320.91032 564.874897 
L 354.355335 597.16514 
L 387.800351 555.786693 
L 421.245367 554.657247 
L 454.690382 552.325479 
L 488.135398 549.008324 
L 521.580414 524.240076 
L 555.025429 515.097937 
L 588.470445 461.066289 
L 621.915461 450.649748 
L 655.360476 454.305666 
L 688.805492 451.434448 
L 722.250508 417.447196 
L 755.695524 407.10373 
L 789.140539 433.581549 
L 822.585555 392.618632 
L 856.030571 439.782684 
L 889.475586 398.117415 
L 922.920602 405.542405 
L 956.365618 378.300823 
L 989.810633 380.458224 
L 1023.255649 381.147616 
L 1056.700665 362.448406 
L 1090.14568 320.15117 
L 1123.590696 329.828871 
L 1157.035712 325.588141 
L 1190.480727 302.759262 
" style="fill:none;stroke:#ff0000;stroke-dasharray:9.6,2.4,1.5,2.4;stroke-dashoffset:0;stroke-width:1.5;"/>
    <defs>
     <path d="M 0 0 
L 0 10 
M 0 0 
L 8 -5 
M 0 0 
L -8 -5 
" id="md30d4b0c4b" style="stroke:#ff0000;"/>
    </defs>
    <g clip-path="url(#p25563329b3)">
     <use style="fill:#ff0000;stroke:#ff0000;" x="220.575273" xlink:href="#md30d4b0c4b" y="566.463439"/>
     <use style="fill:#ff0000;stroke:#ff0000;" x="254.020288" xlink:href="#md30d4b0c4b" y="565.677044"/>
     <use style="fill:#ff0000;stroke:#ff0000;" x="287.465304" xlink:href="#md30d4b0c4b" y="563.920716"/>
     <use style="fill:#ff0000;stroke:#ff0000;" x="320.91032" xlink:href="#md30d4b0c4b" y="564.874897"/>
     <use style="fill:#ff0000;stroke:#ff0000;" x="354.355335" xlink:href="#md30d4b0c4b" y="597.16514"/>
     <use style="fill:#ff0000;stroke:#ff0000;" x="387.800351" xlink:href="#md30d4b0c4b" y="555.786693"/>
     <use style="fill:#ff0000;stroke:#ff0000;" x="421.245367" xlink:href="#md30d4b0c4b" y="554.657247"/>
     <use style="fill:#ff0000;stroke:#ff0000;" x="454.690382" xlink:href="#md30d4b0c4b" y="552.325479"/>
     <use style="fill:#ff0000;stroke:#ff0000;" x="488.135398" xlink:href="#md30d4b0c4b" y="549.008324"/>
     <use style="fill:#ff0000;stroke:#ff0000;" x="521.580414" xlink:href="#md30d4b0c4b" y="524.240076"/>
     <use style="fill:#ff0000;stroke:#ff0000;" x="555.025429" xlink:href="#md30d4b0c4b" y="515.097937"/>
     <use style="fill:#ff0000;stroke:#ff0000;" x="588.470445" xlink:href="#md30d4b0c4b" y="461.066289"/>
     <use style="fill:#ff0000;stroke:#ff0000;" x="621.915461" xlink:href="#md30d4b0c4b" y="450.649748"/>
     <use style="fill:#ff0000;stroke:#ff0000;" x="655.360476" xlink:href="#md30d4b0c4b" y="454.305666"/>
     <use style="fill:#ff0000;stroke:#ff0000;" x="688.805492" xlink:href="#md30d4b0c4b" y="451.434448"/>
     <use style="fill:#ff0000;stroke:#ff0000;" x="722.250508" xlink:href="#md30d4b0c4b" y="417.447196"/>
     <use style="fill:#ff0000;stroke:#ff0000;" x="755.695524" xlink:href="#md30d4b0c4b" y="407.10373"/>
     <use style="fill:#ff0000;stroke:#ff0000;" x="789.140539" xlink:href="#md30d4b0c4b" y="433.581549"/>
     <use style="fill:#ff0000;stroke:#ff0000;" x="822.585555" xlink:href="#md30d4b0c4b" y="392.618632"/>
     <use style="fill:#ff0000;stroke:#ff0000;" x="856.030571" xlink:href="#md30d4b0c4b" y="439.782684"/>
     <use style="fill:#ff0000;stroke:#ff0000;" x="889.475586" xlink:href="#md30d4b0c4b" y="398.117415"/>
     <use style="fill:#ff0000;stroke:#ff0000;" x="922.920602" xlink:href="#md30d4b0c4b" y="405.542405"/>
     <use style="fill:#ff0000;stroke:#ff0000;" x="956.365618" xlink:href="#md30d4b0c4b" y="378.300823"/>
     <use style="fill:#ff0000;stroke:#ff0000;" x="989.810633" xlink:href="#md30d4b0c4b" y="380.458224"/>
     <use style="fill:#ff0000;stroke:#ff0000;" x="1023.255649" xlink:href="#md30d4b0c4b" y="381.147616"/>
     <use style="fill:#ff0000;stroke:#ff0000;" x="1056.700665" xlink:href="#md30d4b0c4b" y="362.448406"/>
     <use style="fill:#ff0000;stroke:#ff0000;" x="1090.14568" xlink:href="#md30d4b0c4b" y="320.15117"/>
     <use style="fill:#ff0000;stroke:#ff0000;" x="1123.590696" xlink:href="#md30d4b0c4b" y="329.828871"/>
     <use style="fill:#ff0000;stroke:#ff0000;" x="1157.035712" xlink:href="#md30d4b0c4b" y="325.588141"/>
     <use style="fill:#ff0000;stroke:#ff0000;" x="1190.480727" xlink:href="#md30d4b0c4b" y="302.759262"/>
    </g>
   </g>
   <g id="line2d_15">
    <path clip-path="url(#p25563329b3)" d="M 220.575273 475.850752 
L 254.020288 475.199345 
L 287.465304 469.989698 
L 320.91032 478.782266 
L 354.355335 473.733827 
L 387.800351 474.008028 
L 421.245367 473.413446 
L 454.690382 471.617858 
L 488.135398 478.58152 
L 521.580414 469.023712 
L 555.025429 465.707694 
L 588.470445 437.281614 
L 621.915461 440.036668 
L 655.360476 445.690395 
L 688.805492 426.473449 
L 722.250508 449.331101 
L 755.695524 420.361343 
L 789.140539 414.709349 
L 822.585555 405.415394 
L 856.030571 389.220465 
L 889.475586 381.268805 
L 922.920602 361.622971 
L 956.365618 345.465307 
L 989.810633 336.097 
L 1023.255649 330.942565 
L 1056.700665 325.199589 
L 1090.14568 304.275405 
L 1123.590696 264.174769 
L 1157.035712 266.079943 
L 1190.480727 310.544292 
" style="fill:none;stroke:#008000;stroke-dasharray:9.6,2.4,1.5,2.4;stroke-dashoffset:0;stroke-width:1.5;"/>
    <defs>
     <path d="M 0 0 
L -10 -0 
M 0 0 
L 5 8 
M 0 0 
L 5 -8 
" id="mf04c03e53d" style="stroke:#008000;"/>
    </defs>
    <g clip-path="url(#p25563329b3)">
     <use style="fill:#008000;stroke:#008000;" x="220.575273" xlink:href="#mf04c03e53d" y="475.850752"/>
     <use style="fill:#008000;stroke:#008000;" x="254.020288" xlink:href="#mf04c03e53d" y="475.199345"/>
     <use style="fill:#008000;stroke:#008000;" x="287.465304" xlink:href="#mf04c03e53d" y="469.989698"/>
     <use style="fill:#008000;stroke:#008000;" x="320.91032" xlink:href="#mf04c03e53d" y="478.782266"/>
     <use style="fill:#008000;stroke:#008000;" x="354.355335" xlink:href="#mf04c03e53d" y="473.733827"/>
     <use style="fill:#008000;stroke:#008000;" x="387.800351" xlink:href="#mf04c03e53d" y="474.008028"/>
     <use style="fill:#008000;stroke:#008000;" x="421.245367" xlink:href="#mf04c03e53d" y="473.413446"/>
     <use style="fill:#008000;stroke:#008000;" x="454.690382" xlink:href="#mf04c03e53d" y="471.617858"/>
     <use style="fill:#008000;stroke:#008000;" x="488.135398" xlink:href="#mf04c03e53d" y="478.58152"/>
     <use style="fill:#008000;stroke:#008000;" x="521.580414" xlink:href="#mf04c03e53d" y="469.023712"/>
     <use style="fill:#008000;stroke:#008000;" x="555.025429" xlink:href="#mf04c03e53d" y="465.707694"/>
     <use style="fill:#008000;stroke:#008000;" x="588.470445" xlink:href="#mf04c03e53d" y="437.281614"/>
     <use style="fill:#008000;stroke:#008000;" x="621.915461" xlink:href="#mf04c03e53d" y="440.036668"/>
     <use style="fill:#008000;stroke:#008000;" x="655.360476" xlink:href="#mf04c03e53d" y="445.690395"/>
     <use style="fill:#008000;stroke:#008000;" x="688.805492" xlink:href="#mf04c03e53d" y="426.473449"/>
     <use style="fill:#008000;stroke:#008000;" x="722.250508" xlink:href="#mf04c03e53d" y="449.331101"/>
     <use style="fill:#008000;stroke:#008000;" x="755.695524" xlink:href="#mf04c03e53d" y="420.361343"/>
     <use style="fill:#008000;stroke:#008000;" x="789.140539" xlink:href="#mf04c03e53d" y="414.709349"/>
     <use style="fill:#008000;stroke:#008000;" x="822.585555" xlink:href="#mf04c03e53d" y="405.415394"/>
     <use style="fill:#008000;stroke:#008000;" x="856.030571" xlink:href="#mf04c03e53d" y="389.220465"/>
     <use style="fill:#008000;stroke:#008000;" x="889.475586" xlink:href="#mf04c03e53d" y="381.268805"/>
     <use style="fill:#008000;stroke:#008000;" x="922.920602" xlink:href="#mf04c03e53d" y="361.622971"/>
     <use style="fill:#008000;stroke:#008000;" x="956.365618" xlink:href="#mf04c03e53d" y="345.465307"/>
     <use style="fill:#008000;stroke:#008000;" x="989.810633" xlink:href="#mf04c03e53d" y="336.097"/>
     <use style="fill:#008000;stroke:#008000;" x="1023.255649" xlink:href="#mf04c03e53d" y="330.942565"/>
     <use style="fill:#008000;stroke:#008000;" x="1056.700665" xlink:href="#mf04c03e53d" y="325.199589"/>
     <use style="fill:#008000;stroke:#008000;" x="1090.14568" xlink:href="#mf04c03e53d" y="304.275405"/>
     <use style="fill:#008000;stroke:#008000;" x="1123.590696" xlink:href="#mf04c03e53d" y="264.174769"/>
     <use style="fill:#008000;stroke:#008000;" x="1157.035712" xlink:href="#mf04c03e53d" y="266.079943"/>
     <use style="fill:#008000;stroke:#008000;" x="1190.480727" xlink:href="#mf04c03e53d" y="310.544292"/>
    </g>
   </g>
   <g id="line2d_16">
    <path clip-path="url(#p25563329b3)" d="M 220.575273 410.692155 
L 254.020288 393.711461 
L 287.465304 380.792815 
L 320.91032 377.7195 
L 354.355335 376.94786 
L 387.800351 375.698666 
L 421.245367 371.734035 
L 454.690382 365.964424 
L 488.135398 358.299039 
L 521.580414 342.501527 
L 555.025429 341.600169 
L 588.470445 341.487457 
L 621.915461 321.774106 
L 655.360476 323.819935 
L 688.805492 314.115002 
L 722.250508 315.743479 
L 755.695524 312.424744 
L 789.140539 306.790532 
L 822.585555 303.034405 
L 856.030571 297.922355 
L 889.475586 273.686194 
L 922.920602 266.774889 
L 956.365618 273.275123 
L 989.810633 256.064475 
L 1023.255649 250.125667 
L 1056.700665 236.173681 
L 1090.14568 237.860821 
L 1123.590696 221.475306 
L 1157.035712 214.809507 
L 1190.480727 221.951279 
" style="fill:none;stroke:#bfbf00;stroke-dasharray:9.6,2.4,1.5,2.4;stroke-dashoffset:0;stroke-width:1.5;"/>
    <defs>
     <path d="M 0 0 
L 10 0 
M 0 0 
L -5 -8 
M 0 0 
L -5 8 
" id="m212fd74deb" style="stroke:#bfbf00;"/>
    </defs>
    <g clip-path="url(#p25563329b3)">
     <use style="fill:#bfbf00;stroke:#bfbf00;" x="220.575273" xlink:href="#m212fd74deb" y="410.692155"/>
     <use style="fill:#bfbf00;stroke:#bfbf00;" x="254.020288" xlink:href="#m212fd74deb" y="393.711461"/>
     <use style="fill:#bfbf00;stroke:#bfbf00;" x="287.465304" xlink:href="#m212fd74deb" y="380.792815"/>
     <use style="fill:#bfbf00;stroke:#bfbf00;" x="320.91032" xlink:href="#m212fd74deb" y="377.7195"/>
     <use style="fill:#bfbf00;stroke:#bfbf00;" x="354.355335" xlink:href="#m212fd74deb" y="376.94786"/>
     <use style="fill:#bfbf00;stroke:#bfbf00;" x="387.800351" xlink:href="#m212fd74deb" y="375.698666"/>
     <use style="fill:#bfbf00;stroke:#bfbf00;" x="421.245367" xlink:href="#m212fd74deb" y="371.734035"/>
     <use style="fill:#bfbf00;stroke:#bfbf00;" x="454.690382" xlink:href="#m212fd74deb" y="365.964424"/>
     <use style="fill:#bfbf00;stroke:#bfbf00;" x="488.135398" xlink:href="#m212fd74deb" y="358.299039"/>
     <use style="fill:#bfbf00;stroke:#bfbf00;" x="521.580414" xlink:href="#m212fd74deb" y="342.501527"/>
     <use style="fill:#bfbf00;stroke:#bfbf00;" x="555.025429" xlink:href="#m212fd74deb" y="341.600169"/>
     <use style="fill:#bfbf00;stroke:#bfbf00;" x="588.470445" xlink:href="#m212fd74deb" y="341.487457"/>
     <use style="fill:#bfbf00;stroke:#bfbf00;" x="621.915461" xlink:href="#m212fd74deb" y="321.774106"/>
     <use style="fill:#bfbf00;stroke:#bfbf00;" x="655.360476" xlink:href="#m212fd74deb" y="323.819935"/>
     <use style="fill:#bfbf00;stroke:#bfbf00;" x="688.805492" xlink:href="#m212fd74deb" y="314.115002"/>
     <use style="fill:#bfbf00;stroke:#bfbf00;" x="722.250508" xlink:href="#m212fd74deb" y="315.743479"/>
     <use style="fill:#bfbf00;stroke:#bfbf00;" x="755.695524" xlink:href="#m212fd74deb" y="312.424744"/>
     <use style="fill:#bfbf00;stroke:#bfbf00;" x="789.140539" xlink:href="#m212fd74deb" y="306.790532"/>
     <use style="fill:#bfbf00;stroke:#bfbf00;" x="822.585555" xlink:href="#m212fd74deb" y="303.034405"/>
     <use style="fill:#bfbf00;stroke:#bfbf00;" x="856.030571" xlink:href="#m212fd74deb" y="297.922355"/>
     <use style="fill:#bfbf00;stroke:#bfbf00;" x="889.475586" xlink:href="#m212fd74deb" y="273.686194"/>
     <use style="fill:#bfbf00;stroke:#bfbf00;" x="922.920602" xlink:href="#m212fd74deb" y="266.774889"/>
     <use style="fill:#bfbf00;stroke:#bfbf00;" x="956.365618" xlink:href="#m212fd74deb" y="273.275123"/>
     <use style="fill:#bfbf00;stroke:#bfbf00;" x="989.810633" xlink:href="#m212fd74deb" y="256.064475"/>
     <use style="fill:#bfbf00;stroke:#bfbf00;" x="1023.255649" xlink:href="#m212fd74deb" y="250.125667"/>
     <use style="fill:#bfbf00;stroke:#bfbf00;" x="1056.700665" xlink:href="#m212fd74deb" y="236.173681"/>
     <use style="fill:#bfbf00;stroke:#bfbf00;" x="1090.14568" xlink:href="#m212fd74deb" y="237.860821"/>
     <use style="fill:#bfbf00;stroke:#bfbf00;" x="1123.590696" xlink:href="#m212fd74deb" y="221.475306"/>
     <use style="fill:#bfbf00;stroke:#bfbf00;" x="1157.035712" xlink:href="#m212fd74deb" y="214.809507"/>
     <use style="fill:#bfbf00;stroke:#bfbf00;" x="1190.480727" xlink:href="#m212fd74deb" y="221.951279"/>
    </g>
   </g>
   <g id="line2d_17">
    <path clip-path="url(#p25563329b3)" d="M 220.575273 252.883314 
L 254.020288 227.424817 
L 287.465304 216.841625 
L 320.91032 223.273962 
L 354.355335 228.655254 
L 387.800351 214.631834 
L 421.245367 215.047712 
L 454.690382 202.337665 
L 488.135398 206.150673 
L 521.580414 198.887058 
L 555.025429 195.020633 
L 588.470445 186.227796 
L 621.915461 184.947591 
L 655.360476 180.09906 
L 688.805492 178.396428 
L 722.250508 170.59739 
L 755.695524 162.129449 
L 789.140539 157.560264 
L 822.585555 162.352118 
L 856.030571 158.207873 
L 889.475586 150.714441 
L 922.920602 147.598302 
L 956.365618 144.902287 
L 989.810633 137.82898 
L 1023.255649 134.048423 
L 1056.700665 132.866738 
L 1090.14568 125.625913 
L 1123.590696 119.666131 
L 1157.035712 115.93884 
L 1190.480727 109.926 
" style="fill:none;stroke:#000000;stroke-dasharray:9.6,2.4,1.5,2.4;stroke-dashoffset:0;stroke-width:1.5;"/>
    <defs>
     <path d="M 0 0 
L 0 10 
M 0 0 
L 8 -5 
M 0 0 
L -8 -5 
" id="me5fe3f7d74" style="stroke:#000000;"/>
    </defs>
    <g clip-path="url(#p25563329b3)">
     <use style="stroke:#000000;" x="220.575273" xlink:href="#me5fe3f7d74" y="252.883314"/>
     <use style="stroke:#000000;" x="254.020288" xlink:href="#me5fe3f7d74" y="227.424817"/>
     <use style="stroke:#000000;" x="287.465304" xlink:href="#me5fe3f7d74" y="216.841625"/>
     <use style="stroke:#000000;" x="320.91032" xlink:href="#me5fe3f7d74" y="223.273962"/>
     <use style="stroke:#000000;" x="354.355335" xlink:href="#me5fe3f7d74" y="228.655254"/>
     <use style="stroke:#000000;" x="387.800351" xlink:href="#me5fe3f7d74" y="214.631834"/>
     <use style="stroke:#000000;" x="421.245367" xlink:href="#me5fe3f7d74" y="215.047712"/>
     <use style="stroke:#000000;" x="454.690382" xlink:href="#me5fe3f7d74" y="202.337665"/>
     <use style="stroke:#000000;" x="488.135398" xlink:href="#me5fe3f7d74" y="206.150673"/>
     <use style="stroke:#000000;" x="521.580414" xlink:href="#me5fe3f7d74" y="198.887058"/>
     <use style="stroke:#000000;" x="555.025429" xlink:href="#me5fe3f7d74" y="195.020633"/>
     <use style="stroke:#000000;" x="588.470445" xlink:href="#me5fe3f7d74" y="186.227796"/>
     <use style="stroke:#000000;" x="621.915461" xlink:href="#me5fe3f7d74" y="184.947591"/>
     <use style="stroke:#000000;" x="655.360476" xlink:href="#me5fe3f7d74" y="180.09906"/>
     <use style="stroke:#000000;" x="688.805492" xlink:href="#me5fe3f7d74" y="178.396428"/>
     <use style="stroke:#000000;" x="722.250508" xlink:href="#me5fe3f7d74" y="170.59739"/>
     <use style="stroke:#000000;" x="755.695524" xlink:href="#me5fe3f7d74" y="162.129449"/>
     <use style="stroke:#000000;" x="789.140539" xlink:href="#me5fe3f7d74" y="157.560264"/>
     <use style="stroke:#000000;" x="822.585555" xlink:href="#me5fe3f7d74" y="162.352118"/>
     <use style="stroke:#000000;" x="856.030571" xlink:href="#me5fe3f7d74" y="158.207873"/>
     <use style="stroke:#000000;" x="889.475586" xlink:href="#me5fe3f7d74" y="150.714441"/>
     <use style="stroke:#000000;" x="922.920602" xlink:href="#me5fe3f7d74" y="147.598302"/>
     <use style="stroke:#000000;" x="956.365618" xlink:href="#me5fe3f7d74" y="144.902287"/>
     <use style="stroke:#000000;" x="989.810633" xlink:href="#me5fe3f7d74" y="137.82898"/>
     <use style="stroke:#000000;" x="1023.255649" xlink:href="#me5fe3f7d74" y="134.048423"/>
     <use style="stroke:#000000;" x="1056.700665" xlink:href="#me5fe3f7d74" y="132.866738"/>
     <use style="stroke:#000000;" x="1090.14568" xlink:href="#me5fe3f7d74" y="125.625913"/>
     <use style="stroke:#000000;" x="1123.590696" xlink:href="#me5fe3f7d74" y="119.666131"/>
     <use style="stroke:#000000;" x="1157.035712" xlink:href="#me5fe3f7d74" y="115.93884"/>
     <use style="stroke:#000000;" x="1190.480727" xlink:href="#me5fe3f7d74" y="109.926"/>
    </g>
   </g>
   <g id="patch_3">
    <path d="M 172.08 631.188 
L 172.08 85.104 
" style="fill:none;stroke:#000000;stroke-linecap:square;stroke-linejoin:miter;stroke-width:0.8;"/>
   </g>
   <g id="patch_4">
    <path d="M 1238.976 631.188 
L 1238.976 85.104 
" style="fill:none;stroke:#000000;stroke-linecap:square;stroke-linejoin:miter;stroke-width:0.8;"/>
   </g>
   <g id="patch_5">
    <path d="M 172.08 631.188 
L 1238.976 631.188 
" style="fill:none;stroke:#000000;stroke-linecap:square;stroke-linejoin:miter;stroke-width:0.8;"/>
   </g>
   <g id="patch_6">
    <path d="M 172.08 85.104 
L 1238.976 85.104 
" style="fill:none;stroke:#000000;stroke-linecap:square;stroke-linejoin:miter;stroke-width:0.8;"/>
   </g>
   <g id="text_15">
    <!-- Latency Measurements for Coallocated UDP Echo Servers -->
    <g transform="translate(324.730688 79.104)scale(0.264 -0.264)">
     <defs>
      <path d="M 628 4666 
L 1259 4666 
L 1259 531 
L 3531 531 
L 3531 0 
L 628 0 
L 628 4666 
z
" id="DejaVuSans-4c" transform="scale(0.015625)"/>
      <path d="M 628 4666 
L 1569 4666 
L 2759 1491 
L 3956 4666 
L 4897 4666 
L 4897 0 
L 4281 0 
L 4281 4097 
L 3078 897 
L 2444 897 
L 1241 4097 
L 1241 0 
L 628 0 
L 628 4666 
z
" id="DejaVuSans-4d" transform="scale(0.015625)"/>
      <path d="M 544 1381 
L 544 3500 
L 1119 3500 
L 1119 1403 
Q 1119 906 1312 657 
Q 1506 409 1894 409 
Q 2359 409 2629 706 
Q 2900 1003 2900 1516 
L 2900 3500 
L 3475 3500 
L 3475 0 
L 2900 0 
L 2900 538 
Q 2691 219 2414 64 
Q 2138 -91 1772 -91 
Q 1169 -91 856 284 
Q 544 659 544 1381 
z
M 1991 3584 
L 1991 3584 
z
" id="DejaVuSans-75" transform="scale(0.015625)"/>
      <path d="M 2631 2963 
Q 2534 3019 2420 3045 
Q 2306 3072 2169 3072 
Q 1681 3072 1420 2755 
Q 1159 2438 1159 1844 
L 1159 0 
L 581 0 
L 581 3500 
L 1159 3500 
L 1159 2956 
Q 1341 3275 1631 3429 
Q 1922 3584 2338 3584 
Q 2397 3584 2469 3576 
Q 2541 3569 2628 3553 
L 2631 2963 
z
" id="DejaVuSans-72" transform="scale(0.015625)"/>
      <path d="M 2375 4863 
L 2375 4384 
L 1825 4384 
Q 1516 4384 1395 4259 
Q 1275 4134 1275 3809 
L 1275 3500 
L 2222 3500 
L 2222 3053 
L 1275 3053 
L 1275 0 
L 697 0 
L 697 3053 
L 147 3053 
L 147 3500 
L 697 3500 
L 697 3744 
Q 697 4328 969 4595 
Q 1241 4863 1831 4863 
L 2375 4863 
z
" id="DejaVuSans-66" transform="scale(0.015625)"/>
      <path d="M 1959 3097 
Q 1497 3097 1228 2736 
Q 959 2375 959 1747 
Q 959 1119 1226 758 
Q 1494 397 1959 397 
Q 2419 397 2687 759 
Q 2956 1122 2956 1747 
Q 2956 2369 2687 2733 
Q 2419 3097 1959 3097 
z
M 1959 3584 
Q 2709 3584 3137 3096 
Q 3566 2609 3566 1747 
Q 3566 888 3137 398 
Q 2709 -91 1959 -91 
Q 1206 -91 779 398 
Q 353 888 353 1747 
Q 353 2609 779 3096 
Q 1206 3584 1959 3584 
z
" id="DejaVuSans-6f" transform="scale(0.015625)"/>
      <path d="M 4122 4306 
L 4122 3641 
Q 3803 3938 3442 4084 
Q 3081 4231 2675 4231 
Q 1875 4231 1450 3742 
Q 1025 3253 1025 2328 
Q 1025 1406 1450 917 
Q 1875 428 2675 428 
Q 3081 428 3442 575 
Q 3803 722 4122 1019 
L 4122 359 
Q 3791 134 3420 21 
Q 3050 -91 2638 -91 
Q 1578 -91 968 557 
Q 359 1206 359 2328 
Q 359 3453 968 4101 
Q 1578 4750 2638 4750 
Q 3056 4750 3426 4639 
Q 3797 4528 4122 4306 
z
" id="DejaVuSans-43" transform="scale(0.015625)"/>
      <path d="M 2906 2969 
L 2906 4863 
L 3481 4863 
L 3481 0 
L 2906 0 
L 2906 525 
Q 2725 213 2448 61 
Q 2172 -91 1784 -91 
Q 1150 -91 751 415 
Q 353 922 353 1747 
Q 353 2572 751 3078 
Q 1150 3584 1784 3584 
Q 2172 3584 2448 3432 
Q 2725 3281 2906 2969 
z
M 947 1747 
Q 947 1113 1208 752 
Q 1469 391 1925 391 
Q 2381 391 2643 752 
Q 2906 1113 2906 1747 
Q 2906 2381 2643 2742 
Q 2381 3103 1925 3103 
Q 1469 3103 1208 2742 
Q 947 2381 947 1747 
z
" id="DejaVuSans-64" transform="scale(0.015625)"/>
      <path d="M 556 4666 
L 1191 4666 
L 1191 1831 
Q 1191 1081 1462 751 
Q 1734 422 2344 422 
Q 2950 422 3222 751 
Q 3494 1081 3494 1831 
L 3494 4666 
L 4128 4666 
L 4128 1753 
Q 4128 841 3676 375 
Q 3225 -91 2344 -91 
Q 1459 -91 1007 375 
Q 556 841 556 1753 
L 556 4666 
z
" id="DejaVuSans-55" transform="scale(0.015625)"/>
      <path d="M 1259 4147 
L 1259 519 
L 2022 519 
Q 2988 519 3436 956 
Q 3884 1394 3884 2338 
Q 3884 3275 3436 3711 
Q 2988 4147 2022 4147 
L 1259 4147 
z
M 628 4666 
L 1925 4666 
Q 3281 4666 3915 4102 
Q 4550 3538 4550 2338 
Q 4550 1131 3912 565 
Q 3275 0 1925 0 
L 628 0 
L 628 4666 
z
" id="DejaVuSans-44" transform="scale(0.015625)"/>
      <path d="M 1259 4147 
L 1259 2394 
L 2053 2394 
Q 2494 2394 2734 2622 
Q 2975 2850 2975 3272 
Q 2975 3691 2734 3919 
Q 2494 4147 2053 4147 
L 1259 4147 
z
M 628 4666 
L 2053 4666 
Q 2838 4666 3239 4311 
Q 3641 3956 3641 3272 
Q 3641 2581 3239 2228 
Q 2838 1875 2053 1875 
L 1259 1875 
L 1259 0 
L 628 0 
L 628 4666 
z
" id="DejaVuSans-50" transform="scale(0.015625)"/>
      <path d="M 628 4666 
L 3578 4666 
L 3578 4134 
L 1259 4134 
L 1259 2753 
L 3481 2753 
L 3481 2222 
L 1259 2222 
L 1259 531 
L 3634 531 
L 3634 0 
L 628 0 
L 628 4666 
z
" id="DejaVuSans-45" transform="scale(0.015625)"/>
      <path d="M 3425 4513 
L 3425 3897 
Q 3066 4069 2747 4153 
Q 2428 4238 2131 4238 
Q 1616 4238 1336 4038 
Q 1056 3838 1056 3469 
Q 1056 3159 1242 3001 
Q 1428 2844 1947 2747 
L 2328 2669 
Q 3034 2534 3370 2195 
Q 3706 1856 3706 1288 
Q 3706 609 3251 259 
Q 2797 -91 1919 -91 
Q 1588 -91 1214 -16 
Q 841 59 441 206 
L 441 856 
Q 825 641 1194 531 
Q 1563 422 1919 422 
Q 2459 422 2753 634 
Q 3047 847 3047 1241 
Q 3047 1584 2836 1778 
Q 2625 1972 2144 2069 
L 1759 2144 
Q 1053 2284 737 2584 
Q 422 2884 422 3419 
Q 422 4038 858 4394 
Q 1294 4750 2059 4750 
Q 2388 4750 2728 4690 
Q 3069 4631 3425 4513 
z
" id="DejaVuSans-53" transform="scale(0.015625)"/>
      <path d="M 191 3500 
L 800 3500 
L 1894 563 
L 2988 3500 
L 3597 3500 
L 2284 0 
L 1503 0 
L 191 3500 
z
" id="DejaVuSans-76" transform="scale(0.015625)"/>
     </defs>
     <use xlink:href="#DejaVuSans-4c"/>
     <use x="55.712891" xlink:href="#DejaVuSans-61"/>
     <use x="116.992188" xlink:href="#DejaVuSans-74"/>
     <use x="156.201172" xlink:href="#DejaVuSans-65"/>
     <use x="217.724609" xlink:href="#DejaVuSans-6e"/>
     <use x="281.103516" xlink:href="#DejaVuSans-63"/>
     <use x="336.083984" xlink:href="#DejaVuSans-79"/>
     <use x="395.263672" xlink:href="#DejaVuSans-20"/>
     <use x="427.050781" xlink:href="#DejaVuSans-4d"/>
     <use x="513.330078" xlink:href="#DejaVuSans-65"/>
     <use x="574.853516" xlink:href="#DejaVuSans-61"/>
     <use x="636.132812" xlink:href="#DejaVuSans-73"/>
     <use x="688.232422" xlink:href="#DejaVuSans-75"/>
     <use x="751.611328" xlink:href="#DejaVuSans-72"/>
     <use x="790.474609" xlink:href="#DejaVuSans-65"/>
     <use x="851.998047" xlink:href="#DejaVuSans-6d"/>
     <use x="949.410156" xlink:href="#DejaVuSans-65"/>
     <use x="1010.933594" xlink:href="#DejaVuSans-6e"/>
     <use x="1074.3125" xlink:href="#DejaVuSans-74"/>
     <use x="1113.521484" xlink:href="#DejaVuSans-73"/>
     <use x="1165.621094" xlink:href="#DejaVuSans-20"/>
     <use x="1197.408203" xlink:href="#DejaVuSans-66"/>
     <use x="1232.613281" xlink:href="#DejaVuSans-6f"/>
     <use x="1293.794922" xlink:href="#DejaVuSans-72"/>
     <use x="1334.908203" xlink:href="#DejaVuSans-20"/>
     <use x="1366.695312" xlink:href="#DejaVuSans-43"/>
     <use x="1436.519531" xlink:href="#DejaVuSans-6f"/>
     <use x="1497.701172" xlink:href="#DejaVuSans-61"/>
     <use x="1558.980469" xlink:href="#DejaVuSans-6c"/>
     <use x="1586.763672" xlink:href="#DejaVuSans-6c"/>
     <use x="1614.546875" xlink:href="#DejaVuSans-6f"/>
     <use x="1675.728516" xlink:href="#DejaVuSans-63"/>
     <use x="1730.708984" xlink:href="#DejaVuSans-61"/>
     <use x="1791.988281" xlink:href="#DejaVuSans-74"/>
     <use x="1831.197266" xlink:href="#DejaVuSans-65"/>
     <use x="1892.720703" xlink:href="#DejaVuSans-64"/>
     <use x="1956.197266" xlink:href="#DejaVuSans-20"/>
     <use x="1987.984375" xlink:href="#DejaVuSans-55"/>
     <use x="2061.177734" xlink:href="#DejaVuSans-44"/>
     <use x="2138.179688" xlink:href="#DejaVuSans-50"/>
     <use x="2198.482422" xlink:href="#DejaVuSans-20"/>
     <use x="2230.269531" xlink:href="#DejaVuSans-45"/>
     <use x="2293.453125" xlink:href="#DejaVuSans-63"/>
     <use x="2348.433594" xlink:href="#DejaVuSans-68"/>
     <use x="2411.8125" xlink:href="#DejaVuSans-6f"/>
     <use x="2472.994141" xlink:href="#DejaVuSans-20"/>
     <use x="2504.78125" xlink:href="#DejaVuSans-53"/>
     <use x="2568.257812" xlink:href="#DejaVuSans-65"/>
     <use x="2629.78125" xlink:href="#DejaVuSans-72"/>
     <use x="2670.894531" xlink:href="#DejaVuSans-76"/>
     <use x="2730.074219" xlink:href="#DejaVuSans-65"/>
     <use x="2791.597656" xlink:href="#DejaVuSans-72"/>
     <use x="2832.710938" xlink:href="#DejaVuSans-73"/>
    </g>
   </g>
   <g id="legend_1">
    <g id="patch_7">
     <path d="M 1037.08475 620.188 
L 1223.576 620.188 
Q 1227.976 620.188 1227.976 615.788 
L 1227.976 456.528625 
Q 1227.976 452.128625 1223.576 452.128625 
L 1037.08475 452.128625 
Q 1032.68475 452.128625 1032.68475 456.528625 
L 1032.68475 615.788 
Q 1032.68475 620.188 1037.08475 620.188 
z
" style="fill:#ffffff;opacity:0.8;stroke:#cccccc;stroke-linejoin:miter;"/>
    </g>
    <g id="line2d_18">
     <path d="M 1041.48475 469.945187 
L 1085.48475 469.945187 
" style="fill:none;stroke:#0000ff;stroke-dasharray:9.6,2.4,1.5,2.4;stroke-dashoffset:0;stroke-width:1.5;"/>
    </g>
    <g id="line2d_19">
     <g>
      <use style="fill:#0000ff;stroke:#0000ff;" x="1063.48475" xlink:href="#m4d5653862f" y="469.945187"/>
     </g>
    </g>
    <g id="text_16">
     <!-- 1 servers -->
     <g transform="translate(1103.08475 477.645187)scale(0.22 -0.22)">
      <use xlink:href="#DejaVuSans-31"/>
      <use x="63.623047" xlink:href="#DejaVuSans-20"/>
      <use x="95.410156" xlink:href="#DejaVuSans-73"/>
      <use x="147.509766" xlink:href="#DejaVuSans-65"/>
      <use x="209.033203" xlink:href="#DejaVuSans-72"/>
      <use x="250.146484" xlink:href="#DejaVuSans-76"/>
      <use x="309.326172" xlink:href="#DejaVuSans-65"/>
      <use x="370.849609" xlink:href="#DejaVuSans-72"/>
      <use x="411.962891" xlink:href="#DejaVuSans-73"/>
     </g>
    </g>
    <g id="line2d_20">
     <path d="M 1041.48475 502.237062 
L 1085.48475 502.237062 
" style="fill:none;stroke:#ff0000;stroke-dasharray:9.6,2.4,1.5,2.4;stroke-dashoffset:0;stroke-width:1.5;"/>
    </g>
    <g id="line2d_21">
     <g>
      <use style="fill:#ff0000;stroke:#ff0000;" x="1063.48475" xlink:href="#md30d4b0c4b" y="502.237062"/>
     </g>
    </g>
    <g id="text_17">
     <!-- 3 servers -->
     <g transform="translate(1103.08475 509.937062)scale(0.22 -0.22)">
      <defs>
       <path d="M 2597 2516 
Q 3050 2419 3304 2112 
Q 3559 1806 3559 1356 
Q 3559 666 3084 287 
Q 2609 -91 1734 -91 
Q 1441 -91 1130 -33 
Q 819 25 488 141 
L 488 750 
Q 750 597 1062 519 
Q 1375 441 1716 441 
Q 2309 441 2620 675 
Q 2931 909 2931 1356 
Q 2931 1769 2642 2001 
Q 2353 2234 1838 2234 
L 1294 2234 
L 1294 2753 
L 1863 2753 
Q 2328 2753 2575 2939 
Q 2822 3125 2822 3475 
Q 2822 3834 2567 4026 
Q 2313 4219 1838 4219 
Q 1578 4219 1281 4162 
Q 984 4106 628 3988 
L 628 4550 
Q 988 4650 1302 4700 
Q 1616 4750 1894 4750 
Q 2613 4750 3031 4423 
Q 3450 4097 3450 3541 
Q 3450 3153 3228 2886 
Q 3006 2619 2597 2516 
z
" id="DejaVuSans-33" transform="scale(0.015625)"/>
      </defs>
      <use xlink:href="#DejaVuSans-33"/>
      <use x="63.623047" xlink:href="#DejaVuSans-20"/>
      <use x="95.410156" xlink:href="#DejaVuSans-73"/>
      <use x="147.509766" xlink:href="#DejaVuSans-65"/>
      <use x="209.033203" xlink:href="#DejaVuSans-72"/>
      <use x="250.146484" xlink:href="#DejaVuSans-76"/>
      <use x="309.326172" xlink:href="#DejaVuSans-65"/>
      <use x="370.849609" xlink:href="#DejaVuSans-72"/>
      <use x="411.962891" xlink:href="#DejaVuSans-73"/>
     </g>
    </g>
    <g id="line2d_22">
     <path d="M 1041.48475 534.528937 
L 1085.48475 534.528937 
" style="fill:none;stroke:#008000;stroke-dasharray:9.6,2.4,1.5,2.4;stroke-dashoffset:0;stroke-width:1.5;"/>
    </g>
    <g id="line2d_23">
     <g>
      <use style="fill:#008000;stroke:#008000;" x="1063.48475" xlink:href="#mf04c03e53d" y="534.528937"/>
     </g>
    </g>
    <g id="text_18">
     <!-- 5 servers -->
     <g transform="translate(1103.08475 542.228937)scale(0.22 -0.22)">
      <defs>
       <path d="M 691 4666 
L 3169 4666 
L 3169 4134 
L 1269 4134 
L 1269 2991 
Q 1406 3038 1543 3061 
Q 1681 3084 1819 3084 
Q 2600 3084 3056 2656 
Q 3513 2228 3513 1497 
Q 3513 744 3044 326 
Q 2575 -91 1722 -91 
Q 1428 -91 1123 -41 
Q 819 9 494 109 
L 494 744 
Q 775 591 1075 516 
Q 1375 441 1709 441 
Q 2250 441 2565 725 
Q 2881 1009 2881 1497 
Q 2881 1984 2565 2268 
Q 2250 2553 1709 2553 
Q 1456 2553 1204 2497 
Q 953 2441 691 2322 
L 691 4666 
z
" id="DejaVuSans-35" transform="scale(0.015625)"/>
      </defs>
      <use xlink:href="#DejaVuSans-35"/>
      <use x="63.623047" xlink:href="#DejaVuSans-20"/>
      <use x="95.410156" xlink:href="#DejaVuSans-73"/>
      <use x="147.509766" xlink:href="#DejaVuSans-65"/>
      <use x="209.033203" xlink:href="#DejaVuSans-72"/>
      <use x="250.146484" xlink:href="#DejaVuSans-76"/>
      <use x="309.326172" xlink:href="#DejaVuSans-65"/>
      <use x="370.849609" xlink:href="#DejaVuSans-72"/>
      <use x="411.962891" xlink:href="#DejaVuSans-73"/>
     </g>
    </g>
    <g id="line2d_24">
     <path d="M 1041.48475 566.820812 
L 1085.48475 566.820812 
" style="fill:none;stroke:#bfbf00;stroke-dasharray:9.6,2.4,1.5,2.4;stroke-dashoffset:0;stroke-width:1.5;"/>
    </g>
    <g id="line2d_25">
     <g>
      <use style="fill:#bfbf00;stroke:#bfbf00;" x="1063.48475" xlink:href="#m212fd74deb" y="566.820812"/>
     </g>
    </g>
    <g id="text_19">
     <!-- 7 servers -->
     <g transform="translate(1103.08475 574.520812)scale(0.22 -0.22)">
      <defs>
       <path d="M 525 4666 
L 3525 4666 
L 3525 4397 
L 1831 0 
L 1172 0 
L 2766 4134 
L 525 4134 
L 525 4666 
z
" id="DejaVuSans-37" transform="scale(0.015625)"/>
      </defs>
      <use xlink:href="#DejaVuSans-37"/>
      <use x="63.623047" xlink:href="#DejaVuSans-20"/>
      <use x="95.410156" xlink:href="#DejaVuSans-73"/>
      <use x="147.509766" xlink:href="#DejaVuSans-65"/>
      <use x="209.033203" xlink:href="#DejaVuSans-72"/>
      <use x="250.146484" xlink:href="#DejaVuSans-76"/>
      <use x="309.326172" xlink:href="#DejaVuSans-65"/>
      <use x="370.849609" xlink:href="#DejaVuSans-72"/>
      <use x="411.962891" xlink:href="#DejaVuSans-73"/>
     </g>
    </g>
    <g id="line2d_26">
     <path d="M 1041.48475 599.112687 
L 1085.48475 599.112687 
" style="fill:none;stroke:#000000;stroke-dasharray:9.6,2.4,1.5,2.4;stroke-dashoffset:0;stroke-width:1.5;"/>
    </g>
    <g id="line2d_27">
     <g>
      <use style="stroke:#000000;" x="1063.48475" xlink:href="#me5fe3f7d74" y="599.112687"/>
     </g>
    </g>
    <g id="text_20">
     <!-- 10 servers -->
     <g transform="translate(1103.08475 606.812687)scale(0.22 -0.22)">
      <use xlink:href="#DejaVuSans-31"/>
      <use x="63.623047" xlink:href="#DejaVuSans-30"/>
      <use x="127.246094" xlink:href="#DejaVuSans-20"/>
      <use x="159.033203" xlink:href="#DejaVuSans-73"/>
      <use x="211.132812" xlink:href="#DejaVuSans-65"/>
      <use x="272.65625" xlink:href="#DejaVuSans-72"/>
      <use x="313.769531" xlink:href="#DejaVuSans-76"/>
      <use x="372.949219" xlink:href="#DejaVuSans-65"/>
      <use x="434.472656" xlink:href="#DejaVuSans-72"/>
      <use x="475.585938" xlink:href="#DejaVuSans-73"/>
     </g>
    </g>
   </g>
  </g>
 </g>
 <defs>
  <clipPath id="p25563329b3">
   <rect height="546.084" width="1066.896" x="172.08" y="85.104"/>
  </clipPath>
 </defs>
</svg>
