<?xml version="1.0" encoding="utf-8" standalone="no"?>
<!DOCTYPE svg PUBLIC "-//W3C//DTD SVG 1.1//EN"
  "http://www.w3.org/Graphics/SVG/1.1/DTD/svg11.dtd">
<svg height="709.2pt" version="1.1" viewBox="0 0 1376.64 709.2" width="1376.64pt" xmlns="http://www.w3.org/2000/svg" xmlns:xlink="http://www.w3.org/1999/xlink">
 <metadata>
  <rdf:RDF xmlns:cc="http://creativecommons.org/ns#" xmlns:dc="http://purl.org/dc/elements/1.1/" xmlns:rdf="http://www.w3.org/1999/02/22-rdf-syntax-ns#">
   <cc:Work>
    <dc:type rdf:resource="http://purl.org/dc/dcmitype/StillImage"/>
    <dc:date>2021-06-02T20:08:19.553361</dc:date>
    <dc:format>image/svg+xml</dc:format>
    <dc:creator>
     <cc:Agent>
      <dc:title>Matplotlib v3.4.1, https://matplotlib.org/</dc:title>
     </cc:Agent>
    </dc:creator>
   </cc:Work>
  </rdf:RDF>
 </metadata>
 <defs>
  <style type="text/css">*{stroke-linecap:butt;stroke-linejoin:round;}</style>
 </defs>
 <g id="figure_1">
  <g id="patch_1">
   <path d="M 0 709.2 
L 1376.64 709.2 
L 1376.64 0 
L 0 0 
z
" style="fill:#ffffff;"/>
  </g>
  <g id="axes_1">
   <g id="patch_2">
    <path d="M 172.08 631.188 
L 1238.976 631.188 
L 1238.976 85.104 
L 172.08 85.104 
z
" style="fill:#ffffff;"/>
   </g>
   <g id="matplotlib.axis_1">
    <g id="xtick_1">
     <g id="line2d_1">
      <defs>
       <path d="M 0 0 
L 0 3.5 
" id="m98168ba154" style="stroke:#000000;stroke-width:0.8;"/>
      </defs>
      <g>
       <use style="stroke:#000000;stroke-width:0.8;" x="220.575273" xlink:href="#m98168ba154" y="631.188"/>
      </g>
     </g>
     <g id="text_1">
      <!-- 0 -->
      <g transform="translate(213.576523 654.904562)scale(0.22 -0.22)">
       <defs>
        <path d="M 2034 4250 
Q 1547 4250 1301 3770 
Q 1056 3291 1056 2328 
Q 1056 1369 1301 889 
Q 1547 409 2034 409 
Q 2525 409 2770 889 
Q 3016 1369 3016 2328 
Q 3016 3291 2770 3770 
Q 2525 4250 2034 4250 
z
M 2034 4750 
Q 2819 4750 3233 4129 
Q 3647 3509 3647 2328 
Q 3647 1150 3233 529 
Q 2819 -91 2034 -91 
Q 1250 -91 836 529 
Q 422 1150 422 2328 
Q 422 3509 836 4129 
Q 1250 4750 2034 4750 
z
" id="DejaVuSans-30" transform="scale(0.015625)"/>
       </defs>
       <use xlink:href="#DejaVuSans-30"/>
      </g>
     </g>
    </g>
    <g id="xtick_2">
     <g id="line2d_2">
      <g>
       <use style="stroke:#000000;stroke-width:0.8;" x="354.355335" xlink:href="#m98168ba154" y="631.188"/>
      </g>
     </g>
     <g id="text_2">
      <!-- 200 -->
      <g transform="translate(333.359085 654.904562)scale(0.22 -0.22)">
       <defs>
        <path d="M 1228 531 
L 3431 531 
L 3431 0 
L 469 0 
L 469 531 
Q 828 903 1448 1529 
Q 2069 2156 2228 2338 
Q 2531 2678 2651 2914 
Q 2772 3150 2772 3378 
Q 2772 3750 2511 3984 
Q 2250 4219 1831 4219 
Q 1534 4219 1204 4116 
Q 875 4013 500 3803 
L 500 4441 
Q 881 4594 1212 4672 
Q 1544 4750 1819 4750 
Q 2544 4750 2975 4387 
Q 3406 4025 3406 3419 
Q 3406 3131 3298 2873 
Q 3191 2616 2906 2266 
Q 2828 2175 2409 1742 
Q 1991 1309 1228 531 
z
" id="DejaVuSans-32" transform="scale(0.015625)"/>
       </defs>
       <use xlink:href="#DejaVuSans-32"/>
       <use x="63.623047" xlink:href="#DejaVuSans-30"/>
       <use x="127.246094" xlink:href="#DejaVuSans-30"/>
      </g>
     </g>
    </g>
    <g id="xtick_3">
     <g id="line2d_3">
      <g>
       <use style="stroke:#000000;stroke-width:0.8;" x="488.135398" xlink:href="#m98168ba154" y="631.188"/>
      </g>
     </g>
     <g id="text_3">
      <!-- 400 -->
      <g transform="translate(467.139148 654.904562)scale(0.22 -0.22)">
       <defs>
        <path d="M 2419 4116 
L 825 1625 
L 2419 1625 
L 2419 4116 
z
M 2253 4666 
L 3047 4666 
L 3047 1625 
L 3713 1625 
L 3713 1100 
L 3047 1100 
L 3047 0 
L 2419 0 
L 2419 1100 
L 313 1100 
L 313 1709 
L 2253 4666 
z
" id="DejaVuSans-34" transform="scale(0.015625)"/>
       </defs>
       <use xlink:href="#DejaVuSans-34"/>
       <use x="63.623047" xlink:href="#DejaVuSans-30"/>
       <use x="127.246094" xlink:href="#DejaVuSans-30"/>
      </g>
     </g>
    </g>
    <g id="xtick_4">
     <g id="line2d_4">
      <g>
       <use style="stroke:#000000;stroke-width:0.8;" x="621.915461" xlink:href="#m98168ba154" y="631.188"/>
      </g>
     </g>
     <g id="text_4">
      <!-- 600 -->
      <g transform="translate(600.919211 654.904562)scale(0.22 -0.22)">
       <defs>
        <path d="M 2113 2584 
Q 1688 2584 1439 2293 
Q 1191 2003 1191 1497 
Q 1191 994 1439 701 
Q 1688 409 2113 409 
Q 2538 409 2786 701 
Q 3034 994 3034 1497 
Q 3034 2003 2786 2293 
Q 2538 2584 2113 2584 
z
M 3366 4563 
L 3366 3988 
Q 3128 4100 2886 4159 
Q 2644 4219 2406 4219 
Q 1781 4219 1451 3797 
Q 1122 3375 1075 2522 
Q 1259 2794 1537 2939 
Q 1816 3084 2150 3084 
Q 2853 3084 3261 2657 
Q 3669 2231 3669 1497 
Q 3669 778 3244 343 
Q 2819 -91 2113 -91 
Q 1303 -91 875 529 
Q 447 1150 447 2328 
Q 447 3434 972 4092 
Q 1497 4750 2381 4750 
Q 2619 4750 2861 4703 
Q 3103 4656 3366 4563 
z
" id="DejaVuSans-36" transform="scale(0.015625)"/>
       </defs>
       <use xlink:href="#DejaVuSans-36"/>
       <use x="63.623047" xlink:href="#DejaVuSans-30"/>
       <use x="127.246094" xlink:href="#DejaVuSans-30"/>
      </g>
     </g>
    </g>
    <g id="xtick_5">
     <g id="line2d_5">
      <g>
       <use style="stroke:#000000;stroke-width:0.8;" x="755.695524" xlink:href="#m98168ba154" y="631.188"/>
      </g>
     </g>
     <g id="text_5">
      <!-- 800 -->
      <g transform="translate(734.699274 654.904562)scale(0.22 -0.22)">
       <defs>
        <path d="M 2034 2216 
Q 1584 2216 1326 1975 
Q 1069 1734 1069 1313 
Q 1069 891 1326 650 
Q 1584 409 2034 409 
Q 2484 409 2743 651 
Q 3003 894 3003 1313 
Q 3003 1734 2745 1975 
Q 2488 2216 2034 2216 
z
M 1403 2484 
Q 997 2584 770 2862 
Q 544 3141 544 3541 
Q 544 4100 942 4425 
Q 1341 4750 2034 4750 
Q 2731 4750 3128 4425 
Q 3525 4100 3525 3541 
Q 3525 3141 3298 2862 
Q 3072 2584 2669 2484 
Q 3125 2378 3379 2068 
Q 3634 1759 3634 1313 
Q 3634 634 3220 271 
Q 2806 -91 2034 -91 
Q 1263 -91 848 271 
Q 434 634 434 1313 
Q 434 1759 690 2068 
Q 947 2378 1403 2484 
z
M 1172 3481 
Q 1172 3119 1398 2916 
Q 1625 2713 2034 2713 
Q 2441 2713 2670 2916 
Q 2900 3119 2900 3481 
Q 2900 3844 2670 4047 
Q 2441 4250 2034 4250 
Q 1625 4250 1398 4047 
Q 1172 3844 1172 3481 
z
" id="DejaVuSans-38" transform="scale(0.015625)"/>
       </defs>
       <use xlink:href="#DejaVuSans-38"/>
       <use x="63.623047" xlink:href="#DejaVuSans-30"/>
       <use x="127.246094" xlink:href="#DejaVuSans-30"/>
      </g>
     </g>
    </g>
    <g id="xtick_6">
     <g id="line2d_6">
      <g>
       <use style="stroke:#000000;stroke-width:0.8;" x="889.475586" xlink:href="#m98168ba154" y="631.188"/>
      </g>
     </g>
     <g id="text_6">
      <!-- 1000 -->
      <g transform="translate(861.480586 654.904562)scale(0.22 -0.22)">
       <defs>
        <path d="M 794 531 
L 1825 531 
L 1825 4091 
L 703 3866 
L 703 4441 
L 1819 4666 
L 2450 4666 
L 2450 531 
L 3481 531 
L 3481 0 
L 794 0 
L 794 531 
z
" id="DejaVuSans-31" transform="scale(0.015625)"/>
       </defs>
       <use xlink:href="#DejaVuSans-31"/>
       <use x="63.623047" xlink:href="#DejaVuSans-30"/>
       <use x="127.246094" xlink:href="#DejaVuSans-30"/>
       <use x="190.869141" xlink:href="#DejaVuSans-30"/>
      </g>
     </g>
    </g>
    <g id="xtick_7">
     <g id="line2d_7">
      <g>
       <use style="stroke:#000000;stroke-width:0.8;" x="1023.255649" xlink:href="#m98168ba154" y="631.188"/>
      </g>
     </g>
     <g id="text_7">
      <!-- 1200 -->
      <g transform="translate(995.260649 654.904562)scale(0.22 -0.22)">
       <use xlink:href="#DejaVuSans-31"/>
       <use x="63.623047" xlink:href="#DejaVuSans-32"/>
       <use x="127.246094" xlink:href="#DejaVuSans-30"/>
       <use x="190.869141" xlink:href="#DejaVuSans-30"/>
      </g>
     </g>
    </g>
    <g id="xtick_8">
     <g id="line2d_8">
      <g>
       <use style="stroke:#000000;stroke-width:0.8;" x="1157.035712" xlink:href="#m98168ba154" y="631.188"/>
      </g>
     </g>
     <g id="text_8">
      <!-- 1400 -->
      <g transform="translate(1129.040712 654.904562)scale(0.22 -0.22)">
       <use xlink:href="#DejaVuSans-31"/>
       <use x="63.623047" xlink:href="#DejaVuSans-34"/>
       <use x="127.246094" xlink:href="#DejaVuSans-30"/>
       <use x="190.869141" xlink:href="#DejaVuSans-30"/>
      </g>
     </g>
    </g>
    <g id="text_9">
     <!-- message length (bytes) -->
     <g transform="translate(575.148781 680.196438)scale(0.22 -0.22)">
      <defs>
       <path d="M 3328 2828 
Q 3544 3216 3844 3400 
Q 4144 3584 4550 3584 
Q 5097 3584 5394 3201 
Q 5691 2819 5691 2113 
L 5691 0 
L 5113 0 
L 5113 2094 
Q 5113 2597 4934 2840 
Q 4756 3084 4391 3084 
Q 3944 3084 3684 2787 
Q 3425 2491 3425 1978 
L 3425 0 
L 2847 0 
L 2847 2094 
Q 2847 2600 2669 2842 
Q 2491 3084 2119 3084 
Q 1678 3084 1418 2786 
Q 1159 2488 1159 1978 
L 1159 0 
L 581 0 
L 581 3500 
L 1159 3500 
L 1159 2956 
Q 1356 3278 1631 3431 
Q 1906 3584 2284 3584 
Q 2666 3584 2933 3390 
Q 3200 3197 3328 2828 
z
" id="DejaVuSans-6d" transform="scale(0.015625)"/>
       <path d="M 3597 1894 
L 3597 1613 
L 953 1613 
Q 991 1019 1311 708 
Q 1631 397 2203 397 
Q 2534 397 2845 478 
Q 3156 559 3463 722 
L 3463 178 
Q 3153 47 2828 -22 
Q 2503 -91 2169 -91 
Q 1331 -91 842 396 
Q 353 884 353 1716 
Q 353 2575 817 3079 
Q 1281 3584 2069 3584 
Q 2775 3584 3186 3129 
Q 3597 2675 3597 1894 
z
M 3022 2063 
Q 3016 2534 2758 2815 
Q 2500 3097 2075 3097 
Q 1594 3097 1305 2825 
Q 1016 2553 972 2059 
L 3022 2063 
z
" id="DejaVuSans-65" transform="scale(0.015625)"/>
       <path d="M 2834 3397 
L 2834 2853 
Q 2591 2978 2328 3040 
Q 2066 3103 1784 3103 
Q 1356 3103 1142 2972 
Q 928 2841 928 2578 
Q 928 2378 1081 2264 
Q 1234 2150 1697 2047 
L 1894 2003 
Q 2506 1872 2764 1633 
Q 3022 1394 3022 966 
Q 3022 478 2636 193 
Q 2250 -91 1575 -91 
Q 1294 -91 989 -36 
Q 684 19 347 128 
L 347 722 
Q 666 556 975 473 
Q 1284 391 1588 391 
Q 1994 391 2212 530 
Q 2431 669 2431 922 
Q 2431 1156 2273 1281 
Q 2116 1406 1581 1522 
L 1381 1569 
Q 847 1681 609 1914 
Q 372 2147 372 2553 
Q 372 3047 722 3315 
Q 1072 3584 1716 3584 
Q 2034 3584 2315 3537 
Q 2597 3491 2834 3397 
z
" id="DejaVuSans-73" transform="scale(0.015625)"/>
       <path d="M 2194 1759 
Q 1497 1759 1228 1600 
Q 959 1441 959 1056 
Q 959 750 1161 570 
Q 1363 391 1709 391 
Q 2188 391 2477 730 
Q 2766 1069 2766 1631 
L 2766 1759 
L 2194 1759 
z
M 3341 1997 
L 3341 0 
L 2766 0 
L 2766 531 
Q 2569 213 2275 61 
Q 1981 -91 1556 -91 
Q 1019 -91 701 211 
Q 384 513 384 1019 
Q 384 1609 779 1909 
Q 1175 2209 1959 2209 
L 2766 2209 
L 2766 2266 
Q 2766 2663 2505 2880 
Q 2244 3097 1772 3097 
Q 1472 3097 1187 3025 
Q 903 2953 641 2809 
L 641 3341 
Q 956 3463 1253 3523 
Q 1550 3584 1831 3584 
Q 2591 3584 2966 3190 
Q 3341 2797 3341 1997 
z
" id="DejaVuSans-61" transform="scale(0.015625)"/>
       <path d="M 2906 1791 
Q 2906 2416 2648 2759 
Q 2391 3103 1925 3103 
Q 1463 3103 1205 2759 
Q 947 2416 947 1791 
Q 947 1169 1205 825 
Q 1463 481 1925 481 
Q 2391 481 2648 825 
Q 2906 1169 2906 1791 
z
M 3481 434 
Q 3481 -459 3084 -895 
Q 2688 -1331 1869 -1331 
Q 1566 -1331 1297 -1286 
Q 1028 -1241 775 -1147 
L 775 -588 
Q 1028 -725 1275 -790 
Q 1522 -856 1778 -856 
Q 2344 -856 2625 -561 
Q 2906 -266 2906 331 
L 2906 616 
Q 2728 306 2450 153 
Q 2172 0 1784 0 
Q 1141 0 747 490 
Q 353 981 353 1791 
Q 353 2603 747 3093 
Q 1141 3584 1784 3584 
Q 2172 3584 2450 3431 
Q 2728 3278 2906 2969 
L 2906 3500 
L 3481 3500 
L 3481 434 
z
" id="DejaVuSans-67" transform="scale(0.015625)"/>
       <path id="DejaVuSans-20" transform="scale(0.015625)"/>
       <path d="M 603 4863 
L 1178 4863 
L 1178 0 
L 603 0 
L 603 4863 
z
" id="DejaVuSans-6c" transform="scale(0.015625)"/>
       <path d="M 3513 2113 
L 3513 0 
L 2938 0 
L 2938 2094 
Q 2938 2591 2744 2837 
Q 2550 3084 2163 3084 
Q 1697 3084 1428 2787 
Q 1159 2491 1159 1978 
L 1159 0 
L 581 0 
L 581 3500 
L 1159 3500 
L 1159 2956 
Q 1366 3272 1645 3428 
Q 1925 3584 2291 3584 
Q 2894 3584 3203 3211 
Q 3513 2838 3513 2113 
z
" id="DejaVuSans-6e" transform="scale(0.015625)"/>
       <path d="M 1172 4494 
L 1172 3500 
L 2356 3500 
L 2356 3053 
L 1172 3053 
L 1172 1153 
Q 1172 725 1289 603 
Q 1406 481 1766 481 
L 2356 481 
L 2356 0 
L 1766 0 
Q 1100 0 847 248 
Q 594 497 594 1153 
L 594 3053 
L 172 3053 
L 172 3500 
L 594 3500 
L 594 4494 
L 1172 4494 
z
" id="DejaVuSans-74" transform="scale(0.015625)"/>
       <path d="M 3513 2113 
L 3513 0 
L 2938 0 
L 2938 2094 
Q 2938 2591 2744 2837 
Q 2550 3084 2163 3084 
Q 1697 3084 1428 2787 
Q 1159 2491 1159 1978 
L 1159 0 
L 581 0 
L 581 4863 
L 1159 4863 
L 1159 2956 
Q 1366 3272 1645 3428 
Q 1925 3584 2291 3584 
Q 2894 3584 3203 3211 
Q 3513 2838 3513 2113 
z
" id="DejaVuSans-68" transform="scale(0.015625)"/>
       <path d="M 1984 4856 
Q 1566 4138 1362 3434 
Q 1159 2731 1159 2009 
Q 1159 1288 1364 580 
Q 1569 -128 1984 -844 
L 1484 -844 
Q 1016 -109 783 600 
Q 550 1309 550 2009 
Q 550 2706 781 3412 
Q 1013 4119 1484 4856 
L 1984 4856 
z
" id="DejaVuSans-28" transform="scale(0.015625)"/>
       <path d="M 3116 1747 
Q 3116 2381 2855 2742 
Q 2594 3103 2138 3103 
Q 1681 3103 1420 2742 
Q 1159 2381 1159 1747 
Q 1159 1113 1420 752 
Q 1681 391 2138 391 
Q 2594 391 2855 752 
Q 3116 1113 3116 1747 
z
M 1159 2969 
Q 1341 3281 1617 3432 
Q 1894 3584 2278 3584 
Q 2916 3584 3314 3078 
Q 3713 2572 3713 1747 
Q 3713 922 3314 415 
Q 2916 -91 2278 -91 
Q 1894 -91 1617 61 
Q 1341 213 1159 525 
L 1159 0 
L 581 0 
L 581 4863 
L 1159 4863 
L 1159 2969 
z
" id="DejaVuSans-62" transform="scale(0.015625)"/>
       <path d="M 2059 -325 
Q 1816 -950 1584 -1140 
Q 1353 -1331 966 -1331 
L 506 -1331 
L 506 -850 
L 844 -850 
Q 1081 -850 1212 -737 
Q 1344 -625 1503 -206 
L 1606 56 
L 191 3500 
L 800 3500 
L 1894 763 
L 2988 3500 
L 3597 3500 
L 2059 -325 
z
" id="DejaVuSans-79" transform="scale(0.015625)"/>
       <path d="M 513 4856 
L 1013 4856 
Q 1481 4119 1714 3412 
Q 1947 2706 1947 2009 
Q 1947 1309 1714 600 
Q 1481 -109 1013 -844 
L 513 -844 
Q 928 -128 1133 580 
Q 1338 1288 1338 2009 
Q 1338 2731 1133 3434 
Q 928 4138 513 4856 
z
" id="DejaVuSans-29" transform="scale(0.015625)"/>
      </defs>
      <use xlink:href="#DejaVuSans-6d"/>
      <use x="97.412109" xlink:href="#DejaVuSans-65"/>
      <use x="158.935547" xlink:href="#DejaVuSans-73"/>
      <use x="211.035156" xlink:href="#DejaVuSans-73"/>
      <use x="263.134766" xlink:href="#DejaVuSans-61"/>
      <use x="324.414062" xlink:href="#DejaVuSans-67"/>
      <use x="387.890625" xlink:href="#DejaVuSans-65"/>
      <use x="449.414062" xlink:href="#DejaVuSans-20"/>
      <use x="481.201172" xlink:href="#DejaVuSans-6c"/>
      <use x="508.984375" xlink:href="#DejaVuSans-65"/>
      <use x="570.507812" xlink:href="#DejaVuSans-6e"/>
      <use x="633.886719" xlink:href="#DejaVuSans-67"/>
      <use x="697.363281" xlink:href="#DejaVuSans-74"/>
      <use x="736.572266" xlink:href="#DejaVuSans-68"/>
      <use x="799.951172" xlink:href="#DejaVuSans-20"/>
      <use x="831.738281" xlink:href="#DejaVuSans-28"/>
      <use x="870.751953" xlink:href="#DejaVuSans-62"/>
      <use x="934.228516" xlink:href="#DejaVuSans-79"/>
      <use x="993.408203" xlink:href="#DejaVuSans-74"/>
      <use x="1032.617188" xlink:href="#DejaVuSans-65"/>
      <use x="1094.140625" xlink:href="#DejaVuSans-73"/>
      <use x="1146.240234" xlink:href="#DejaVuSans-29"/>
     </g>
    </g>
   </g>
   <g id="matplotlib.axis_2">
    <g id="ytick_1">
     <g id="line2d_9">
      <defs>
       <path d="M 0 0 
L -3.5 0 
" id="mc163df6766" style="stroke:#000000;stroke-width:0.8;"/>
      </defs>
      <g>
       <use style="stroke:#000000;stroke-width:0.8;" x="172.08" xlink:href="#mc163df6766" y="572.885384"/>
      </g>
     </g>
     <g id="text_10">
      <!-- 0.4 -->
      <g transform="translate(130.093125 581.243665)scale(0.22 -0.22)">
       <defs>
        <path d="M 684 794 
L 1344 794 
L 1344 0 
L 684 0 
L 684 794 
z
" id="DejaVuSans-2e" transform="scale(0.015625)"/>
       </defs>
       <use xlink:href="#DejaVuSans-30"/>
       <use x="63.623047" xlink:href="#DejaVuSans-2e"/>
       <use x="95.410156" xlink:href="#DejaVuSans-34"/>
      </g>
     </g>
    </g>
    <g id="ytick_2">
     <g id="line2d_10">
      <g>
       <use style="stroke:#000000;stroke-width:0.8;" x="172.08" xlink:href="#mc163df6766" y="495.090878"/>
      </g>
     </g>
     <g id="text_11">
      <!-- 0.6 -->
      <g transform="translate(130.093125 503.449159)scale(0.22 -0.22)">
       <use xlink:href="#DejaVuSans-30"/>
       <use x="63.623047" xlink:href="#DejaVuSans-2e"/>
       <use x="95.410156" xlink:href="#DejaVuSans-36"/>
      </g>
     </g>
    </g>
    <g id="ytick_3">
     <g id="line2d_11">
      <g>
       <use style="stroke:#000000;stroke-width:0.8;" x="172.08" xlink:href="#mc163df6766" y="417.296372"/>
      </g>
     </g>
     <g id="text_12">
      <!-- 0.8 -->
      <g transform="translate(130.093125 425.654653)scale(0.22 -0.22)">
       <use xlink:href="#DejaVuSans-30"/>
       <use x="63.623047" xlink:href="#DejaVuSans-2e"/>
       <use x="95.410156" xlink:href="#DejaVuSans-38"/>
      </g>
     </g>
    </g>
    <g id="ytick_4">
     <g id="line2d_12">
      <g>
       <use style="stroke:#000000;stroke-width:0.8;" x="172.08" xlink:href="#mc163df6766" y="339.501866"/>
      </g>
     </g>
     <g id="text_13">
      <!-- 1.0 -->
      <g transform="translate(130.093125 347.860147)scale(0.22 -0.22)">
       <use xlink:href="#DejaVuSans-31"/>
       <use x="63.623047" xlink:href="#DejaVuSans-2e"/>
       <use x="95.410156" xlink:href="#DejaVuSans-30"/>
      </g>
     </g>
    </g>
    <g id="ytick_5">
     <g id="line2d_13">
      <g>
       <use style="stroke:#000000;stroke-width:0.8;" x="172.08" xlink:href="#mc163df6766" y="261.70736"/>
      </g>
     </g>
     <g id="text_14">
      <!-- 1.2 -->
      <g transform="translate(130.093125 270.065641)scale(0.22 -0.22)">
       <use xlink:href="#DejaVuSans-31"/>
       <use x="63.623047" xlink:href="#DejaVuSans-2e"/>
       <use x="95.410156" xlink:href="#DejaVuSans-32"/>
      </g>
     </g>
    </g>
    <g id="ytick_6">
     <g id="line2d_14">
      <g>
       <use style="stroke:#000000;stroke-width:0.8;" x="172.08" xlink:href="#mc163df6766" y="183.912854"/>
      </g>
     </g>
     <g id="text_15">
      <!-- 1.4 -->
      <g transform="translate(130.093125 192.271135)scale(0.22 -0.22)">
       <use xlink:href="#DejaVuSans-31"/>
       <use x="63.623047" xlink:href="#DejaVuSans-2e"/>
       <use x="95.410156" xlink:href="#DejaVuSans-34"/>
      </g>
     </g>
    </g>
    <g id="ytick_7">
     <g id="line2d_15">
      <g>
       <use style="stroke:#000000;stroke-width:0.8;" x="172.08" xlink:href="#mc163df6766" y="106.118348"/>
      </g>
     </g>
     <g id="text_16">
      <!-- 1.6 -->
      <g transform="translate(130.093125 114.476629)scale(0.22 -0.22)">
       <use xlink:href="#DejaVuSans-31"/>
       <use x="63.623047" xlink:href="#DejaVuSans-2e"/>
       <use x="95.410156" xlink:href="#DejaVuSans-36"/>
      </g>
     </g>
    </g>
    <g id="text_17">
     <!-- latency (ms) -->
     <g transform="translate(121.517813 427.078187)rotate(-90)scale(0.22 -0.22)">
      <defs>
       <path d="M 3122 3366 
L 3122 2828 
Q 2878 2963 2633 3030 
Q 2388 3097 2138 3097 
Q 1578 3097 1268 2742 
Q 959 2388 959 1747 
Q 959 1106 1268 751 
Q 1578 397 2138 397 
Q 2388 397 2633 464 
Q 2878 531 3122 666 
L 3122 134 
Q 2881 22 2623 -34 
Q 2366 -91 2075 -91 
Q 1284 -91 818 406 
Q 353 903 353 1747 
Q 353 2603 823 3093 
Q 1294 3584 2113 3584 
Q 2378 3584 2631 3529 
Q 2884 3475 3122 3366 
z
" id="DejaVuSans-63" transform="scale(0.015625)"/>
      </defs>
      <use xlink:href="#DejaVuSans-6c"/>
      <use x="27.783203" xlink:href="#DejaVuSans-61"/>
      <use x="89.0625" xlink:href="#DejaVuSans-74"/>
      <use x="128.271484" xlink:href="#DejaVuSans-65"/>
      <use x="189.794922" xlink:href="#DejaVuSans-6e"/>
      <use x="253.173828" xlink:href="#DejaVuSans-63"/>
      <use x="308.154297" xlink:href="#DejaVuSans-79"/>
      <use x="367.333984" xlink:href="#DejaVuSans-20"/>
      <use x="399.121094" xlink:href="#DejaVuSans-28"/>
      <use x="438.134766" xlink:href="#DejaVuSans-6d"/>
      <use x="535.546875" xlink:href="#DejaVuSans-73"/>
      <use x="587.646484" xlink:href="#DejaVuSans-29"/>
     </g>
    </g>
   </g>
   <g id="line2d_16">
    <path clip-path="url(#pc11bab2862)" d="M 220.575273 375.725711 
L 254.020288 400.964777 
L 287.465304 401.977466 
L 320.91032 368.524079 
L 354.355335 364.081429 
L 387.800351 346.692995 
L 421.245367 357.873622 
L 454.690382 332.666063 
L 488.135398 334.176249 
L 521.580414 333.612433 
L 555.025429 316.393203 
L 588.470445 319.32975 
L 621.915461 309.241748 
L 655.360476 297.611858 
L 688.805492 309.017505 
L 722.250508 262.855218 
L 755.695524 254.016401 
L 789.140539 256.846954 
L 822.585555 240.260193 
L 856.030571 244.088849 
L 889.475586 215.025211 
L 922.920602 195.118374 
L 956.365618 190.650442 
L 989.810633 219.681018 
L 1023.255649 154.731162 
L 1056.700665 152.134382 
L 1090.14568 139.052458 
L 1123.590696 130.57519 
L 1157.035712 133.465839 
L 1190.480727 109.926 
" style="fill:none;stroke:#ff0000;stroke-dasharray:9.6,2.4,1.5,2.4;stroke-dashoffset:0;stroke-width:1.5;"/>
    <defs>
     <path d="M 0 0 
L 10 0 
M 0 0 
L -5 -8 
M 0 0 
L -5 8 
" id="m6ca7336e8a" style="stroke:#ff0000;"/>
    </defs>
    <g clip-path="url(#pc11bab2862)">
     <use style="fill:#ff0000;stroke:#ff0000;" x="220.575273" xlink:href="#m6ca7336e8a" y="375.725711"/>
     <use style="fill:#ff0000;stroke:#ff0000;" x="254.020288" xlink:href="#m6ca7336e8a" y="400.964777"/>
     <use style="fill:#ff0000;stroke:#ff0000;" x="287.465304" xlink:href="#m6ca7336e8a" y="401.977466"/>
     <use style="fill:#ff0000;stroke:#ff0000;" x="320.91032" xlink:href="#m6ca7336e8a" y="368.524079"/>
     <use style="fill:#ff0000;stroke:#ff0000;" x="354.355335" xlink:href="#m6ca7336e8a" y="364.081429"/>
     <use style="fill:#ff0000;stroke:#ff0000;" x="387.800351" xlink:href="#m6ca7336e8a" y="346.692995"/>
     <use style="fill:#ff0000;stroke:#ff0000;" x="421.245367" xlink:href="#m6ca7336e8a" y="357.873622"/>
     <use style="fill:#ff0000;stroke:#ff0000;" x="454.690382" xlink:href="#m6ca7336e8a" y="332.666063"/>
     <use style="fill:#ff0000;stroke:#ff0000;" x="488.135398" xlink:href="#m6ca7336e8a" y="334.176249"/>
     <use style="fill:#ff0000;stroke:#ff0000;" x="521.580414" xlink:href="#m6ca7336e8a" y="333.612433"/>
     <use style="fill:#ff0000;stroke:#ff0000;" x="555.025429" xlink:href="#m6ca7336e8a" y="316.393203"/>
     <use style="fill:#ff0000;stroke:#ff0000;" x="588.470445" xlink:href="#m6ca7336e8a" y="319.32975"/>
     <use style="fill:#ff0000;stroke:#ff0000;" x="621.915461" xlink:href="#m6ca7336e8a" y="309.241748"/>
     <use style="fill:#ff0000;stroke:#ff0000;" x="655.360476" xlink:href="#m6ca7336e8a" y="297.611858"/>
     <use style="fill:#ff0000;stroke:#ff0000;" x="688.805492" xlink:href="#m6ca7336e8a" y="309.017505"/>
     <use style="fill:#ff0000;stroke:#ff0000;" x="722.250508" xlink:href="#m6ca7336e8a" y="262.855218"/>
     <use style="fill:#ff0000;stroke:#ff0000;" x="755.695524" xlink:href="#m6ca7336e8a" y="254.016401"/>
     <use style="fill:#ff0000;stroke:#ff0000;" x="789.140539" xlink:href="#m6ca7336e8a" y="256.846954"/>
     <use style="fill:#ff0000;stroke:#ff0000;" x="822.585555" xlink:href="#m6ca7336e8a" y="240.260193"/>
     <use style="fill:#ff0000;stroke:#ff0000;" x="856.030571" xlink:href="#m6ca7336e8a" y="244.088849"/>
     <use style="fill:#ff0000;stroke:#ff0000;" x="889.475586" xlink:href="#m6ca7336e8a" y="215.025211"/>
     <use style="fill:#ff0000;stroke:#ff0000;" x="922.920602" xlink:href="#m6ca7336e8a" y="195.118374"/>
     <use style="fill:#ff0000;stroke:#ff0000;" x="956.365618" xlink:href="#m6ca7336e8a" y="190.650442"/>
     <use style="fill:#ff0000;stroke:#ff0000;" x="989.810633" xlink:href="#m6ca7336e8a" y="219.681018"/>
     <use style="fill:#ff0000;stroke:#ff0000;" x="1023.255649" xlink:href="#m6ca7336e8a" y="154.731162"/>
     <use style="fill:#ff0000;stroke:#ff0000;" x="1056.700665" xlink:href="#m6ca7336e8a" y="152.134382"/>
     <use style="fill:#ff0000;stroke:#ff0000;" x="1090.14568" xlink:href="#m6ca7336e8a" y="139.052458"/>
     <use style="fill:#ff0000;stroke:#ff0000;" x="1123.590696" xlink:href="#m6ca7336e8a" y="130.57519"/>
     <use style="fill:#ff0000;stroke:#ff0000;" x="1157.035712" xlink:href="#m6ca7336e8a" y="133.465839"/>
     <use style="fill:#ff0000;stroke:#ff0000;" x="1190.480727" xlink:href="#m6ca7336e8a" y="109.926"/>
    </g>
   </g>
   <g id="line2d_17">
    <path clip-path="url(#pc11bab2862)" d="M 220.575273 524.616616 
L 254.020288 513.480138 
L 287.465304 511.061118 
L 320.91032 508.296884 
L 354.355335 485.142322 
L 387.800351 482.929068 
L 421.245367 464.262082 
L 454.690382 477.435609 
L 488.135398 479.72374 
L 521.580414 458.812577 
L 555.025429 481.180831 
L 588.470445 458.510151 
L 621.915461 473.35237 
L 655.360476 458.124874 
L 688.805492 451.528483 
L 722.250508 443.231699 
L 755.695524 443.088557 
L 789.140539 435.240842 
L 822.585555 416.683935 
L 856.030571 418.887659 
L 889.475586 396.504623 
L 922.920602 408.013154 
L 956.365618 384.406022 
L 989.810633 369.825387 
L 1023.255649 353.158302 
L 1056.700665 381.186691 
L 1090.14568 362.821741 
L 1123.590696 359.234637 
L 1157.035712 338.532935 
L 1190.480727 331.231726 
" style="fill:none;stroke:#0000ff;stroke-dasharray:9.6,2.4,1.5,2.4;stroke-dashoffset:0;stroke-width:1.5;"/>
    <defs>
     <path d="M 0 0 
L 0 -10 
M 0 0 
L -8 5 
M 0 0 
L 8 5 
" id="m02afa11b5e" style="stroke:#0000ff;"/>
    </defs>
    <g clip-path="url(#pc11bab2862)">
     <use style="fill:#0000ff;stroke:#0000ff;" x="220.575273" xlink:href="#m02afa11b5e" y="524.616616"/>
     <use style="fill:#0000ff;stroke:#0000ff;" x="254.020288" xlink:href="#m02afa11b5e" y="513.480138"/>
     <use style="fill:#0000ff;stroke:#0000ff;" x="287.465304" xlink:href="#m02afa11b5e" y="511.061118"/>
     <use style="fill:#0000ff;stroke:#0000ff;" x="320.91032" xlink:href="#m02afa11b5e" y="508.296884"/>
     <use style="fill:#0000ff;stroke:#0000ff;" x="354.355335" xlink:href="#m02afa11b5e" y="485.142322"/>
     <use style="fill:#0000ff;stroke:#0000ff;" x="387.800351" xlink:href="#m02afa11b5e" y="482.929068"/>
     <use style="fill:#0000ff;stroke:#0000ff;" x="421.245367" xlink:href="#m02afa11b5e" y="464.262082"/>
     <use style="fill:#0000ff;stroke:#0000ff;" x="454.690382" xlink:href="#m02afa11b5e" y="477.435609"/>
     <use style="fill:#0000ff;stroke:#0000ff;" x="488.135398" xlink:href="#m02afa11b5e" y="479.72374"/>
     <use style="fill:#0000ff;stroke:#0000ff;" x="521.580414" xlink:href="#m02afa11b5e" y="458.812577"/>
     <use style="fill:#0000ff;stroke:#0000ff;" x="555.025429" xlink:href="#m02afa11b5e" y="481.180831"/>
     <use style="fill:#0000ff;stroke:#0000ff;" x="588.470445" xlink:href="#m02afa11b5e" y="458.510151"/>
     <use style="fill:#0000ff;stroke:#0000ff;" x="621.915461" xlink:href="#m02afa11b5e" y="473.35237"/>
     <use style="fill:#0000ff;stroke:#0000ff;" x="655.360476" xlink:href="#m02afa11b5e" y="458.124874"/>
     <use style="fill:#0000ff;stroke:#0000ff;" x="688.805492" xlink:href="#m02afa11b5e" y="451.528483"/>
     <use style="fill:#0000ff;stroke:#0000ff;" x="722.250508" xlink:href="#m02afa11b5e" y="443.231699"/>
     <use style="fill:#0000ff;stroke:#0000ff;" x="755.695524" xlink:href="#m02afa11b5e" y="443.088557"/>
     <use style="fill:#0000ff;stroke:#0000ff;" x="789.140539" xlink:href="#m02afa11b5e" y="435.240842"/>
     <use style="fill:#0000ff;stroke:#0000ff;" x="822.585555" xlink:href="#m02afa11b5e" y="416.683935"/>
     <use style="fill:#0000ff;stroke:#0000ff;" x="856.030571" xlink:href="#m02afa11b5e" y="418.887659"/>
     <use style="fill:#0000ff;stroke:#0000ff;" x="889.475586" xlink:href="#m02afa11b5e" y="396.504623"/>
     <use style="fill:#0000ff;stroke:#0000ff;" x="922.920602" xlink:href="#m02afa11b5e" y="408.013154"/>
     <use style="fill:#0000ff;stroke:#0000ff;" x="956.365618" xlink:href="#m02afa11b5e" y="384.406022"/>
     <use style="fill:#0000ff;stroke:#0000ff;" x="989.810633" xlink:href="#m02afa11b5e" y="369.825387"/>
     <use style="fill:#0000ff;stroke:#0000ff;" x="1023.255649" xlink:href="#m02afa11b5e" y="353.158302"/>
     <use style="fill:#0000ff;stroke:#0000ff;" x="1056.700665" xlink:href="#m02afa11b5e" y="381.186691"/>
     <use style="fill:#0000ff;stroke:#0000ff;" x="1090.14568" xlink:href="#m02afa11b5e" y="362.821741"/>
     <use style="fill:#0000ff;stroke:#0000ff;" x="1123.590696" xlink:href="#m02afa11b5e" y="359.234637"/>
     <use style="fill:#0000ff;stroke:#0000ff;" x="1157.035712" xlink:href="#m02afa11b5e" y="338.532935"/>
     <use style="fill:#0000ff;stroke:#0000ff;" x="1190.480727" xlink:href="#m02afa11b5e" y="331.231726"/>
    </g>
   </g>
   <g id="line2d_18">
    <path clip-path="url(#pc11bab2862)" d="M 220.575273 599.322291 
L 254.020288 606.366 
L 287.465304 606.054628 
L 320.91032 601.879396 
L 354.355335 598.774812 
L 387.800351 595.30401 
L 421.245367 575.402036 
L 454.690382 567.010732 
L 488.135398 502.603688 
L 521.580414 527.363734 
L 555.025429 493.404099 
L 588.470445 508.418633 
L 621.915461 487.214962 
L 655.360476 485.167994 
L 688.805492 494.218218 
L 722.250508 491.178398 
L 755.695524 488.022858 
L 789.140539 486.746445 
L 822.585555 479.342353 
L 856.030571 488.6034 
L 889.475586 482.784176 
L 922.920602 434.473593 
L 956.365618 435.761287 
L 989.810633 461.809027 
L 1023.255649 445.363463 
L 1056.700665 416.197524 
L 1090.14568 400.60206 
L 1123.590696 411.640128 
L 1157.035712 391.926028 
L 1190.480727 378.223887 
" style="fill:none;stroke:#008000;stroke-dasharray:9.6,2.4,1.5,2.4;stroke-dashoffset:0;stroke-width:1.5;"/>
    <defs>
     <path d="M 0 0 
L 0 10 
M 0 0 
L 8 -5 
M 0 0 
L -8 -5 
" id="m674d26008a" style="stroke:#008000;"/>
    </defs>
    <g clip-path="url(#pc11bab2862)">
     <use style="fill:#008000;stroke:#008000;" x="220.575273" xlink:href="#m674d26008a" y="599.322291"/>
     <use style="fill:#008000;stroke:#008000;" x="254.020288" xlink:href="#m674d26008a" y="606.366"/>
     <use style="fill:#008000;stroke:#008000;" x="287.465304" xlink:href="#m674d26008a" y="606.054628"/>
     <use style="fill:#008000;stroke:#008000;" x="320.91032" xlink:href="#m674d26008a" y="601.879396"/>
     <use style="fill:#008000;stroke:#008000;" x="354.355335" xlink:href="#m674d26008a" y="598.774812"/>
     <use style="fill:#008000;stroke:#008000;" x="387.800351" xlink:href="#m674d26008a" y="595.30401"/>
     <use style="fill:#008000;stroke:#008000;" x="421.245367" xlink:href="#m674d26008a" y="575.402036"/>
     <use style="fill:#008000;stroke:#008000;" x="454.690382" xlink:href="#m674d26008a" y="567.010732"/>
     <use style="fill:#008000;stroke:#008000;" x="488.135398" xlink:href="#m674d26008a" y="502.603688"/>
     <use style="fill:#008000;stroke:#008000;" x="521.580414" xlink:href="#m674d26008a" y="527.363734"/>
     <use style="fill:#008000;stroke:#008000;" x="555.025429" xlink:href="#m674d26008a" y="493.404099"/>
     <use style="fill:#008000;stroke:#008000;" x="588.470445" xlink:href="#m674d26008a" y="508.418633"/>
     <use style="fill:#008000;stroke:#008000;" x="621.915461" xlink:href="#m674d26008a" y="487.214962"/>
     <use style="fill:#008000;stroke:#008000;" x="655.360476" xlink:href="#m674d26008a" y="485.167994"/>
     <use style="fill:#008000;stroke:#008000;" x="688.805492" xlink:href="#m674d26008a" y="494.218218"/>
     <use style="fill:#008000;stroke:#008000;" x="722.250508" xlink:href="#m674d26008a" y="491.178398"/>
     <use style="fill:#008000;stroke:#008000;" x="755.695524" xlink:href="#m674d26008a" y="488.022858"/>
     <use style="fill:#008000;stroke:#008000;" x="789.140539" xlink:href="#m674d26008a" y="486.746445"/>
     <use style="fill:#008000;stroke:#008000;" x="822.585555" xlink:href="#m674d26008a" y="479.342353"/>
     <use style="fill:#008000;stroke:#008000;" x="856.030571" xlink:href="#m674d26008a" y="488.6034"/>
     <use style="fill:#008000;stroke:#008000;" x="889.475586" xlink:href="#m674d26008a" y="482.784176"/>
     <use style="fill:#008000;stroke:#008000;" x="922.920602" xlink:href="#m674d26008a" y="434.473593"/>
     <use style="fill:#008000;stroke:#008000;" x="956.365618" xlink:href="#m674d26008a" y="435.761287"/>
     <use style="fill:#008000;stroke:#008000;" x="989.810633" xlink:href="#m674d26008a" y="461.809027"/>
     <use style="fill:#008000;stroke:#008000;" x="1023.255649" xlink:href="#m674d26008a" y="445.363463"/>
     <use style="fill:#008000;stroke:#008000;" x="1056.700665" xlink:href="#m674d26008a" y="416.197524"/>
     <use style="fill:#008000;stroke:#008000;" x="1090.14568" xlink:href="#m674d26008a" y="400.60206"/>
     <use style="fill:#008000;stroke:#008000;" x="1123.590696" xlink:href="#m674d26008a" y="411.640128"/>
     <use style="fill:#008000;stroke:#008000;" x="1157.035712" xlink:href="#m674d26008a" y="391.926028"/>
     <use style="fill:#008000;stroke:#008000;" x="1190.480727" xlink:href="#m674d26008a" y="378.223887"/>
    </g>
   </g>
   <g id="patch_3">
    <path d="M 172.08 631.188 
L 172.08 85.104 
" style="fill:none;stroke:#000000;stroke-linecap:square;stroke-linejoin:miter;stroke-width:0.8;"/>
   </g>
   <g id="patch_4">
    <path d="M 1238.976 631.188 
L 1238.976 85.104 
" style="fill:none;stroke:#000000;stroke-linecap:square;stroke-linejoin:miter;stroke-width:0.8;"/>
   </g>
   <g id="patch_5">
    <path d="M 172.08 631.188 
L 1238.976 631.188 
" style="fill:none;stroke:#000000;stroke-linecap:square;stroke-linejoin:miter;stroke-width:0.8;"/>
   </g>
   <g id="patch_6">
    <path d="M 172.08 85.104 
L 1238.976 85.104 
" style="fill:none;stroke:#000000;stroke-linecap:square;stroke-linejoin:miter;stroke-width:0.8;"/>
   </g>
   <g id="text_18">
    <!-- Latency Measurement for UDP Echo Servers without Coallocation -->
    <g transform="translate(274.185 79.104)scale(0.264 -0.264)">
     <defs>
      <path d="M 628 4666 
L 1259 4666 
L 1259 531 
L 3531 531 
L 3531 0 
L 628 0 
L 628 4666 
z
" id="DejaVuSans-4c" transform="scale(0.015625)"/>
      <path d="M 628 4666 
L 1569 4666 
L 2759 1491 
L 3956 4666 
L 4897 4666 
L 4897 0 
L 4281 0 
L 4281 4097 
L 3078 897 
L 2444 897 
L 1241 4097 
L 1241 0 
L 628 0 
L 628 4666 
z
" id="DejaVuSans-4d" transform="scale(0.015625)"/>
      <path d="M 544 1381 
L 544 3500 
L 1119 3500 
L 1119 1403 
Q 1119 906 1312 657 
Q 1506 409 1894 409 
Q 2359 409 2629 706 
Q 2900 1003 2900 1516 
L 2900 3500 
L 3475 3500 
L 3475 0 
L 2900 0 
L 2900 538 
Q 2691 219 2414 64 
Q 2138 -91 1772 -91 
Q 1169 -91 856 284 
Q 544 659 544 1381 
z
M 1991 3584 
L 1991 3584 
z
" id="DejaVuSans-75" transform="scale(0.015625)"/>
      <path d="M 2631 2963 
Q 2534 3019 2420 3045 
Q 2306 3072 2169 3072 
Q 1681 3072 1420 2755 
Q 1159 2438 1159 1844 
L 1159 0 
L 581 0 
L 581 3500 
L 1159 3500 
L 1159 2956 
Q 1341 3275 1631 3429 
Q 1922 3584 2338 3584 
Q 2397 3584 2469 3576 
Q 2541 3569 2628 3553 
L 2631 2963 
z
" id="DejaVuSans-72" transform="scale(0.015625)"/>
      <path d="M 2375 4863 
L 2375 4384 
L 1825 4384 
Q 1516 4384 1395 4259 
Q 1275 4134 1275 3809 
L 1275 3500 
L 2222 3500 
L 2222 3053 
L 1275 3053 
L 1275 0 
L 697 0 
L 697 3053 
L 147 3053 
L 147 3500 
L 697 3500 
L 697 3744 
Q 697 4328 969 4595 
Q 1241 4863 1831 4863 
L 2375 4863 
z
" id="DejaVuSans-66" transform="scale(0.015625)"/>
      <path d="M 1959 3097 
Q 1497 3097 1228 2736 
Q 959 2375 959 1747 
Q 959 1119 1226 758 
Q 1494 397 1959 397 
Q 2419 397 2687 759 
Q 2956 1122 2956 1747 
Q 2956 2369 2687 2733 
Q 2419 3097 1959 3097 
z
M 1959 3584 
Q 2709 3584 3137 3096 
Q 3566 2609 3566 1747 
Q 3566 888 3137 398 
Q 2709 -91 1959 -91 
Q 1206 -91 779 398 
Q 353 888 353 1747 
Q 353 2609 779 3096 
Q 1206 3584 1959 3584 
z
" id="DejaVuSans-6f" transform="scale(0.015625)"/>
      <path d="M 556 4666 
L 1191 4666 
L 1191 1831 
Q 1191 1081 1462 751 
Q 1734 422 2344 422 
Q 2950 422 3222 751 
Q 3494 1081 3494 1831 
L 3494 4666 
L 4128 4666 
L 4128 1753 
Q 4128 841 3676 375 
Q 3225 -91 2344 -91 
Q 1459 -91 1007 375 
Q 556 841 556 1753 
L 556 4666 
z
" id="DejaVuSans-55" transform="scale(0.015625)"/>
      <path d="M 1259 4147 
L 1259 519 
L 2022 519 
Q 2988 519 3436 956 
Q 3884 1394 3884 2338 
Q 3884 3275 3436 3711 
Q 2988 4147 2022 4147 
L 1259 4147 
z
M 628 4666 
L 1925 4666 
Q 3281 4666 3915 4102 
Q 4550 3538 4550 2338 
Q 4550 1131 3912 565 
Q 3275 0 1925 0 
L 628 0 
L 628 4666 
z
" id="DejaVuSans-44" transform="scale(0.015625)"/>
      <path d="M 1259 4147 
L 1259 2394 
L 2053 2394 
Q 2494 2394 2734 2622 
Q 2975 2850 2975 3272 
Q 2975 3691 2734 3919 
Q 2494 4147 2053 4147 
L 1259 4147 
z
M 628 4666 
L 2053 4666 
Q 2838 4666 3239 4311 
Q 3641 3956 3641 3272 
Q 3641 2581 3239 2228 
Q 2838 1875 2053 1875 
L 1259 1875 
L 1259 0 
L 628 0 
L 628 4666 
z
" id="DejaVuSans-50" transform="scale(0.015625)"/>
      <path d="M 628 4666 
L 3578 4666 
L 3578 4134 
L 1259 4134 
L 1259 2753 
L 3481 2753 
L 3481 2222 
L 1259 2222 
L 1259 531 
L 3634 531 
L 3634 0 
L 628 0 
L 628 4666 
z
" id="DejaVuSans-45" transform="scale(0.015625)"/>
      <path d="M 3425 4513 
L 3425 3897 
Q 3066 4069 2747 4153 
Q 2428 4238 2131 4238 
Q 1616 4238 1336 4038 
Q 1056 3838 1056 3469 
Q 1056 3159 1242 3001 
Q 1428 2844 1947 2747 
L 2328 2669 
Q 3034 2534 3370 2195 
Q 3706 1856 3706 1288 
Q 3706 609 3251 259 
Q 2797 -91 1919 -91 
Q 1588 -91 1214 -16 
Q 841 59 441 206 
L 441 856 
Q 825 641 1194 531 
Q 1563 422 1919 422 
Q 2459 422 2753 634 
Q 3047 847 3047 1241 
Q 3047 1584 2836 1778 
Q 2625 1972 2144 2069 
L 1759 2144 
Q 1053 2284 737 2584 
Q 422 2884 422 3419 
Q 422 4038 858 4394 
Q 1294 4750 2059 4750 
Q 2388 4750 2728 4690 
Q 3069 4631 3425 4513 
z
" id="DejaVuSans-53" transform="scale(0.015625)"/>
      <path d="M 191 3500 
L 800 3500 
L 1894 563 
L 2988 3500 
L 3597 3500 
L 2284 0 
L 1503 0 
L 191 3500 
z
" id="DejaVuSans-76" transform="scale(0.015625)"/>
      <path d="M 269 3500 
L 844 3500 
L 1563 769 
L 2278 3500 
L 2956 3500 
L 3675 769 
L 4391 3500 
L 4966 3500 
L 4050 0 
L 3372 0 
L 2619 2869 
L 1863 0 
L 1184 0 
L 269 3500 
z
" id="DejaVuSans-77" transform="scale(0.015625)"/>
      <path d="M 603 3500 
L 1178 3500 
L 1178 0 
L 603 0 
L 603 3500 
z
M 603 4863 
L 1178 4863 
L 1178 4134 
L 603 4134 
L 603 4863 
z
" id="DejaVuSans-69" transform="scale(0.015625)"/>
      <path d="M 4122 4306 
L 4122 3641 
Q 3803 3938 3442 4084 
Q 3081 4231 2675 4231 
Q 1875 4231 1450 3742 
Q 1025 3253 1025 2328 
Q 1025 1406 1450 917 
Q 1875 428 2675 428 
Q 3081 428 3442 575 
Q 3803 722 4122 1019 
L 4122 359 
Q 3791 134 3420 21 
Q 3050 -91 2638 -91 
Q 1578 -91 968 557 
Q 359 1206 359 2328 
Q 359 3453 968 4101 
Q 1578 4750 2638 4750 
Q 3056 4750 3426 4639 
Q 3797 4528 4122 4306 
z
" id="DejaVuSans-43" transform="scale(0.015625)"/>
     </defs>
     <use xlink:href="#DejaVuSans-4c"/>
     <use x="55.712891" xlink:href="#DejaVuSans-61"/>
     <use x="116.992188" xlink:href="#DejaVuSans-74"/>
     <use x="156.201172" xlink:href="#DejaVuSans-65"/>
     <use x="217.724609" xlink:href="#DejaVuSans-6e"/>
     <use x="281.103516" xlink:href="#DejaVuSans-63"/>
     <use x="336.083984" xlink:href="#DejaVuSans-79"/>
     <use x="395.263672" xlink:href="#DejaVuSans-20"/>
     <use x="427.050781" xlink:href="#DejaVuSans-4d"/>
     <use x="513.330078" xlink:href="#DejaVuSans-65"/>
     <use x="574.853516" xlink:href="#DejaVuSans-61"/>
     <use x="636.132812" xlink:href="#DejaVuSans-73"/>
     <use x="688.232422" xlink:href="#DejaVuSans-75"/>
     <use x="751.611328" xlink:href="#DejaVuSans-72"/>
     <use x="790.474609" xlink:href="#DejaVuSans-65"/>
     <use x="851.998047" xlink:href="#DejaVuSans-6d"/>
     <use x="949.410156" xlink:href="#DejaVuSans-65"/>
     <use x="1010.933594" xlink:href="#DejaVuSans-6e"/>
     <use x="1074.3125" xlink:href="#DejaVuSans-74"/>
     <use x="1113.521484" xlink:href="#DejaVuSans-20"/>
     <use x="1145.308594" xlink:href="#DejaVuSans-66"/>
     <use x="1180.513672" xlink:href="#DejaVuSans-6f"/>
     <use x="1241.695312" xlink:href="#DejaVuSans-72"/>
     <use x="1282.808594" xlink:href="#DejaVuSans-20"/>
     <use x="1314.595703" xlink:href="#DejaVuSans-55"/>
     <use x="1387.789062" xlink:href="#DejaVuSans-44"/>
     <use x="1464.791016" xlink:href="#DejaVuSans-50"/>
     <use x="1525.09375" xlink:href="#DejaVuSans-20"/>
     <use x="1556.880859" xlink:href="#DejaVuSans-45"/>
     <use x="1620.064453" xlink:href="#DejaVuSans-63"/>
     <use x="1675.044922" xlink:href="#DejaVuSans-68"/>
     <use x="1738.423828" xlink:href="#DejaVuSans-6f"/>
     <use x="1799.605469" xlink:href="#DejaVuSans-20"/>
     <use x="1831.392578" xlink:href="#DejaVuSans-53"/>
     <use x="1894.869141" xlink:href="#DejaVuSans-65"/>
     <use x="1956.392578" xlink:href="#DejaVuSans-72"/>
     <use x="1997.505859" xlink:href="#DejaVuSans-76"/>
     <use x="2056.685547" xlink:href="#DejaVuSans-65"/>
     <use x="2118.208984" xlink:href="#DejaVuSans-72"/>
     <use x="2159.322266" xlink:href="#DejaVuSans-73"/>
     <use x="2211.421875" xlink:href="#DejaVuSans-20"/>
     <use x="2243.208984" xlink:href="#DejaVuSans-77"/>
     <use x="2324.996094" xlink:href="#DejaVuSans-69"/>
     <use x="2352.779297" xlink:href="#DejaVuSans-74"/>
     <use x="2391.988281" xlink:href="#DejaVuSans-68"/>
     <use x="2455.367188" xlink:href="#DejaVuSans-6f"/>
     <use x="2516.548828" xlink:href="#DejaVuSans-75"/>
     <use x="2579.927734" xlink:href="#DejaVuSans-74"/>
     <use x="2619.136719" xlink:href="#DejaVuSans-20"/>
     <use x="2650.923828" xlink:href="#DejaVuSans-43"/>
     <use x="2720.748047" xlink:href="#DejaVuSans-6f"/>
     <use x="2781.929688" xlink:href="#DejaVuSans-61"/>
     <use x="2843.208984" xlink:href="#DejaVuSans-6c"/>
     <use x="2870.992188" xlink:href="#DejaVuSans-6c"/>
     <use x="2898.775391" xlink:href="#DejaVuSans-6f"/>
     <use x="2959.957031" xlink:href="#DejaVuSans-63"/>
     <use x="3014.9375" xlink:href="#DejaVuSans-61"/>
     <use x="3076.216797" xlink:href="#DejaVuSans-74"/>
     <use x="3115.425781" xlink:href="#DejaVuSans-69"/>
     <use x="3143.208984" xlink:href="#DejaVuSans-6f"/>
     <use x="3204.390625" xlink:href="#DejaVuSans-6e"/>
    </g>
   </g>
   <g id="legend_1">
    <g id="patch_7">
     <path d="M 187.48 199.579625 
L 471.3625 199.579625 
Q 475.7625 199.579625 475.7625 195.179625 
L 475.7625 100.504 
Q 475.7625 96.104 471.3625 96.104 
L 187.48 96.104 
Q 183.08 96.104 183.08 100.504 
L 183.08 195.179625 
Q 183.08 199.579625 187.48 199.579625 
z
" style="fill:#ffffff;opacity:0.8;stroke:#cccccc;stroke-linejoin:miter;"/>
    </g>
    <g id="line2d_19">
     <path d="M 191.88 113.920563 
L 235.88 113.920563 
" style="fill:none;stroke:#ff0000;stroke-dasharray:9.6,2.4,1.5,2.4;stroke-dashoffset:0;stroke-width:1.5;"/>
    </g>
    <g id="line2d_20">
     <g>
      <use style="fill:#ff0000;stroke:#ff0000;" x="213.88" xlink:href="#m6ca7336e8a" y="113.920563"/>
     </g>
    </g>
    <g id="text_19">
     <!-- server on core 1 -->
     <g transform="translate(253.48 121.620563)scale(0.22 -0.22)">
      <use xlink:href="#DejaVuSans-73"/>
      <use x="52.099609" xlink:href="#DejaVuSans-65"/>
      <use x="113.623047" xlink:href="#DejaVuSans-72"/>
      <use x="154.736328" xlink:href="#DejaVuSans-76"/>
      <use x="213.916016" xlink:href="#DejaVuSans-65"/>
      <use x="275.439453" xlink:href="#DejaVuSans-72"/>
      <use x="316.552734" xlink:href="#DejaVuSans-20"/>
      <use x="348.339844" xlink:href="#DejaVuSans-6f"/>
      <use x="409.521484" xlink:href="#DejaVuSans-6e"/>
      <use x="472.900391" xlink:href="#DejaVuSans-20"/>
      <use x="504.6875" xlink:href="#DejaVuSans-63"/>
      <use x="559.667969" xlink:href="#DejaVuSans-6f"/>
      <use x="620.849609" xlink:href="#DejaVuSans-72"/>
      <use x="659.712891" xlink:href="#DejaVuSans-65"/>
      <use x="721.236328" xlink:href="#DejaVuSans-20"/>
      <use x="753.023438" xlink:href="#DejaVuSans-31"/>
     </g>
    </g>
    <g id="line2d_21">
     <path d="M 191.88 146.212438 
L 235.88 146.212438 
" style="fill:none;stroke:#0000ff;stroke-dasharray:9.6,2.4,1.5,2.4;stroke-dashoffset:0;stroke-width:1.5;"/>
    </g>
    <g id="line2d_22">
     <g>
      <use style="fill:#0000ff;stroke:#0000ff;" x="213.88" xlink:href="#m02afa11b5e" y="146.212438"/>
     </g>
    </g>
    <g id="text_20">
     <!-- server on core 2 -->
     <g transform="translate(253.48 153.912438)scale(0.22 -0.22)">
      <use xlink:href="#DejaVuSans-73"/>
      <use x="52.099609" xlink:href="#DejaVuSans-65"/>
      <use x="113.623047" xlink:href="#DejaVuSans-72"/>
      <use x="154.736328" xlink:href="#DejaVuSans-76"/>
      <use x="213.916016" xlink:href="#DejaVuSans-65"/>
      <use x="275.439453" xlink:href="#DejaVuSans-72"/>
      <use x="316.552734" xlink:href="#DejaVuSans-20"/>
      <use x="348.339844" xlink:href="#DejaVuSans-6f"/>
      <use x="409.521484" xlink:href="#DejaVuSans-6e"/>
      <use x="472.900391" xlink:href="#DejaVuSans-20"/>
      <use x="504.6875" xlink:href="#DejaVuSans-63"/>
      <use x="559.667969" xlink:href="#DejaVuSans-6f"/>
      <use x="620.849609" xlink:href="#DejaVuSans-72"/>
      <use x="659.712891" xlink:href="#DejaVuSans-65"/>
      <use x="721.236328" xlink:href="#DejaVuSans-20"/>
      <use x="753.023438" xlink:href="#DejaVuSans-32"/>
     </g>
    </g>
    <g id="line2d_23">
     <path d="M 191.88 178.504313 
L 235.88 178.504313 
" style="fill:none;stroke:#008000;stroke-dasharray:9.6,2.4,1.5,2.4;stroke-dashoffset:0;stroke-width:1.5;"/>
    </g>
    <g id="line2d_24">
     <g>
      <use style="fill:#008000;stroke:#008000;" x="213.88" xlink:href="#m674d26008a" y="178.504313"/>
     </g>
    </g>
    <g id="text_21">
     <!-- server inside driver -->
     <g transform="translate(253.48 186.204313)scale(0.22 -0.22)">
      <defs>
       <path d="M 2906 2969 
L 2906 4863 
L 3481 4863 
L 3481 0 
L 2906 0 
L 2906 525 
Q 2725 213 2448 61 
Q 2172 -91 1784 -91 
Q 1150 -91 751 415 
Q 353 922 353 1747 
Q 353 2572 751 3078 
Q 1150 3584 1784 3584 
Q 2172 3584 2448 3432 
Q 2725 3281 2906 2969 
z
M 947 1747 
Q 947 1113 1208 752 
Q 1469 391 1925 391 
Q 2381 391 2643 752 
Q 2906 1113 2906 1747 
Q 2906 2381 2643 2742 
Q 2381 3103 1925 3103 
Q 1469 3103 1208 2742 
Q 947 2381 947 1747 
z
" id="DejaVuSans-64" transform="scale(0.015625)"/>
      </defs>
      <use xlink:href="#DejaVuSans-73"/>
      <use x="52.099609" xlink:href="#DejaVuSans-65"/>
      <use x="113.623047" xlink:href="#DejaVuSans-72"/>
      <use x="154.736328" xlink:href="#DejaVuSans-76"/>
      <use x="213.916016" xlink:href="#DejaVuSans-65"/>
      <use x="275.439453" xlink:href="#DejaVuSans-72"/>
      <use x="316.552734" xlink:href="#DejaVuSans-20"/>
      <use x="348.339844" xlink:href="#DejaVuSans-69"/>
      <use x="376.123047" xlink:href="#DejaVuSans-6e"/>
      <use x="439.501953" xlink:href="#DejaVuSans-73"/>
      <use x="491.601562" xlink:href="#DejaVuSans-69"/>
      <use x="519.384766" xlink:href="#DejaVuSans-64"/>
      <use x="582.861328" xlink:href="#DejaVuSans-65"/>
      <use x="644.384766" xlink:href="#DejaVuSans-20"/>
      <use x="676.171875" xlink:href="#DejaVuSans-64"/>
      <use x="739.648438" xlink:href="#DejaVuSans-72"/>
      <use x="780.761719" xlink:href="#DejaVuSans-69"/>
      <use x="808.544922" xlink:href="#DejaVuSans-76"/>
      <use x="867.724609" xlink:href="#DejaVuSans-65"/>
      <use x="929.248047" xlink:href="#DejaVuSans-72"/>
     </g>
    </g>
   </g>
  </g>
 </g>
 <defs>
  <clipPath id="pc11bab2862">
   <rect height="546.084" width="1066.896" x="172.08" y="85.104"/>
  </clipPath>
 </defs>
</svg>
